<?xml version="1.0" encoding="UTF-8"?>
<svg version="1.1" xmlns="http://www.w3.org/2000/svg" width="300" height="300">
<path d="M0 0 C0.79067871 0.23074219 1.58135742 0.46148438 2.39599609 0.69921875 C41.3083722 12.23333219 73.84664688 38.74818142 93.25927734 74.30664062 C97.71429154 82.82122193 101.42170825 91.54273224 104.375 100.6875 C104.6016333 101.38601074 104.8282666 102.08452148 105.06176758 102.80419922 C109.38667877 117.0947858 110.54775744 130.9192383 110.4375 145.75 C110.43412628 146.63151733 110.43075256 147.51303467 110.42727661 148.42126465 C110.35571293 161.32614325 109.8570711 173.59550329 106 186 C105.76925781 186.79067871 105.53851563 187.58135742 105.30078125 188.39599609 C94.08760257 226.22564191 68.15228625 259.39802704 33.42773438 278.40820312 C20.14742915 285.40130503 6.68153021 290.79247463 -8 294 C-8.85247314 294.19070068 -9.70494629 294.38140137 -10.58325195 294.57788086 C-20.25877268 296.47406293 -29.99020046 296.43994493 -39.8125 296.4375 C-40.72152069 296.4385675 -41.63054138 296.43963501 -42.56710815 296.44073486 C-56.89116507 296.41645386 -70.28247707 295.44250689 -84 291 C-84.7331543 290.77006348 -85.46630859 290.54012695 -86.22167969 290.30322266 C-108.55069653 283.12277186 -127.74240899 270.67554858 -145 255 C-145.72445312 254.35933594 -146.44890625 253.71867187 -147.1953125 253.05859375 C-158.8722336 242.13896251 -167.8158035 228.1697689 -175 214 C-175.56332031 212.89011719 -176.12664062 211.78023437 -176.70703125 210.63671875 C-180.55150623 202.66551619 -183.56308015 194.49557163 -186 186 C-186.19899902 185.3493457 -186.39799805 184.69869141 -186.60302734 184.02832031 C-193.52808677 160.55911811 -193.06201864 129.35943779 -186 106 C-185.66097656 104.75476563 -185.32195312 103.50953125 -184.97265625 102.2265625 C-180.29111126 86.5991988 -172.80865262 71.04490868 -163 58 C-162.06607422 56.75283203 -162.06607422 56.75283203 -161.11328125 55.48046875 C-140.32751395 28.70772588 -112.97075951 8.97651113 -80 0 C-79.36094727 -0.19319824 -78.72189453 -0.38639648 -78.06347656 -0.58544922 C-54.70690247 -7.48651127 -23.23051297 -7.22332733 0 0 Z " fill="#0C6E77" transform="translate(190,4)"/>
<path d="M0 0 C15.61382675 11.24648101 27.59512375 27.38800352 32.25927734 46.21826172 C32.76403814 49.37061444 32.73844214 52.30067169 32.65234375 55.4921875 C32.63107422 56.74837891 32.60980469 58.00457031 32.58789062 59.29882812 C32.53473703 61.9240973 32.46973594 64.54915477 32.39257812 67.17382812 C32.23833449 78.34220995 34.64436513 83.99621159 41.8203125 92.25390625 C48.98023671 100.53061164 48.98023671 100.53061164 48.6953125 106.94140625 C45.24420161 108.45989504 41.91956047 109.87080967 38.3203125 111.00390625 C35.55210564 111.65123217 35.55210564 111.65123217 34.6953125 113.94140625 C34.57706912 115.82963961 34.51630303 117.72161866 34.484375 119.61328125 C34.45601562 120.7528125 34.42765625 121.89234375 34.3984375 123.06640625 C34.34669413 125.4672985 34.30232409 127.86836192 34.265625 130.26953125 C33.95528826 141.75199059 33.95528826 141.75199059 30.6953125 145.94140625 C24.57166384 150.66109644 16.08004758 149.34358171 8.72851562 149.29296875 C2.25017462 149.32720846 2.25017462 149.32720846 -3.484375 152.03515625 C-5.61369436 155.43475626 -6.2664631 158.10918678 -6.8671875 162.06640625 C-7.84657853 168.4560884 -7.84657853 168.4560884 -9.88621521 170.61686707 C-13.1895623 172.42603093 -16.20161962 172.35321361 -19.87133789 172.3137207 C-20.62788162 172.31737137 -21.38442535 172.32102203 -22.16389465 172.32478333 C-24.66027391 172.33287798 -27.15600191 172.31928937 -29.65234375 172.3046875 C-31.38821919 172.30416881 -33.12409523 172.30468684 -34.85997009 172.30619812 C-38.49568464 172.30610845 -42.13117721 172.29568849 -45.7668457 172.27758789 C-50.42990193 172.25488399 -55.09263432 172.25436021 -59.75573063 172.26110554 C-63.33905421 172.26444464 -66.92230378 172.25781681 -70.50561333 172.2479763 C-72.22523041 172.24412428 -73.94485573 172.2429761 -75.66447639 172.24456215 C-78.06562152 172.24493246 -80.46634915 172.23232294 -82.86743164 172.21606445 C-83.57971924 172.21854187 -84.29200684 172.22101929 -85.02587891 172.22357178 C-88.67749434 172.1840528 -90.17754318 172.02616913 -93.3046875 169.94140625 C-94.47142618 166.4411902 -94.49594195 163.24218156 -94.55078125 159.59765625 C-94.58376286 158.108068 -94.61697367 156.6184848 -94.65039062 155.12890625 C-94.69743014 152.79691601 -94.74178682 150.46493945 -94.78149414 148.1328125 C-95.08383461 131.18726258 -96.88548696 119.59753427 -107.6796875 106.12890625 C-121.71231817 88.59573797 -129.04639999 68.58366868 -127.3046875 45.94140625 C-125.13717368 29.97638509 -117.71092652 17.22543557 -106.3046875 5.94140625 C-105.7271875 5.33039063 -105.1496875 4.719375 -104.5546875 4.08984375 C-94.313896 -5.92235865 -80.06379083 -11.21188272 -66.3046875 -14.05859375 C-65.51433105 -14.23148926 -64.72397461 -14.40438477 -63.90966797 -14.58251953 C-41.54209393 -18.67031422 -18.678798 -12.31949213 0 0 Z " fill="#000001" transform="translate(189.3046875,66.05859375)"/>
<path d="M0 0 C0.92619141 0.51046875 0.92619141 0.51046875 1.87109375 1.03125 C5.29963579 2.5913939 8.65950674 1.8806169 12.34375 1.58203125 C15 2 15 2 16.95703125 4.48828125 C18.77767757 7.29776702 18.77767757 7.29776702 21.91796875 7.4609375 C23.53638672 7.41839844 23.53638672 7.41839844 25.1875 7.375 C31.49777854 7.60137771 34.45325873 9.12280325 39.0703125 13.30859375 C41.06025693 15.22644146 41.06025693 15.22644146 44.3125 16.4375 C47.76455725 18.44451003 48.4376878 20.50749049 49.99609375 24.07421875 C51.41764224 26.80115806 53.55578349 28.19899836 56 30 C59.08149662 34.78386189 58.90898838 40.53836642 58 46 C55.125 48.3125 55.125 48.3125 52 50 C51.30643577 52.32548007 50.63850788 54.65880445 50 57 C46.60330295 59.49332017 43.35665627 60.53121315 39.3125 61.5625 C33.02444517 63.54335244 29.94106132 66.81202222 25.57421875 71.59375 C21.34598649 75.5460885 16.4017678 77.15623722 11 79 C4.56370402 81.42661069 0.90245387 83.82612161 -2.125 90.125 C-3.92294357 94.32717043 -4.74624145 98.41060359 -5.3125 102.93359375 C-6 105 -6 105 -8.0625 106.28515625 C-9.0215625 106.63900391 -9.0215625 106.63900391 -10 107 C-11.66489182 103.07561214 -12.87204037 99.10899581 -14 95 C-14.90621094 94.99742187 -15.81242187 94.99484375 -16.74609375 94.9921875 C-26.38615621 94.68615377 -32.17945904 92.82054096 -39 86 C-41.79272024 85.65473412 -44.56018113 85.55743593 -47.37109375 85.44140625 C-50 85 -50 85 -51.7578125 83.8359375 C-53.97381811 80.56070908 -54.30495348 76.7352361 -55.05859375 72.91015625 C-56.13007212 69.59790983 -57.47671502 68.32730168 -60 66 C-62.7695434 61.08096022 -64.0021867 55.58207218 -63 50 C-61.5524026 46.15333272 -59.91530279 42.91530279 -57 40 C-56.94753714 37.46131448 -56.94753714 37.46131448 -57.1875 34.625 C-57.30515868 29.33728064 -57.30515868 29.33728064 -54.625 26.375 C-53.08980712 25.57085135 -51.5500896 24.7750448 -50 24 C-49.22225639 21.57236099 -48.65733505 19.12165486 -48.07421875 16.640625 C-46.62879515 13.087511 -45.02314987 11.36894674 -42 9 C-39.30922847 8.07935296 -36.62677076 7.67669975 -33.8125 7.3125 C-28.41594309 6.79704444 -28.41594309 6.79704444 -24 4 C-21.01245116 3.65137909 -18.04790327 3.55712423 -15.04296875 3.44140625 C-9.16512335 2.58877912 -6.40549232 -0.58231748 0 0 Z " fill="#0C6E77" transform="translate(142,67)"/>
</svg>
