<svg xmlns="http://www.w3.org/2000/svg" version="1.1" xmlns:xlink="http://www.w3.org/1999/xlink" xmlns:svgjs="http://svgjs.dev/svgjs" viewBox="0 0 8.401111946567115 8.39848179239966"><g transform="matrix(1,0,0,1,2.1102050345380454,2.041844460802855)"><rect width="8.401111946567115" height="8.401111946567115" x="-2.1102050345380454" y="-2.043159537886582" fill="#004a80"></rect><g><path d=" M -0.6459136485300481 1.4396863012547119 L -0.6609527685460057 1.4342250862666692 L -0.6709031677089343 1.344436503715777 L -1.1859930282554851 1.1573898903753188 L -1.251238229172345 1.219872397985998 L -1.2662773491883026 1.2144111829979556 L -1.1707060868975574 0.9512265827186961 Q -1.1304296263607434 0.8403130726010081 -1.065607186840042 0.7877840203100616 Q -1.0007847473193405 0.7352549680191152 -0.9133698622265863 0.7669982801371127 Q -0.8616728871717317 0.785771206658509 -0.834524947257569 0.835525496507898 Q -0.8073770073434061 0.8852797863572869 -0.8061932147711413 0.9537987518715578 Q -0.8050094221988764 1.0223177173858287 -0.8329981490125946 1.0993932074676118 L -0.8568909645852809 1.1651893575374266 L -0.635063944349905 1.2457422786110548 L -0.566064158128766 1.1729203759894045 L -0.5510250381128082 1.178381590977447 L -0.6459136485300481 1.4396863012547119 M -1.1510937498974532 1.0583543393338437 L -0.9067080496381407 1.1470990828895355 L -0.8807672784449384 1.0756632628137366 Q -0.8538025294414782 1.0014076077349456 -0.8722808823235133 0.9468223489669688 Q -0.8907592352055483 0.892237090198992 -0.9433961552614002 0.873122837740843 Q -1.009192305331215 0.8492300221681568 -1.0538609304843791 0.8814164156742039 Q -1.0985295556375432 0.913602809180251 -1.1275422602615195 0.9934981342650263 L -1.1510937498974532 1.0583543393338437 M -0.39982908042224563 0.811740039223833 L -0.41313128858020026 0.8028489617794259 L -0.401375729412776 0.7132788393687627 L -0.856976358822723 0.4087594368978197 L -0.9352429587799205 0.45387417208644737 L -0.9485451669378752 0.4449830946420403 L -0.6695876121196025 0.027626313686212933 L -0.5265888744215901 0.12320539621358928 L -0.5354799518659972 0.13650760437154386 L -0.6688723511389444 0.1255318212010078 L -0.7994600511036736 0.3209080035209668 L -0.6024210927639702 0.4526070881662469 L -0.5101761642782466 0.3145966785274673 L -0.5516724477534609 0.22551773344084958 L -0.5427813703090538 0.212215525282895 L -0.3590446201273052 0.3350235324837679 L -0.3679356975717123 0.3483257406417226 L -0.46444982373527743 0.3451597572426167 L -0.5566947522210011 0.4831701668813963 L -0.3421966456739823 0.6265387906724607 L -0.1966052525218161 0.40871513208595317 L -0.2696727753667627 0.2804921345180317 L -0.2607816979223556 0.267189926360077 L -0.10531214007626061 0.37110439399158496 L -0.39982908042224563 0.811740039223833 M -0.005489236092269159 0.25208651080566746 L -0.016227602029800295 0.24022533476820507 L 0.01697368681602504 0.15620941711579783 L -0.3508153465444162 -0.2500358621672878 L -0.43770846507789724 -0.2253258247021923 L -0.44844683101542837 -0.2371870007396547 L -0.24235889736452 -0.42376610890425814 Q -0.1645199296186733 -0.4942366353693062 -0.09047492533435597 -0.502593509218745 Q -0.01642992105003871 -0.5109503830681839 0.0345773171532342 -0.4546097968902376 Q 0.07216159793459315 -0.4130956807591193 0.07285066330273499 -0.35571515105680285 Q 0.0735397286708768 -0.2983346213544864 0.04301407256091119 -0.23967301279270103 L 0.37037447053913436 -0.15969070327653778 L 0.44487561642654866 -0.17722864105331765 L 0.4556139823640798 -0.1653674650158553 L 0.3362608984871149 -0.05731265776944833 L -0.010102166775524862 -0.1538146112308595 L -0.07163201746986084 -0.09810933792991672 L 0.09414150669077603 0.08499756714840839 L 0.17725783208130436 0.0650557404122285 L 0.1879961980188355 0.07691691644969084 L -0.005489236092269159 0.25208651080566746 M -0.22990944003152283 -0.3608454365293232 L -0.2736475266696653 -0.3212477121346773 L -0.10720285463793269 -0.13739948355401077 L -0.05901682698574187 -0.181024095175231 Q -0.013054769840575242 -0.22263526318316407 -0.0068569174196458915 -0.2761337362956594 Q -0.0006590649987164854 -0.32963220940815463 -0.037572197908979754 -0.3704050020369315 Q -0.07582762656143444 -0.4126604416703912 -0.12692221071452975 -0.4102431145882066 Q -0.178016794867625 -0.40782578750602205 -0.22990944003152283 -0.3608454365293232 M 0.7148098680374904 -0.2926281724815576 Q 0.6598373476926265 -0.26185444981215145 0.615145890115177 -0.2505884114843704 Q 0.5704544325377274 -0.23932237315658927 0.5182083360678077 -0.23643353192595085 L 0.42888469410113056 -0.37552446256418076 L 0.4428459691093499 -0.38334001117863314 L 0.5423361175100334 -0.31411782997051185 Q 0.5870420884542084 -0.3059095316122287 0.6230599310959171 -0.31117403647376174 Q 0.6590777737376259 -0.3164385413352947 0.6887454831300921 -0.333046582141006 Q 0.7393551050348874 -0.36137794586839583 0.7539323709312487 -0.4039191414203168 Q 0.7685096368276099 -0.44646033697223786 0.7431091038306397 -0.4918344807489509 Q 0.7230817605061055 -0.5276102479575131 0.6949714774619716 -0.5399517222283886 Q 0.6668611944178378 -0.552293196499264 0.6254868359314735 -0.551479280138812 Q 0.5841124774451091 -0.5506653637783598 0.5251654874818972 -0.5474634308813431 Q 0.44660428882721237 -0.5424496432971768 0.39512856861756857 -0.5566094536383668 Q 0.3436528484079247 -0.5707692639795566 0.3104367667965022 -0.630104682764489 Q 0.2928517824139844 -0.6615175515329828 0.2917581220427147 -0.6992972273784994 Q 0.29066446167144505 -0.7370769032240161 0.3038973499191697 -0.7748544186084777 Q 0.3171302381668944 -0.8126319339929393 0.3416001380089494 -0.8446666651720797 Q 0.36607003785100445 -0.8767013963512201 0.40097322537155294 -0.8962402678873511 Q 0.44198447070819746 -0.9191984419423049 0.4831334275891957 -0.9296274086986883 Q 0.5242823844701939 -0.9400563754550716 0.5694434795472112 -0.9412710735429146 L 0.6563247625718719 -0.8065430413447532 L 0.6423634875636525 -0.7987274927303009 L 0.5447228624277892 -0.866692986350798 Q 0.5045885177012686 -0.872876381322236 0.47652825614047606 -0.8697744913919019 Q 0.4484679945796835 -0.8666726014615675 0.419672864875231 -0.8505530324442595 Q 0.3821519382906413 -0.8295487455429188 0.3714490990459455 -0.7903224886210278 Q 0.3607462598012495 -0.751096231699137 0.3822390184909935 -0.7127027254265336 Q 0.4061741361227539 -0.6699463207138616 0.4464650266824638 -0.6604124789957775 Q 0.4867559172421736 -0.6508786372776934 0.5617224332560109 -0.656172168872677 Q 0.6282428964005285 -0.6601756652244757 0.6756542964697569 -0.6563469391340416 Q 0.7230656965389852 -0.6525182130436075 0.7557642796285539 -0.6330040473188172 Q 0.7884628627181224 -0.6134898815940268 0.8133749239266893 -0.5689883175053274 Q 0.8363330979816431 -0.527977072168683 0.8364664886038866 -0.4867947676321238 Q 0.8365998792261302 -0.4456124630955647 0.8197723083375579 -0.4081146917219207 Q 0.8029447374489855 -0.3706169203482768 0.7754563168154984 -0.34090351039457933 Q 0.7479678961820114 -0.31119010044088197 0.7148098680374904 -0.2926281724815576 M 1.3616917949518985 -0.5567098372085778 Q 1.2921589791987798 -0.5380232769728667 1.2261482089928433 -0.5466880456840928 Q 1.1601374387869068 -0.555352814395319 1.1043876942384103 -0.5874848230903473 Q 1.0486379496899136 -0.6196168317853756 1.0084034062393294 -0.6730039230464948 Q 0.9681688627887454 -0.7263910143076138 0.9489632314353755 -0.7978552971649857 Q 0.9297576000820057 -0.8693195800223577 0.9378097342377539 -0.9356834492249428 Q 0.9458618683935022 -1.002047318427528 0.9779938770885305 -1.0577970629760247 Q 1.0101258857835587 -1.1135468075245212 1.0629003424891998 -1.154134449971754 Q 1.115674799194841 -1.1947220924189867 1.1852076149479596 -1.2134086526546979 Q 1.254740430701078 -1.232095212890409 1.3207512009070146 -1.2234304441791828 Q 1.3867619711129513 -1.2147656754679566 1.4425117156614478 -1.1826336667729285 Q 1.4982614602099444 -1.1505016580779 1.5389788704365919 -1.0972443345961955 Q 1.5796962806632393 -1.043987011114491 1.598901912016609 -0.9725227282571194 Q 1.618107543369979 -0.9010584453997474 1.6095725424381673 -0.8345648084177476 Q 1.6010375415063558 -0.7680711714357478 1.5689055328113275 -0.7123214268872512 Q 1.5367735241162994 -0.6565716823387546 1.4839990674106582 -0.6159840398915217 Q 1.431224610705017 -0.5753963974442889 1.3616917949518985 -0.5567098372085778 M 1.3680296880529652 -0.6101872259914967 Q 1.4269394347326907 -0.6260188950800852 1.4630580402479783 -0.6688610044542868 Q 1.4991766457632656 -0.7117031138284883 1.509232655706458 -0.7744635843813962 Q 1.51928866564965 -0.8372240549343041 1.4987853565021336 -0.9135170055523092 Q 1.4736104072956895 -1.007193160108594 1.423890605612511 -1.0689037047552377 Q 1.3741708039293323 -1.1306142494018814 1.3106740362091938 -1.1549691357513345 Q 1.2471772684890552 -1.1793240221007877 1.18247312049657 -1.161935139659223 Q 1.1235633738168445 -1.1461034705706346 1.0863492669700157 -1.103484692413667 Q 1.0491351601231869 -1.0608659142566994 1.0385962834039315 -0.9979756759243769 Q 1.028057406684676 -0.9350854375920543 1.0485607158321923 -0.8587924869740491 Q 1.0737356650386367 -0.7651163324177643 1.124068101277293 -0.7030526887744721 Q 1.1744005375159496 -0.6409890451311797 1.2383801720121514 -0.6167639265611413 Q 1.3023598065083533 -0.5925388079911027 1.3680296880529652 -0.6101872259914967 M 1.8327022686166756 -0.6706278763125486 L 1.8331199378242904 -0.6866224238970541 L 1.9151365079898868 -0.7244943424947676 L 1.9293894696997436 -1.2703082788160174 L 1.8505131134472053 -1.3143823122634188 L 1.85093078265482 -1.3303768598479242 L 2.0078772808277803 -1.3262784807482033 L 2.3784516263327182 -0.8454410295720425 L 2.3893110257307044 -1.2612992667691851 L 2.2873641943490113 -1.302974722030438 L 2.287781863556626 -1.3189692696149433 L 2.5406956472366193 -1.3123648752695336 L 2.5402779780290046 -1.296370327685028 L 2.4592871714129156 -1.2594719639858702 L 2.4433635328725996 -0.6496798373265984 L 2.400378186239241 -0.6508023233220633 L 1.9968857044617419 -1.173513349749701 L 1.9850865493466223 -0.7216673804874211 L 2.087033380728315 -0.6799919252261682 L 2.0866157115207002 -0.6639973776416628 L 1.8327022686166756 -0.6706278763125486 M 2.607360507250333 -0.6368098957518503 L 2.612186675015229 -0.652064668929616 L 2.6822063154177793 -0.6645246030344801 L 3.113043568534133 -1.1743130506548192 L 3.1654818513327023 -1.1577230989629896 L 3.222748823037159 -0.496659188322119 L 3.2757693082480372 -0.44212637115664466 L 3.270943140483141 -0.42687159797887897 L 3.019239383050007 -0.5065033660996612 L 3.0240655508149032 -0.5217581392774269 L 3.118524045278324 -0.528584032896862 L 3.102265106686237 -0.7225212570593695 L 2.872490085696141 -0.7952154090181139 L 2.7482941602322 -0.644665177871977 L 2.818126112915066 -0.5869114041035214 L 2.8132999451501703 -0.5716566309257557 L 2.607360507250333 -0.6368098957518503 M 2.9110087738310084 -0.8407160756546457 L 3.097879745258638 -0.781595520534671 L 3.077138411503568 -1.0409308190847542 L 2.9110087738310084 -0.8407160756546457 M 3.3720058610946797 -0.36689324800824374 L 3.380512979985587 -0.38044422318259835 L 3.470382589033024 -0.3712543717332687 L 3.7617514110465855 -0.8353752714549142 L 3.7144173964536824 -0.9123199987760169 L 3.722924515344589 -0.9258709739503715 L 3.9575257730506035 -0.7785914781515458 L 3.9490186541596968 -0.7650405029771912 L 3.850679685628288 -0.7795473037333377 L 3.558779168684045 -0.314579468063295 L 3.759502988454172 -0.1885677694917366 L 3.91108696886762 -0.2964904125376493 L 3.924637944041975 -0.2879832936467424 L 3.803943194777233 -0.09572883336058635 L 3.3720058610946797 -0.36689324800824374 M 3.9125319436459765 0.0025139880746570323 L 3.923446058461765 -0.009185674219092624 L 4.010692114756703 0.01750000847744891 L 4.384500547197456 -0.38321342508347694 L 4.351825064981461 -0.46839741924876677 L 4.3627391797972495 -0.48009708154251646 L 4.557977294324196 -0.2979677905540471 L 4.547063179508408 -0.28626812826029735 L 4.460548352106829 -0.31227167878085216 L 4.086739919666075 0.08844175478007368 L 4.118684172988712 0.17294361676937675 L 4.107770058172924 0.18464327906312641 L 3.9125319436459765 0.0025139880746570323 M 4.290977366849053 0.390425163187218 L 4.30399349767824 0.381120307560315 L 4.39527072589603 0.4400224943522955 L 4.841886714972483 0.12074963565418681 L 4.750001265656816 -0.0077846562840270805 L 4.5858712341119885 0.02227083814035602 L 4.576566378485086 0.009254707311169785 L 4.744149062910858 -0.11054530888520614 L 5.089591828059632 0.3726785481483321 L 4.922009143633859 0.49247856434470805 L 4.912704288006956 0.47946243351552187 L 4.9948352793397 0.33470228615893527 L 4.902368276547352 0.20535448604389722 L 4.4557522874709 0.5246273447420059 L 4.482530415019441 0.6308673178453255 L 4.469514284190255 0.6401721734722285 L 4.290977366849053 0.390425163187218 M 4.673208205894993 1.025001118940523 L 4.688170214395573 1.0193320536182147 L 4.757463728085005 1.089320688128201 L 4.993115361969125 1.0000329093018432 L 5.196284182121884 0.6867208755116679 L 5.206691631010312 0.6154068866480882 L 5.22165363951089 0.6097378213257798 L 5.313067317833114 0.8510002083976173 L 5.298105309332534 0.8566692737199256 L 5.2385756796731995 0.8011605069112275 L 5.234835177548055 0.8025777732418047 L 5.072183959636119 1.053485288696731 L 5.353304740367889 1.1180693938678954 L 5.357045242493034 1.1166521275373182 L 5.365425460034947 1.034343124664302 L 5.380387468535526 1.0286740593419936 L 5.45691985038669 1.230661174099811 L 5.4419578418861105 1.2363302394221194 L 5.388068121481789 1.187239527115778 L 5.030899412095416 1.096931647972963 L 4.794312652680009 1.1865737433819648 L 4.788796123866547 1.284907704503493 L 4.773834115365967 1.2905767698258015 L 4.673208205894993 1.025001118940523" fill="#ffffff" fill-rule="nonzero"></path></g><g><path d=" M -1.3893710305760814 2.479622501688512 L -1.3736015979904683 2.4769160287202734 L -1.320645651685243 2.548997009227742 L -0.7805425856279967 2.456300310065571 L -0.7546513690051571 2.3706869647169095 L -0.738881936419544 2.367980491748671 L -0.695240059806697 2.6222625921916807 Q -0.6774788309526313 2.7257494935347664 -0.7101181248836147 2.792735883881514 Q -0.7427574188145979 2.859722274228262 -0.8176622235962598 2.872578020827395 Q -0.8728552376459053 2.88205067621623 -0.9231418453242082 2.852125651768313 Q -0.973428453002511 2.8222006273203957 -1.0067537496567693 2.7639990414063873 L -1.2476226847973617 2.9981168666231723 L -1.2719397071210068 3.069255340217363 L -1.2877091397066198 3.0719618131856015 L -1.312067396420767 2.930036919915084 L -1.046249751570613 2.687578717978508 L -1.0619811256985 2.5959188910746325 L -1.3044361517023 2.6375309129613003 L -1.332158730664315 2.718385465187473 L -1.347928163249928 2.7210919381557113 L -1.3893710305760814 2.479622501688512 M -0.7533380392115846 2.6088975336781823 L -0.7643330856450539 2.5448342137991293 L -1.007773701185455 2.5866153902463123 L -0.9957637273888963 2.65659224734497 Q -0.9851069900764569 2.7186843881508214 -0.9430986472657592 2.753581367021476 Q -0.9010903044550616 2.7884783458921305 -0.8468828799420167 2.7791748450638103 Q -0.7916898658923712 2.769702189674975 -0.7665935429339561 2.7237954954576074 Q -0.7414972199755409 2.6778888012402393 -0.7533380392115846 2.6088975336781823 M -1.211171198665345 3.2978697676584896 L -1.19649017614693 3.2915083544653547 L -1.127980553885217 3.3490099340745916 L -0.6251555326295057 3.1311315322097126 L -0.6202600422991442 3.0418228866348 L -0.6055790197807293 3.035461473441665 L -0.4111583290655364 3.484150224160721 L -0.5689793211384968 3.552535415986924 L -0.575340734331632 3.537854393468509 L -0.49263623328912154 3.4344475972348505 L -0.5884550195107197 3.2133146955512255 L -0.8059176655647408 3.30754312847454 L -0.7383276503876799 3.4635289927326984 L -0.6422904298448551 3.4764073571633567 L -0.63592901665172 3.4910883796817718 L -0.8368755123725242 3.5781602227628087 L -0.8432369255656593 3.563479200244394 L -0.7887936652947312 3.4853963505841006 L -0.856383680471792 3.329410486325942 L -1.0931151685812328 3.431988274065246 L -0.9861639092716481 3.678812965156097 L -0.844982816908331 3.6852082101944448 L -0.8386214037151958 3.69988923271286 L -1.0056180348621655 3.772250307784772 L -1.211171198665345 3.2978697676584896 M -0.7455082788567775 4.194578345125509 Q -0.7817696742713955 4.144288075663269 -0.797590672723215 4.1026834364028755 Q -0.8134116711750347 4.061078797142481 -0.8216592194240815 4.010314853758622 L -0.6944819575263201 3.9062862804905616 L -0.6851241780644832 3.9192644145453333 L -0.7424461165754699 4.021005239022741 Q -0.7457251141390338 4.067751877136922 -0.7367901333913439 4.103226038424236 Q -0.7278551526436541 4.1387001997115505 -0.7073850100708858 4.1670898679563635 Q -0.6728781983053622 4.214946737283334 -0.6281402128260212 4.223989007753203 Q -0.5834022273466801 4.233031278223073 -0.540412158290249 4.202033633755738 Q -0.5047222896396271 4.176299740235686 -0.4958487488981601 4.1458611089473125 Q -0.4869752081566931 4.11542247765894 -0.4925055416747556 4.074411315627378 Q -0.49803587519281806 4.033400153595816 -0.5070006015504777 3.978221954265535 Q -0.5150218776374661 3.9260620162868882 -0.5156662300737704 3.8858428068225312 Q -0.5163105825100749 3.845623597358174 -0.501513655146368 3.8139960628258525 Q -0.4867167277826613 3.782368528293531 -0.4494045923751928 3.75546491234075 Q -0.4218260575088031 3.7355796309843465 -0.3858140126400289 3.7299553421964737 Q -0.3498019677712546 3.7243310534086005 -0.31163838857664217 3.7319495324599954 Q -0.2734748093820296 3.73956801151139 -0.24013966883551907 3.75929789759176 Q -0.2068045282890083 3.77902778367213 -0.18457980206714564 3.8098508520522127 Q -0.1576761861143645 3.847162987459681 -0.1437890658387927 3.8852306625982003 Q -0.12990194556322077 3.923298337736719 -0.12214530326072826 3.968252030579367 L -0.24607803164479658 4.069941158981969 L -0.2554358111066335 4.056963024927197 L -0.19717042232497572 3.9582404618014237 Q -0.19655109705873997 3.9146444019311257 -0.20242945483235775 3.8868290301039266 Q -0.20830781260597564 3.8590136582767274 -0.22819309396237908 3.831435123410338 Q -0.2539269874824306 3.7957452547597157 -0.2949295335015243 3.790173789965598 Q -0.3359320795206182 3.78460232517148 -0.37162194817124017 3.8103362186915315 Q -0.41298975047082487 3.8401641407261367 -0.4179763540485778 3.881977820123654 Q -0.42296295762633085 3.9237914995211707 -0.4103183854557969 3.9960418614207773 Q -0.3989758526102406 4.0630668339955385 -0.3968501663218054 4.109614996771347 Q -0.39472448003337035 4.156163159547155 -0.41037951841040554 4.190875113877236 Q -0.42603455678744073 4.225587068207315 -0.4674023590870253 4.2554149902419205 Q -0.505525627872917 4.282903467411066 -0.5460180871342377 4.287443373023552 Q -0.5865105463955584 4.291983278636039 -0.6244008757932074 4.280469246408463 Q -0.6622912051908563 4.2689552141808855 -0.6939571013456152 4.245556047086392 Q -0.7256229975003742 4.222156879991899 -0.7455082788567775 4.194578345125509 M -0.42891539130484563 4.573891265310131 L -0.41824231288010416 4.561971307384898 L -0.33195982719208694 4.585536804695524 L 0.03359310885530897 4.177278245756304 L 0.000676015290999088 4.094112958819514 L 0.01134909371574061 4.082193000894281 L 0.3756528078056651 4.408388960250443 L 0.2609172147396941 4.536528507946695 L 0.2489972568144614 4.525855429521953 L 0.28085430583510673 4.3973325582978156 L 0.1013099395862892 4.2365693145251475 L -0.056785034580194016 4.413133691292657 L 0.06986451837540342 4.526535149555535 L 0.16248098122010202 4.498053737895708 L 0.17440093914533472 4.508726816320449 L 0.028313178206685663 4.6718812404220715 L 0.016393220281453014 4.6612081619973305 L 0.03317581129035463 4.567510004923522 L -0.09347374166524292 4.4541085466606445 L -0.26557713126419935 4.6463178682050215 L -0.06517283864622453 4.825758999220987 L 0.06573455831043773 4.772502512085326 L 0.07765451623567043 4.7831755905100675 L -0.04375175084576394 4.91876511190959 L -0.42891539130484563 4.573891265310131 M 0.19064529351337 5.09338594010124 L 0.19797043015917082 5.079161230152692 L 0.2699773642853306 5.079123312467012 L 0.7795904843254449 4.648674165780694 L 0.8195974810557387 4.669276112597008 L 0.7629923650031393 5.329631214672151 L 0.8060767804596358 5.3923108217606766 L 0.798751643813835 5.406535531709226 L 0.5782686396113272 5.292995913699313 L 0.585593776257128 5.278771203750764 L 0.6793955963464737 5.288831946662002 L 0.697414160929723 5.090022159854714 L 0.4813763785861367 4.978771647046614 L 0.33089020260702595 5.109366098839882 L 0.39000401446458083 5.178050574871002 L 0.38267887781877996 5.1922752848195515 L 0.19064529351337 5.09338594010124 M 0.5270045563571161 4.940404090526816 L 0.7030353419704086 5.031052656518601 L 0.7276439250929501 4.767023458063769 L 0.5270045563571161 4.940404090526816 M 1.0731391641158006 5.495482498321964 L 1.0766185869900333 5.479865404595464 L 1.1634026128081123 5.458219784650381 L 1.2825728462505894 4.9233343245177785 L 1.213185934803675 4.866894475830366 L 1.2166653576779078 4.851277382103866 L 1.4684909940177095 4.907383075950872 Q 1.5709781715978615 4.930216788563025 1.6205706263118664 4.985832329875138 Q 1.6701630810258714 5.041447871187252 1.653635822373265 5.115629066388124 Q 1.6414578423134498 5.170288894430871 1.5946900998440536 5.2054603070313945 Q 1.5479223573746574 5.240631719631917 1.4814283804448565 5.249381064296468 L 1.6066438599368789 5.561070146068004 L 1.6632356700916646 5.610561226308838 L 1.6597562472174316 5.626178320035337 L 1.5192024036789378 5.594863514167241 L 1.395736712925919 5.256926799371586 L 1.3049623556406416 5.236702653915107 L 1.2514662289493106 5.476815469960035 L 1.3157553346770543 5.5331440673571555 L 1.3122759118028215 5.548761161083655 L 1.0731391641158006 5.495482498321964 M 1.4340809056556911 4.956065165254003 L 1.3706364623917877 4.941930009827432 L 1.3169228717708172 5.1830188942302655 L 1.386223725182158 5.198458833234675 Q 1.447716031730249 5.212159060801966 1.495942838085561 5.186533387176338 Q 1.5441696444408728 5.160907713550709 1.5561301605710485 5.1072239538658675 Q 1.5683081406308637 5.052564125823119 1.5353569156699947 5.011925883075946 Q 1.5024056907091259 4.9712876403287725 1.4340809056556911 4.956065165254003 M 2.2418646108296016 5.643516252042832 Q 2.1399196443170325 5.646866446477661 2.0645800787465136 5.607319640542852 Q 1.9892405131759947 5.567772834608043 1.9468808292835647 5.496625753286787 Q 1.9045211453911344 5.42547867196553 1.9014665563476136 5.332528849557012 Q 1.8991345582606247 5.2615671571806155 1.924501215496401 5.196198719072591 Q 1.9498678727321772 5.130830280964567 1.9956999922185064 5.079297118599048 Q 2.0415321117048357 5.02776395623353 2.1030458839443016 4.996726787791949 Q 2.1645596561837674 4.965689619350367 2.234521888104158 4.963390466306857 Q 2.284494910904437 4.961748214132921 2.319689519647244 4.967095130575203 Q 2.354884128390051 4.972442047017483 2.382714163886731 4.982033143109877 Q 2.410544199383411 4.991624239202271 2.4389889227602692 5.004697024368945 L 2.449734107649072 5.179438378952528 L 2.431743819440972 5.180029589735145 L 2.366769636320228 5.060098961754666 Q 2.327903322818091 5.034361641094707 2.2990245593001872 5.023304199361783 Q 2.2701457957822835 5.012246757628859 2.2341652193660826 5.013429179194094 Q 2.162204066533681 5.015794022324561 2.1069169723345995 5.053630343697309 Q 2.0516298781355182 5.091466665070058 2.0212002285327566 5.155000407483465 Q 1.990770578929995 5.218534149896872 1.993431027451771 5.299490446833324 Q 1.996551306582249 5.394439190153854 2.0302513513812386 5.460868152064651 Q 2.0639513961802276 5.527297113975448 2.1185885296200206 5.561020750337534 Q 2.1732256630598137 5.594744386699621 2.238190592700176 5.592609458873505 Q 2.293160917780483 5.590802981482176 2.3301315867067722 5.5740796552836365 Q 2.3671022556330614 5.557356329085098 2.3954625530311273 5.53741407416011 L 2.4519157607392397 5.42850110275879 L 2.4689065884913344 5.427942737019651 L 2.463134885388389 5.587218245002805 Q 2.434643207816408 5.603162658103771 2.4045209593865033 5.615158496945933 Q 2.3743987109565996 5.627154335788095 2.335616823433254 5.634432055219799 Q 2.2968349359099087 5.641709774651503 2.2418646108296016 5.643516252042832 M 2.8341059904231574 5.573204077603151 L 2.82920399217859 5.5579735026563455 L 2.8931018713012002 5.495387074066496 L 2.725208431424778 4.973739882138405 L 2.636800561079333 4.960173435994227 L 2.6318985628347655 4.944942861047421 L 2.8698762963786026 4.868349138476061 L 2.8747782946231695 4.883579713422867 L 2.8108804155005593 4.946166142012715 L 2.8831848896079237 5.170817122478097 L 3.206834607227542 5.0666496597810475 L 3.134530133120178 4.841998679315665 L 3.046122262774732 4.828432233171487 L 3.041220264530165 4.813201658224681 L 3.279197998074002 4.73660793565332 L 3.2840999963185693 4.751838510600126 L 3.220202117195959 4.814424939189975 L 3.388095557072381 5.336072131118066 L 3.4765034274178266 5.349638577262245 L 3.481405425662394 5.36486915220905 L 3.2434276921185567 5.44146287478041 L 3.23852569387399 5.426232299833605 L 3.3024235729966 5.363645871243755 L 3.2236852261932416 5.119004761160691 L 2.900035508573623 5.223172223857742 L 2.9787738553769816 5.467813333940806 L 3.067181725722427 5.481379780084985 L 3.072083723966994 5.49661035503179 L 2.8341059904231574 5.573204077603151 M 4.339633792662405 4.826366797794809 Q 4.2822300641870354 4.874634923479634 4.219435055720579 4.890853336216325 Q 4.156640047254123 4.907071748953016 4.092967885644458 4.884178391052681 Q 4.029295724034794 4.861285033152347 3.969443248185612 4.790104409842888 L 3.745479145008027 4.523751109717172 L 3.658505500935726 4.544621788594121 L 3.64820830078963 4.5323756598527085 L 3.8395540623741966 4.37148190756996 L 3.8498512625202923 4.383728036311372 L 3.814363619178471 4.465829358895382 L 4.028674097219091 4.720701913326025 Q 4.082090822976964 4.784228706172101 4.1335259576291765 4.80499952520527 Q 4.184961092281391 4.825770344238439 4.232535713035194 4.813204300305213 Q 4.280110333788998 4.800638256371988 4.322206401337603 4.765241630869784 Q 4.355883255376486 4.73692433046802 4.372357194440682 4.69824798974518 Q 4.388831133504878 4.659571649022341 4.379665676673119 4.613710506417025 Q 4.370500219841359 4.567849363811709 4.326737119220452 4.515803316660707 L 4.088614365841984 4.232611589515549 L 3.9876202108611802 4.267884534667794 L 3.977323010715084 4.255638405926382 L 4.167903389253312 4.095388228652764 L 4.178200589399408 4.1076343573941765 L 4.142834754094794 4.188326721922717 L 4.367442432281511 4.455445405094772 Q 4.427294908130692 4.526626028404231 4.438921022589354 4.593282486925474 Q 4.450547137048017 4.659938945446715 4.423792329092896 4.71901880877835 Q 4.397037521137775 4.7780986721099845 4.339633792662405 4.826366797794809 M 4.817099430817512 4.3470789938382275 L 4.803734378687626 4.3382826661064176 L 4.81430338702196 4.2494665861274585 L 4.358220983089579 3.949291902279436 L 4.279705853072814 3.99219148687475 L 4.266340800942928 3.9833951591429395 L 4.347157061978933 3.860603742699606 L 4.9581209504725 3.805402955052868 L 4.602276437514268 3.5712007291934222 L 4.515557390381974 3.6338410266421644 L 4.502192338252088 3.6250446989103544 L 4.639085188578384 3.4170510751389935 L 4.65245024070827 3.425847402870804 L 4.641595687099056 3.5132783966084062 L 5.151138299550984 3.8486383913836693 L 5.130796791671173 3.879545074434032 L 4.468542072114389 3.938100060769662 L 4.853622636606747 4.1915442535424425 L 4.94117699949716 4.129453726576939 L 4.954542051627047 4.138250054308749 L 4.817099430817512 4.3470789938382275 M 5.298011347273972 3.5188271528913235 L 5.283076659874679 3.51308649854836 L 5.274443213091264 3.4240614256944837 L 4.762930169665467 3.2274440144479746 L 4.696890179452415 3.287765815587032 L 4.681955492053122 3.2820251612440683 L 4.771653216161931 3.0486706706301097 L 4.786587903561224 3.0544113249730733 L 4.795221350344638 3.1434363978269495 L 5.306734393770435 3.3400538090734586 L 5.372774383983487 3.2797320079344017 L 5.387709071382781 3.2854726622773653 L 5.298011347273972 3.5188271528913235 M 5.498440627950119 2.892090754009421 L 5.4826774875318565 2.889347871555842 L 5.460412651821071 2.7839710378077562 L 4.919539896219453 2.6898558836193236 L 4.891596781223615 2.8504428766303684 L 5.024763383388688 2.9426364559502405 L 5.022020500935108 2.9583995963685026 L 4.82301085315455 2.9237707053920663 L 4.923126062710187 2.3484160801255003 L 5.1221357104907455 2.383044971101936 L 5.119392828037166 2.3988081115201982 L 4.9629117250166725 2.4406012257555543 L 4.934968610020835 2.601188218766599 L 5.475841365622453 2.695303372955032 L 5.5323922320029775 2.603640951474842 L 5.54815537242124 2.606383833928421 L 5.498440627950119 2.892090754009421" fill="#ebebeb" fill-rule="nonzero"></path></g><g clip-path="url(#SvgjsClipPath1002)"><g clip-path="url(#SvgjsClipPath100007b9ad0e-68e1-4191-879e-0457528fd253)"><path d=" M 1.0306229244168719 4.303670164029231 C 0.9943541844566327 4.303670164029231 0.9578066130673126 4.301955867094892 0.9209802102489149 4.298527273226212 C 0.8077715443275566 4.28862662010119 0.6956148273164644 4.269078743908331 0.5857318886859054 4.240096598199153 C 0.5264851371920903 4.223355985962062 0.4779498186887928 4.180785139057196 0.4536277538421173 4.124226648781755 C 0.430752690037239 4.071714862687681 0.4331609258486346 4.01162310180146 0.4601648017905314 3.961110262770369 C 0.4674601069175892 3.9471477896597817 0.47713732965686073 3.934566351645565 0.48876051390610936 3.9239327388931255 C 0.5600174346708182 3.8602042667135597 0.5763755451768028 3.7765858192596684 0.5510328664004839 3.7325614347350355 C 0.5380266305001689 3.7125033810332515 0.5184912197367191 3.69755359330055 0.49573129963309104 3.6902410200547786 C 0.4192424712953723 3.6624680991839407 0.37589215194741465 3.5816000003756665 0.3951041350053627 3.5025255057446194 C 0.4043116565044418 3.4692971009831046 0.42220187153240074 3.4391200616472415 0.4469357995442149 3.4150963620933106 C 0.40138087894466495 3.38846118680201 0.37221386160269837 3.340760839334091 0.3692657559106815 3.2880731555127425 C 0.36619417246666536 3.2497273079999642 0.3765435541248979 3.211505782087549 0.39854305596400746 3.1799485235697698 C 0.4150002940567836 3.1550652180755434 0.4237609973415819 3.1258844253384797 0.4237308283908366 3.0960512446868016 L 0.4289976442734453 2.9280398180315754 L 0.046471904846549915 2.9280398180315754 C 0.030501325221447394 2.9280519766703494 0.015643332383329506 2.919862531798943 0.007125692076471473 2.906352929103184 C -0.00137311903873537 2.892842757828511 -0.002344017012645515 2.875916379897828 0.0045542466749603685 2.861523031561211 C 0.06279903408263719 2.740138416102026 0.13334338563969914 2.615314879684195 0.2015951232243307 2.4946428334326582 C 0.2351478385235393 2.435282720308663 0.26873153509264525 2.3758916259147758 0.30095205578625367 2.3167793629499656 C 0.3669825919551838 2.1959491074206112 0.4061470436147882 2.0622869421236096 0.41576864202712727 1.9249282612838559 L 0.4160164921863092 1.921613265404808 C 0.41854552662184685 1.8859733230621296 0.41741395780024815 1.850167994019049 0.41263953376745915 1.814758865527648 C 0.33230510092272547 1.2179666634882567 0.5979075277557026 0.6793572863167519 1.1413809643011474 0.3369522914073765 C 1.8260670290403065 -0.09421404175890967 2.769849453933927 -0.11407303576333533 3.3857261182302945 0.2898607611628718 C 3.9535508329153313 0.662224644063324 4.264757689037723 1.335602545289822 4.160257865672783 1.9654207810401532 C 4.112825541459404 2.251037108227047 3.9895200872665604 2.512673932513118 3.870242198160417 2.765666982497735 C 3.815870069489955 2.8810102503268684 3.7596080833557326 3.000319120702909 3.71195889025307 3.1193491596498735 C 3.637448936149103 3.30523677903607 3.599899637033092 3.8065137259808477 3.59655365988414 4.193500768273014 C 3.596332579671799 4.219009067586647 3.575591012365405 4.239570874643056 3.5500817550375907 4.239569916610888 L 3.5496480172590226 4.239569916610888 C 3.523994027555811 4.239331442168604 3.503386397625826 4.218349380200863 3.5036098501910415 4.192695255255677 C 3.507141714959379 3.7840523053050137 3.546271058840174 3.2829922272495238 3.6256760535879775 3.084805043713939 C 3.6743786098671607 2.9632035593654695 3.731198258859542 2.842624456923622 3.7861590316580616 2.7260109570286786 C 3.9027105690132067 2.4787804232450372 4.0232586901851555 2.223092002779326 4.068584288045489 1.9501470149805913 C 4.167259632669663 1.3560811646922037 3.872441868323154 0.7201906000419172 3.334916835598068 0.3675308047964067 C 2.7479766773861503 -0.017318529872817852 1.8463597608232996 0.002850276830587401 1.1910129586772613 0.4155827544077416 C 0.8904946406695767 0.6048783134826843 0.4017960893032651 1.036695253316821 0.5048707742529106 1.802273413758873 C 0.510482443621252 1.8440082847242285 0.5118008758583559 1.8862084976677678 0.5088053955299192 1.9282122758930242 L 0.5085885266406347 1.93162021558177 C 0.4979825985983808 2.0821851077149947 0.4550262361283743 2.2286911370591937 0.3826496645064863 2.361144541443481 C 0.35018129365369743 2.4206905421868576 0.3164117094652043 2.4805153743593134 0.28258016273691794 2.5402782439919775 C 0.22765037120829645 2.637435506391164 0.17120249745468766 2.737319120541348 0.12147755926888013 2.83503404579869 L 0.4769256688051877 2.83503404579869 C 0.48950130457344415 2.835034571238439 0.5015398539936409 2.84013167294281 0.5102924964850092 2.8491615048720464 C 0.5190451930072381 2.858194759855304 0.5237623901697858 2.8703901676854935 0.5233665923818374 2.882962070330432 L 0.5166126755441401 3.098901521517401 C 0.5162747663851855 3.1475954178455323 0.5011487020049898 3.195037238340846 0.47323889768736105 3.234940277638201 C 0.464009870378318 3.2493225297213844 0.4600164963945671 3.266444804473635 0.4619307341747006 3.2834259650280986 C 0.46456198828050593 3.3119578773309 0.4848561571584165 3.3357501853430205 0.5126160917273354 3.342848040691886 L 0.5766853578757795 3.3608171772325544 C 0.5976325709243019 3.3667038283771484 0.6116909751244792 3.386336673070618 0.6105169046040673 3.408063613826546 C 0.6093616301289021 3.4298189873314096 0.5932482348447438 3.4478515639883387 0.5717593359620448 3.451437391683328 C 0.531174191540982 3.4570662816227236 0.4974689680462675 3.4855842302059385 0.48519766786787366 3.524677113721486 C 0.47780269296739747 3.5581608282774164 0.4965652157813218 3.591896136837958 0.5289122396935267 3.603276595451951 C 0.5716037318529995 3.6181983151086716 0.6078223920413361 3.6474228006640836 0.6314292617850152 3.685996586078804 C 0.6830750387044803 3.7758422687821342 0.6490885856267027 3.904879257906055 0.5505371660821216 3.993051952034904 C 0.546986175141212 3.996510920117927 0.5440431020005985 4.0005432445276625 0.5418314292408681 4.004979740945518 C 0.528108821006112 4.030586968217678 0.5270557419463707 4.061114814438678 0.5389811524102792 4.0876067877626845 C 0.5521260218477348 4.118209157152914 0.5783751557967924 4.141248292934742 0.6104239607943752 4.150312878035625 C 0.7149833010415454 4.178024485602796 0.8217545905313945 4.196590250600497 0.9295310407406786 4.205800332422405 C 1.4994907200811158 4.258152757840554 2.011954529288543 3.8584046695930896 2.0999104736660743 3.292844271077005 C 2.1039134583474746 3.267524350773353 2.127605298133399 3.250184470369285 2.152950407730935 3.254024739895183 C 2.16513232527461 3.2559092538641123 2.176066437729332 3.26255647472725 2.183346748364261 3.2725037147966867 C 2.1906270589991914 3.2824509548661176 2.1936570326988463 3.294883155787728 2.1917699389127523 3.3070646739600447 C 2.1026103734262893 3.879688824483602 1.6101452725231906 4.302368654944676 1.0306229244168719 4.303670164029231 Z" fill="#ffffff" transform="matrix(1,0,0,1,0,0)" fill-rule="nonzero"></path></g><g clip-path="url(#SvgjsClipPath100007b9ad0e-68e1-4191-879e-0457528fd253)"><path d=" M 0.788845094135225 3.452273885970551 L 0.564261868646802 3.452273885970551 C 0.5385961443044653 3.452273885970551 0.517789963800252 3.431467705466339 0.517789963800252 3.4058019811240023 C 0.517789963800252 3.380136256781666 0.5385961443044653 3.359330076277454 0.564261868646802 3.359330076277454 L 0.788845094135225 3.359330076277454 C 0.814510818477563 3.359330076277454 0.8353169989817748 3.380136256781666 0.8353169989817748 3.4058019811240023 C 0.8353169989817748 3.431467705466339 0.814510818477563 3.452273885970551 0.788845094135225 3.452273885970551 Z" fill="#ffffff" transform="matrix(1,0,0,1,0,0)" fill-rule="nonzero"></path></g><g clip-path="url(#SvgjsClipPath100007b9ad0e-68e1-4191-879e-0457528fd253)"><path d=" M 1.1418456833496138 1.626454707089427 C 1.1254332176358777 1.6264692756163448 1.1102301599055298 1.6178255541801916 1.1018488639116832 1.6037144549845168 C 1.0887733644908917 1.5817033470202615 1.095963167917151 1.5532627565884525 1.1179281429885901 1.5401099078845377 C 1.12520874141455 1.5356795862891637 1.276428319785221 1.4401953124644562 1.2158289558653206 1.2388480393993044 C 1.2084154372284404 1.2143051314755045 1.2222786130837933 1.188394855801851 1.2468102257630196 1.180944045960509 C 1.271353133686821 1.1735305273236274 1.2972634093604745 1.1873937031789785 1.3047142192018217 1.2119253158582048 C 1.3575066580989072 1.363783337114131 1.2999912968724419 1.5320732840627673 1.1652985046621727 1.619855696601211 C 1.1582141192748154 1.6241187140274678 1.150113610329188 1.6263979853688404 1.1418456833496138 1.626454707089427 Z" fill="#ffffff" transform="matrix(1,0,0,1,0,0)" fill-rule="nonzero"></path></g><g clip-path="url(#SvgjsClipPath100007b9ad0e-68e1-4191-879e-0457528fd253)"><path d=" M 3.3886693388705775 2.406377195494114 C 3.361957406761624 2.4063762029009976 3.3352890499220074 2.404221184166485 3.3089235501538985 2.3999330913553933 C 3.2681305325228043 2.3933586359328136 3.2283067401490895 2.381766343091342 3.1903582302554025 2.3654199566893532 C 3.158261591614239 2.3513670938447166 3.1291841063411856 2.3312421917725916 3.104726000258161 2.306152787375056 C 3.089235365309311 2.29128177782416 3.085269762762406 2.2884315009935694 3.079940984340001 2.2880907070246983 C 3.0746122059175964 2.2877499130558245 3.0718548728967017 2.2887103324226516 3.0549081182626603 2.302249147367946 C 3.034887372170804 2.3192721547638886 3.0123831422358083 2.333136181283729 2.9881744629030154 2.343361292522194 C 2.8846350589049035 2.3856817072024508 2.7805999545884292 2.343361292522194 2.7465205577009586 2.3292648147187376 C 2.7397356595933626 2.3265074816978424 2.5784781497758367 2.259154200940243 2.5269253166660652 2.092010249842155 C 2.4764568280027124 1.928522088591992 2.5527946770306444 1.7390716231675596 2.712596067162978 1.6312877851934668 C 2.7338334531001918 1.6169138087440127 2.7627002048648013 1.6224597745009035 2.7770990710899883 1.643680293152544 C 2.7914730475394425 1.6649176790897593 2.7859270817825537 1.693784430854368 2.764706563130908 1.7081832970795556 C 2.6386127946472713 1.7932888454885356 2.5773938053294176 1.939799270834758 2.6159964676219505 2.0644679009030997 C 2.645091542783336 2.1438709553552653 2.7048868138591855 2.2082435343364715 2.7819321491940285 2.2431059031332383 C 2.8074297343198356 2.253484628548966 2.8849138903339817 2.285240430194105 2.9532895529982044 2.2572023809366883 C 2.969287834025535 2.2503035131386917 2.9841103110801246 2.240948000470248 2.997220993713143 2.2294741443782486 C 3.02096833392661 2.2062219260486784 3.0532714746337533 2.193820928609559 3.086478032288416 2.1952088598713932 C 3.1184852919421666 2.1988482280900796 3.147933780159277 2.2144522748342093 3.168919191486195 2.238892450427152 C 3.18545103123081 2.2563121332791356 3.205253513984543 2.2703033611258725 3.2271949601637684 2.280066558121191 C 3.258104807614049 2.2934032910809052 3.290553907115228 2.302842461461782 3.323794559704796 2.3081665699184084 C 3.5141320830047325 2.336482463183816 3.699057212727471 2.230593160346183 3.77097820940819 2.052106374213917 C 3.84079584623516 1.870258943475333 3.7737362065095583 1.6643629750597762 3.6102163999090284 1.5585127822037723 C 3.5993106387507217 1.5515178266569245 3.591820138210706 1.5402876909147742 3.5895518928872625 1.5275315123060733 C 3.5872942533778356 1.514750273797156 3.5904845163347168 1.5016072890804297 3.598350573538208 1.4912834265257626 C 3.649253582799642 1.4251529842058317 3.678470321361406 1.3449043422895206 3.6820000022619963 1.261526328964423 C 3.688760122212151 1.0986719695133262 3.5988870339536123 0.9471386557022757 3.452738605019021 0.8749730244508314 C 3.373299759364177 0.8360999011578643 3.283385490610142 0.8240750908504922 3.1965235029650447 0.840707739943973 C 3.1832810630310653 0.8431853809341606 3.169615142044684 0.8397943335429997 3.1590671476587255 0.8314133589746651 C 3.1485014337184603 0.8230737580805654 3.1420707195391913 0.810562684976083 3.1414388050869357 0.7971170931979124 C 3.1363755845802372 0.6841224009044136 3.0595768107358863 0.5870444578210171 2.9507800701364926 0.5561137946637069 C 2.833898644752437 0.5226525496995996 2.7093502360482526 0.5739598241400448 2.6499519394298297 0.6800388742545057 C 2.6413214384980996 0.6953009750079757 2.6248357611396385 0.7044064363396806 2.6073217120505947 0.7035846393767566 C 2.589811732789331 0.7027909646858223 2.574237916144573 0.6922127492263425 2.5670460611835857 0.6762281780570881 C 2.5183039570570704 0.5671214354516122 2.4237333856201757 0.4852117034729196 2.3087861953163618 0.45254340939569465 C 2.2056061124838555 0.4228938480774073 2.0948532767470884 0.43574510379545334 2.0012041477720013 0.4882338323178467 C 1.9073541802886882 0.540262870905462 1.8381956479023056 0.6276480229562542 1.8091202744062644 0.7309411006964222 C 1.8048786289510874 0.7462246350730689 1.8015270235477696 0.7617413267550913 1.7990823429594092 0.7774130055429676 C 1.7966171588735171 0.7926187666605669 1.7867772837549816 0.8056148281378773 1.7728102260861598 0.812112027828395 C 1.7588622976697108 0.8185313961059459 1.7426522534621585 0.8176977366895581 1.7294364482293798 0.8098813763957639 C 1.6766134561190194 0.7773222191921594 1.6135153512336595 0.765717207783918 1.552564378383414 0.7773510430031788 C 1.5096274316841338 0.7847817548014375 1.4690545242157762 0.8022550686928338 1.4341539648344066 0.8283462132547902 C 1.4136213853605366 0.8437456478601951 1.38449273265464 0.8395844117593545 1.3690932980492363 0.8190518322854823 C 1.3616982287615018 0.8091917399018353 1.3585229487072645 0.7967978113955266 1.3602659832541655 0.7845965695672238 C 1.3620090178010658 0.7723953277389181 1.3685275866348996 0.7613862347880473 1.378387679018548 0.7539911655003121 C 1.4250696852615223 0.7191262421295062 1.4793225962651297 0.6957733945051744 1.5367329494656898 0.6858323717253726 C 1.5984313652744906 0.6745522137339564 1.6620402408906256 0.6803699027114783 1.7206687488483317 0.7026552012798237 C 1.7569212134607637 0.57688218991875 1.8416054724034336 0.4706368729426498 1.9561264000708483 0.40724879280526394 C 2.0712696034474565 0.3426647946461963 2.2074763393200376 0.32686624140278003 2.334345742981964 0.363379314630118 C 2.449935163197709 0.3961676862432606 2.5496889352939114 0.4698077901557962 2.6150670295250182 0.5706130289758229 C 2.7057849771120965 0.46985683686226964 2.84603001771411 0.4296751474144241 2.976339617802093 0.46710460624761124 C 3.1058213237665324 0.5038554949844855 3.2034344708008438 0.6105955132429138 3.2284961734994697 0.7428379083371355 C 3.3196049242162124 0.7346171929943646 3.4112253019675287 0.7515033718431642 3.493417012394698 0.7916643896959105 C 3.672811795938465 0.8803842609449246 3.783103746435903 1.0664586691165339 3.7748198868755027 1.2664213696082545 C 3.7708078456819267 1.3522306462391631 3.7448667865899337 1.435579098436879 3.699473438484297 1.5085090125888794 C 3.872651527433381 1.6457675383307893 3.936711213769567 1.8795408640107363 3.8576947838518496 2.085906939672309 C 3.7821256671225085 2.279013300698234 3.5960354694881356 2.4061628485105047 3.3886693388705775 2.406377195494114 Z" fill="#ffffff" transform="matrix(1,0,0,1,0,0)" fill-rule="nonzero"></path></g><g clip-path="url(#SvgjsClipPath100007b9ad0e-68e1-4191-879e-0457528fd253)"><path d=" M 2.8367999781828566 1.9166872434910762 L 2.8352509146879714 1.9166872434910762 C 2.809653940258928 1.9158615511718167 2.7895496165790825 1.8944825219243993 2.7902970920664103 1.8688831440389293 C 2.7905759234954886 1.857853811955345 2.7936120879454633 1.612358229285977 2.5439340338399035 1.5623854409409845 C 2.5187781739296673 1.5573558859243288 2.5024561560712804 1.5328936603489731 2.507469079170311 1.5077344808414423 C 2.5098841033627863 1.4956472741485496 2.517002206248021 1.4850146513488753 2.5272572530247794 1.4781760167561007 C 2.537512299801537 1.4713373821633262 2.5500641112547684 1.4688530139282296 2.56215102053975 1.4712695261718503 C 2.7534343739753258 1.5070657179885272 2.8898688371659613 1.677243453316344 2.8832099204896107 1.8717334208695136 C 2.88239129044929 1.8967803950211433 2.861860318717604 1.9166672040883508 2.8367999781828566 1.9166872434910762 Z" fill="#ffffff" transform="matrix(1,0,0,1,0,0)" fill-rule="nonzero"></path></g><g clip-path="url(#SvgjsClipPath100007b9ad0e-68e1-4191-879e-0457528fd253)"><path d=" M 3.5497719423386154 1.5630670288787356 C 3.396641447831105 1.5600127321045603 3.2524696605450574 1.4902802941008007 3.15500860130213 1.3721294624992117 C 3.1330367982107754 1.346447644649898 3.1128713123487657 1.3192739278183898 3.09465708754141 1.290803629017752 C 3.071974977844861 1.2521608263231245 3.042747966477321 1.2177551407749656 3.008281307066624 1.1891231012134997 C 2.9411323868723565 1.1405860540810715 2.862419854073468 1.1105240199746567 2.7800113104603734 1.1019418077213754 C 2.700172577934002 1.0965820480290747 2.5499444002000575 1.1227612210926312 2.505703146786143 1.174128166583017 C 2.4976608040813537 1.183473537235609 2.4862343622085867 1.189239944425824 2.4739391448798993 1.190158018309532 C 2.461643927551212 1.191076092193243 2.4494878239906512 1.1870705745013626 2.44014677968261 1.1790232072268545 C 2.4207057054815952 1.1622780826214572 2.41851443974172 1.13294563300225 2.4352517390387742 1.1134978213932178 C 2.5129837452121015 1.023218400911324 2.7089092960451535 1.004164919924236 2.7861456019001185 1.0091838856476658 C 2.886335985803736 1.019003710677377 2.982094997358452 1.0553651847991161 3.06355189256412 1.1145202032998398 C 3.1068598441206623 1.149246769038837 3.143586414476702 1.191461338336651 3.1719863372060684 1.2391578520982929 C 3.1879009265191516 1.2641396376145184 3.20549765705687 1.2880090850380346 3.2246544960321577 1.3106006604823859 C 3.299474262835101 1.3949936396837206 3.426032750367204 1.4904779135084312 3.6033075767218405 1.4665913544173004 C 3.6287110531750657 1.4631391954529314 3.65211154399291 1.48091136916648 3.6556039603091572 1.5063093424261487 C 3.6590339109028704 1.531743889733166 3.6411964153734107 1.555143465905949 3.6157620472207155 1.558574744743567 C 3.593892192736473 1.5615622459669343 3.571844905062818 1.5630631176630265 3.5497719423386163 1.5630670288787356 Z" fill="#ffffff" transform="matrix(1,0,0,1,0,0)" fill-rule="nonzero"></path></g><g clip-path="url(#SvgjsClipPath100007b9ad0e-68e1-4191-879e-0457528fd253)"><path d=" M 2.1843034528674066 1.5110494767204963 C 2.1621214088853344 1.5110243387192104 2.1430495031308863 1.495325695207042 2.1387609861177888 1.473562140144279 C 2.1363756108309975 1.461466833331662 2.1388940542607697 1.4489193522612294 2.1457620240260833 1.4386813127295195 C 2.1526299937913977 1.4284432731978065 2.163284604070333 1.4213537655755633 2.1753808471368687 1.4189731425845316 C 2.2037405180899947 1.4140798147979423 2.229096029638881 1.3983756127260503 2.246111086313317 1.3751656269491863 C 2.2582075726730846 1.3540389793498915 2.2630909080562907 1.3295461702563949 2.2600216764973844 1.3053958071395688 C 2.258004276972239 1.2742265720427568 2.2464774682101956 1.2444255542677163 2.226995642786436 1.2200114273015066 C 2.206268188546361 1.1912848481139355 2.1909987895643557 1.1589922746134738 2.1819488763551806 1.1247440223660805 C 2.1621335431047917 1.0388289202915333 2.1814967005018584 0.9485507526852744 2.2348029228006574 0.8783190015997826 C 2.30974118529977 0.7818140702177734 2.4369964129772326 0.7424196537912647 2.5533523398888027 0.7797056195154053 C 2.600331242243452 0.7973638922666924 2.6389501543235854 0.8320457102172322 2.6615389343715687 0.8768628819145886 C 2.6941543387194016 0.9490292511331224 2.6876095255981505 1.0328612949165816 2.644189423228857 1.099091530890788 C 2.6374564855873963 1.1094166886787202 2.6268972788876916 1.1166439239360102 2.614835173714318 1.1191830086955346 C 2.6027730685409436 1.1217220934550558 2.5901963498924387 1.1193649927725056 2.5798723069212337 1.1126303458360796 C 2.5695420789135115 1.105902320716459 2.5623084777918934 1.095345364686395 2.55976350690497 1.083282899934675 C 2.5572185360180466 1.0712204351829548 2.5595707671403134 1.0586410347777362 2.5663025107060418 1.048313229528458 C 2.591657463852516 1.009624585425612 2.5961722171414547 0.960879177164577 2.578354224696247 0.9181918959581178 C 2.5663973355525163 0.8944249965012122 2.545920458247516 0.8760389510766241 2.521007894115605 0.8667010253881395 C 2.442886169019461 0.8433314711166096 2.3584359460578974 0.8704146329993289 2.308476382617386 0.934859819163082 C 2.2724865366835783 0.982738451329167 2.2592324845440865 1.0439606272664124 2.27219731556718 1.1024375080397362 C 2.2788726731087077 1.1264255290222682 2.2898992204800335 1.1489826945018948 2.3047276489597652 1.168985275779998 C 2.333374208667523 1.207028620879922 2.3501060845421518 1.252707073251575 2.3528105798409946 1.3002529163365437 C 2.3571621092487245 1.3440975333136889 2.3470544254778267 1.388162247277236 2.3240289801060308 1.4257270594222287 C 2.29328334808974 1.4699644358744874 2.2463220768000296 1.5002810650167042 2.1933499836775363 1.5100890573536658 C 2.190372298520354 1.510698877086185 2.187342803035495 1.511020501606836 2.1843034528674066 1.5110494767204963 Z" fill="#ffffff" transform="matrix(1,0,0,1,0,0)" fill-rule="nonzero"></path></g><g clip-path="url(#SvgjsClipPath100007b9ad0e-68e1-4191-879e-0457528fd253)"><path d=" M 3.2105580182287032 2.0218376735238692 C 3.188211676259367 2.021961703825001 3.1659150446808435 2.0197185401449986 3.144041231758343 2.0151457192259667 C 3.1189746957014832 2.009635682980729 3.103120617826665 1.9848489488054917 3.108629640265271 1.9597821899187762 C 3.114154012396631 1.9347282454902208 3.138936200325292 1.918890943523497 3.163993169572461 1.9244015796956007 C 3.228093450969754 1.9379762334964457 3.294896289061574 1.9218902740172816 3.345791261332161 1.8806250453301558 C 3.3910681632168655 1.8355387349843342 3.4140421978299464 1.7727090047684122 3.4085283328750036 1.7090507726366937 C 3.4049345055668705 1.5773184130316784 3.296159266956047 1.4969839801869405 3.2743794342179644 1.4822059144457393 C 3.2531396332513123 1.4678055571893083 3.2475918133121957 1.4389152848563587 3.2619869262588845 1.4176719292488331 C 3.2763872835153163 1.3964321282821848 3.305277555848265 1.3908843083430673 3.3265209114557934 1.405279421289756 C 3.3548687734121874 1.4245187898962224 3.4966080831941633 1.5294213697698333 3.5014101800283064 1.7064793272351857 C 3.5089122530697883 1.7975872586674553 3.4744670006288447 1.8871449150139112 3.407846744937254 1.9497442584719225 C 3.3533415963786433 1.9974805234375728 3.2829993517209637 2.0231850465717462 3.2105580182287032 2.0218376735238692 Z" fill="#ffffff" transform="matrix(1,0,0,1,0,0)" fill-rule="nonzero"></path></g><g clip-path="url(#SvgjsClipPath100007b9ad0e-68e1-4191-879e-0457528fd253)"><path d=" M 3.109837909791282 0.9831286376636955 C 3.0858697955600576 0.9831054294536131 3.0658508689113435 0.9648576142778403 3.063613855103914 0.9409941106028289 C 3.051933916352482 0.8166662745033554 3.1320824615778307 0.7617674642446343 3.1761378273723593 0.7500875254931995 C 3.188056328047792 0.7469334765299622 3.2007396903495606 0.7486446919505643 3.2113961839459275 0.7548445167419084 C 3.2220526775422944 0.7610443415332526 3.2298088440236103 0.771224607689288 3.2329574763647404 0.7831445404740457 C 3.239440006741576 0.8076691319904905 3.2250583458428657 0.832861168866755 3.20064401186144 0.8397473205771427 C 3.191690424861005 0.8425975974077302 3.1493390289108496 0.8598541647407504 3.1561549082883427 0.9322883737615679 C 3.157310153393629 0.9445602440935303 3.1535426955340595 0.9567883623993978 3.1456814584302486 0.9662822732845625 C 3.1378202213264377 0.9757761841697271 3.12650926539943 0.9817580644797264 3.1142372501167555 0.982911768774411 C 3.112775574684559 0.9830605426606747 3.1113071307780005 0.9831329307405763 3.109837909791282 0.9831286376636955 Z" fill="#ffffff" transform="matrix(1,0,0,1,0,0)" fill-rule="nonzero"></path></g><g clip-path="url(#SvgjsClipPath100007b9ad0e-68e1-4191-879e-0457528fd253)"><path d=" M 1.4258819657717237 1.474243728082027 C 1.3743551550184014 1.4741414851814432 1.3229542098563072 1.469151807154608 1.2723697734286215 1.4593417372612365 C 1.2471811621021325 1.4544980420112947 1.2306800589893376 1.4301623815382227 1.235502062250359 1.4049696085907704 C 1.2403457575002979 1.379780997264283 1.264681417973367 1.3632798941514868 1.289874190920822 1.3681018974125094 C 1.5095004132256138 1.4101744619335814 1.7097323605744454 1.3508453300794894 1.7999807997864448 1.216882319041837 C 1.8491347980886939 1.151440385713116 1.8687421616552475 1.0684516017744932 1.8540740970278293 0.9879307344978377 C 1.8366049332382688 0.9140847853042641 1.7913142836927862 0.8498277745548548 1.727639534575317 0.8085491817901593 C 1.7062267679812362 0.7944265593985627 1.7003057207252108 0.7656255871485251 1.714410532328999 0.7442010842126374 C 1.7211930773613164 0.7339091567486028 1.7317864887241894 0.7267333280698102 1.7438600778724822 0.7242523739955473 C 1.7559336670207744 0.7217714199212814 1.7684983062426398 0.7241885923923377 1.7787896111764183 0.7309720819663195 C 1.8628492048961933 0.7858002846521993 1.9224258538525079 0.8710350841374119 1.9450351054474762 0.9688152909709637 C 1.9653048554576078 1.0739177032265819 1.940655229300931 1.1827063678004648 1.8770621992919239 1.2688069273903844 C 1.7886106737339889 1.4000745679469362 1.6201345280303 1.474243728082027 1.4258819657717237 1.474243728082027 Z" fill="#ffffff" transform="matrix(1,0,0,1,0,0)" fill-rule="nonzero"></path></g><g clip-path="url(#SvgjsClipPath100007b9ad0e-68e1-4191-879e-0457528fd253)"><path d=" M 1.9973934515745866 2.289949583218561 C 1.989555190290469 2.289949583218561 1.9815310413869642 2.289949583218561 1.9733210048640744 2.289701733059379 C 1.8482665891732497 2.2912098464491657 1.7246641689289672 2.262794886484104 1.6128229483344427 2.2068268360830334 C 1.4898693817561424 2.139348064186136 1.3901733851667324 2.0362935911084983 1.3268038646388807 1.9111725774492856 C 1.3241084941577816 1.9111725774492856 1.321413123676681 1.9111725774492856 1.3187487344654794 1.9111725774492856 C 1.1189618158610193 1.9137808242199859 0.9370321875556977 1.7965096228792843 0.8569109441004737 1.6134735550022912 C 0.7911686893775541 1.4523709515342518 0.8108727770324915 1.219794558412222 0.9758170579678428 1.0874115921393532 C 1.0785998881524657 1.0100606766302684 1.2091373739585496 0.9794187076035404 1.335602545289827 1.0029566503982268 C 1.360848160347899 1.0075693230938307 1.3775756055853055 1.031772798997047 1.3729659567864518 1.0570189663697072 C 1.3707580371385149 1.0691481143021957 1.3638210100308432 1.0799028755089488 1.3536817117866642 1.0869161322314267 C 1.3435424135424858 1.0939293889539043 1.331031868219823 1.0966263297089895 1.3189036408149668 1.0944133591362353 C 1.2189150746193578 1.075376656975092 1.115525421233861 1.0991338012421492 1.033875957756131 1.1599077636999715 C 0.9044362121235431 1.2637879616669545 0.890091884160908 1.4490869369250954 0.9428529867966902 1.578402757478098 C 1.0136636654217845 1.7372524477516984 1.1779078818331996 1.8332360897043336 1.3510621989687792 1.816958535690385 C 1.3701485251086405 1.8154979759797085 1.3881778135050213 1.8258900282954948 1.3964807406388067 1.8431377087539416 C 1.4510837316867342 1.9621107063652605 1.5420592081948827 2.06066928066487 1.656289670000914 2.124602545774544 C 1.7554558762293289 2.1735413619554764 1.8648234002112698 2.198239309604215 1.9753967499472203 2.1966649795565933 C 2.0435434400274994 2.1975997235924285 2.1116223832485685 2.191986997551191 2.178695843015924 2.179904112541931 C 2.264157764281145 2.1604551168124275 2.3530897317538604 2.1623063146040558 2.4376682780907957 2.185294853504135 C 2.4494970061948744 2.188796116026037 2.4594482801696054 2.1968567962169616 2.4653293391279885 2.2077007250868634 C 2.471210398086371 2.218544653956765 2.472538617030427 2.231281932052855 2.4690213232272673 2.2431059031332414 C 2.46171559458006 2.26769564960035 2.4358674679408168 2.281715207557578 2.4112722361379544 2.274427966999814 C 2.3298534588468005 2.2503245390194047 2.2724761469962615 2.2592471447499416 2.193071152248457 2.2717325965187136 C 2.1284640169055047 2.283226164342775 2.0630119481682887 2.28931954882939 1.9973934515745895 2.289949583218561 Z" fill="#ffffff" transform="matrix(1,0,0,1,0,0)" fill-rule="nonzero"></path></g><g clip-path="url(#SvgjsClipPath100007b9ad0e-68e1-4191-879e-0457528fd253)"><path d=" M 2.1877423738260524 2.888848511610991 C 2.1672822836943895 2.888845284761018 2.1492313175406266 2.875461153759205 2.143284251522853 2.855884440439843 C 2.1119495605140974 2.752973426692243 2.0583790933145774 2.6582071115673265 1.9863641194910053 2.57829226215645 C 1.946564268862851 2.534335740760284 1.9015457921602317 2.4954036539053748 1.8523081646436608 2.462360350199261 C 1.8310111588687445 2.448052299925688 1.8253389897245973 2.4191921923731896 1.8396368252555007 2.3978883275421468 C 1.8465083206007937 2.3876521431883275 1.8571656940035743 2.380565938728397 1.8692631800606538 2.378189439306042 C 1.8813606661177336 2.3758129398836845 1.8939067074776632 2.3783409327019522 1.9041398291825107 2.385216988153984 C 1.959642780557253 2.422479937567678 2.01039311624249 2.4663740880916647 2.05526646374349 2.5159269658523833 C 2.136479797633389 2.605996857226209 2.1968945869449117 2.7128227276825045 2.232231477399149 2.828837791819151 C 2.2358107874807205 2.8406329299881663 2.2345574362509977 2.8533668843643185 2.2287471942284363 2.8642378471885337 C 2.222936952205873 2.8751088100127458 2.2130458554036347 2.8832261179043916 2.2012502075014493 2.886803747797744 C 2.1968729162472864 2.8881470623698626 2.192321131143038 2.8888360940599553 2.1877423738260515 2.888848511610991 Z" fill="#ffffff" transform="matrix(1,0,0,1,0,0)" fill-rule="nonzero"></path></g><g clip-path="url(#SvgjsClipPath100007b9ad0e-68e1-4191-879e-0457528fd253)"><path d=" M 2.3276537886840627 2.8588896236199113 C 2.306422175743528 2.8588662573918024 2.28790610629845 2.8444563686363344 2.2826689847926036 2.823880788635507 L 2.2376841809011436 2.6472875502186244 C 2.233103421662295 2.629319700771972 2.2396423308325817 2.6103483404604164 2.2543211228362083 2.599018731718008 C 2.269010024533929 2.5876863159161156 2.2890317728396603 2.5861761597178754 2.3052543305480278 2.595177054250693 C 2.3398600689862867 2.614411219648868 2.376763500251872 2.629183002149815 2.415082932335372 2.639139476235528 C 2.497492177387285 2.65968796093163 2.583817020697079 2.658556601709223 2.665659443267965 2.6358554616263716 C 2.6831705626791913 2.6315905509485176 2.699518223213985 2.623496078256532 2.71352550525991 2.612154790154631 C 2.723807234272877 2.603388366769732 2.732116794053726 2.5925447608041265 2.7379077646693997 2.580337025969694 C 2.7435904484777405 2.568105524316403 2.7464594066601697 2.5547558701907875 2.7463036888116763 2.5412696446286933 C 2.7460974933712485 2.515615584871271 2.766718905087088 2.4946474782711716 2.792372837149554 2.4944259645433737 C 2.8047454135054664 2.494175546018653 2.8166958705195846 2.498926766484125 2.825518985525058 2.507604093072457 C 2.8343421005305323 2.516281419660789 2.839291755687242 2.52815106298262 2.8392474985047738 2.540526094151154 C 2.8395527586776965 2.5678668930104287 2.8336859089904887 2.5949242954487213 2.8220838749814496 2.619683238739777 C 2.8107516967606214 2.6438363643241636 2.794389823442769 2.6652895371508665 2.774093887909911 2.682606197901999 C 2.7496138314385883 2.7030384215616006 2.7208580690495143 2.7177127539147885 2.6899487588677604 2.725546237980212 C 2.5925454195411715 2.7525274678886227 2.489805266288661 2.753755140127198 2.391785017372299 2.729109084018448 C 2.3781532586173117 2.7255772192501064 2.364676406211813 2.7215393270734416 2.351354460155802 2.716995407488447 L 2.372731536385214 2.8009546489112127 C 2.3790508674055895 2.82581451249612 2.3640333648444174 2.851093281811925 2.3391788210860054 2.85743350393472 C 2.335413910567494 2.8584028990398873 2.3315414964497125 2.8588921556622977 2.3276537886840627 2.8588896236199113 Z" fill="#ffffff" transform="matrix(1,0,0,1,0,0)" fill-rule="nonzero"></path></g><g clip-path="url(#SvgjsClipPath100007b9ad0e-68e1-4191-879e-0457528fd253)"><path d=" M 2.5634832151453515 2.0917004371431815 C 2.545449858023213 2.0917121610266984 2.5290378328196637 2.081290102343351 2.5213796693543777 2.0649636012214665 L 2.5213796693543777 2.0649636012214665 C 2.52054317506714 2.0631666875673984 2.435220757768875 1.8855510672438844 2.285271411464009 1.8500155506712253 C 2.2013431513111414 1.8300636128571075 2.109762517493542 1.8585353998930931 2.0129770303331287 1.9344704924123546 C 2.0032772987529683 1.9420754375676503 1.9909537074047288 1.9455155311048045 1.9787174960998863 1.9440339385678935 C 1.9664812847950441 1.9425523460309826 1.9553348584866446 1.9362704412391047 1.9477304759285736 1.9265702685884432 C 1.9318869059649684 1.9063796926311805 1.9354100157127367 1.8771683968485056 1.9555997184825893 1.8613237141838856 C 2.075992933305049 1.7668928035356974 2.1943104030443643 1.7326894815686367 2.307268113091376 1.7597051489194342 C 2.5010559563014865 1.8059911661465984 2.6013733082302375 2.016632820181055 2.6055557796664264 2.0255554259115947 C 2.6107737125995887 2.0367219382660666 2.611341903513727 2.0495039495754352 2.6071353497635337 2.0610894028598095 C 2.60292879601334 2.0726748561441806 2.5942920984251945 2.082114671227038 2.5831253402604926 2.0873320780876083 C 2.576975565886029 2.0902052185600106 2.5702710457123787 2.0916962869267035 2.5634832151453515 2.0917004371431815 Z" fill="#ffffff" transform="matrix(1,0,0,1,0,0)" fill-rule="nonzero"></path></g><g clip-path="url(#SvgjsClipPath100007b9ad0e-68e1-4191-879e-0457528fd253)"><path d=" M 2.0214039357453037 2.0917004371431815 C 1.9960139312507195 2.0917034220520545 1.9753213441282396 2.071328121265453 1.9749320308987546 2.0459411015042845 C 1.9689521486314108 1.961141544700009 1.9060106612369632 1.8913016600672796 1.822287314112789 1.8765664989735562 C 1.7973238981072142 1.870610976057386 1.781913985760548 1.8455473292433227 1.7878671232564454 1.8205833442684154 C 1.7938226461726157 1.7956199282628436 1.8188862929866805 1.7802100159161771 1.8438502779615868 1.7861631534120732 C 1.9690685469694036 1.8106584312338274 2.0614802476736727 1.9173325379657469 2.067875840591853 2.0447638132481667 C 2.0679996842757293 2.0570944280761707 2.063217713638939 2.068968717204821 2.0545828761111498 2.0777720677126275 C 2.0459480385833597 2.086575418220434 2.034168378937432 2.0915859675024966 2.0218376735238714 2.0917004371431815 Z" fill="#ffffff" transform="matrix(1,0,0,1,0,0)" fill-rule="nonzero"></path></g><g clip-path="url(#SvgjsClipPath100007b9ad0e-68e1-4191-879e-0457528fd253)"><path d=" M 2.1586819426620094 1.6214977039057952 C 2.1508254501473996 1.6214962373958048 2.143097571750235 1.6195029777264667 2.1362205219861767 1.6157042064349252 C 2.11388241992011 1.6033590840699667 2.105680447570679 1.5753091685140712 2.1178486289368426 1.552874191082389 C 2.1414363541532873 1.50370514391231 2.128004562058025 1.4447644883508872 2.085442220623849 1.4106701622519482 C 2.0764063494828418 1.4022759296057539 2.0710778660216738 1.390634118925823 2.0706304174831938 1.3783089455477033 C 2.0701829689447138 1.365983772169578 2.0746532580951023 1.3539862304707522 2.083056662841726 1.3449588887989274 C 2.091449830584403 1.3359323879183769 2.103085136025534 1.3306099566512466 2.115402718197636 1.3301625727704678 C 2.1277203003697385 1.3297151888896863 2.139711067802243 1.3341795033590482 2.1487369550248494 1.3425733310168064 C 2.2222429761212052 1.4058143127423464 2.2431784870163987 1.511015894047804 2.19948427511728 1.59758016354477 C 2.1912608395183764 1.612394971642839 2.175625955505725 1.6215598391126678 2.1586819426620094 1.6214977039057952 Z" fill="#ffffff" transform="matrix(1,0,0,1,0,0)" fill-rule="nonzero"></path></g><g clip-path="url(#SvgjsClipPath100007b9ad0e-68e1-4191-879e-0457528fd253)"><path d=" M 1.3523634123044825 1.9138369666604889 C 1.3485188819505356 1.913832824124177 1.3446895617956625 1.9133541591048209 1.3409623049821293 1.9124118282451923 C 1.316090761188393 1.9061398457981582 1.3010040153385531 1.8809028260861103 1.3072546833334324 1.8560259170313766 C 1.347854450359404 1.6898831630037967 1.484206292147909 1.5643402946999585 1.653129580471349 1.5375694437529268 C 1.743394434646885 1.5258159007569583 1.834979651657645 1.544969408642598 1.912969491103356 1.5919105911534954 C 1.9351429135698042 1.6048303478682597 1.9426465767755852 1.6332776921105099 1.9297303581180107 1.655453175713674 C 1.9168106014032427 1.6776265981801244 1.8883632571609934 1.6851302613859025 1.8661877735578294 1.6722140427283303 C 1.8062614685375127 1.635521339468365 1.7355657570582161 1.6204855152945 1.6658938636692007 1.6296147966189942 C 1.5343876739800304 1.6509683507411979 1.4285455182621065 1.7491648580077686 1.397410178735738 1.8787042065964983 C 1.3922152627568134 1.8993513500016501 1.3736540580038266 1.9138275578351354 1.3523634123044825 1.9138369666604889 Z" fill="#ffffff" transform="matrix(1,0,0,1,0,0)" fill-rule="nonzero"></path></g></g></g><defs><clipPath id="SvgjsClipPath1002"><path d=" M 0 0 h 4.1802098034869015 v 4.303670164029235 h -4.1802098034869015 Z"></path></clipPath><clipPath id="SvgjsClipPath100007b9ad0e-68e1-4191-879e-0457528fd253"><path d=" M 0 0 L 4.1802098034869015 0 L 4.1802098034869015 4.303670164029235 L 0 4.303670164029235 Z"></path></clipPath></defs></svg>