<svg xmlns="http://www.w3.org/2000/svg" version="1.1" xmlns:xlink="http://www.w3.org/1999/xlink" xmlns:svgjs="http://svgjs.dev/svgjs" viewBox="0 0 14.407590307579012 2.977222563326982"><g transform="matrix(1,0,0,1,0.5114491879339633,0.5569237816634913)"><rect width="14.407590307579012" height="14.407590307579012" x="-0.5114491879339633" y="-6.272107653789506" fill="#ffffff"></rect><g><path d=" M 0.09 1.005 L 0.09 0.9809999999999999 L 0.2115 0.9209999999999999 L 0.2115 0.09899999999999987 L 0.09 0.038999999999999924 L 0.09 0.014999999999999902 L 0.51 0.014999999999999902 Q 0.687 0.014999999999999902 0.79425 0.0794999999999999 Q 0.9015 0.1439999999999999 0.9015 0.28349999999999986 Q 0.9015 0.3659999999999999 0.8452500000000001 0.42974999999999985 Q 0.789 0.4934999999999998 0.6930000000000001 0.5302499999999999 Q 0.597 0.567 0.47400000000000003 0.567 L 0.369 0.567 L 0.369 0.9209999999999999 L 0.507 0.9809999999999999 L 0.507 1.005 L 0.09 1.005 M 0.369 0.09749999999999992 L 0.369 0.48749999999999993 L 0.483 0.48749999999999993 Q 0.6015 0.48749999999999993 0.669 0.4334999999999999 Q 0.7365 0.37949999999999984 0.7365 0.2954999999999999 Q 0.7365 0.1904999999999999 0.66825 0.1439999999999999 Q 0.6 0.09749999999999992 0.47250000000000003 0.09749999999999992 L 0.369 0.09749999999999992 M 1.078480224609375 1.005 L 1.078480224609375 0.9809999999999999 L 1.199980224609375 0.9209999999999999 L 1.199980224609375 0.09899999999999987 L 1.078480224609375 0.038999999999999924 L 1.078480224609375 0.014999999999999902 L 1.831480224609375 0.014999999999999902 L 1.831480224609375 0.2729999999999999 L 1.807480224609375 0.2729999999999999 L 1.709980224609375 0.09749999999999992 L 1.357480224609375 0.09749999999999992 L 1.357480224609375 0.45299999999999985 L 1.606480224609375 0.45299999999999985 L 1.682980224609375 0.32699999999999985 L 1.706980224609375 0.32699999999999985 L 1.706980224609375 0.6584999999999999 L 1.682980224609375 0.6584999999999999 L 1.606480224609375 0.5354999999999999 L 1.357480224609375 0.5354999999999999 L 1.357480224609375 0.9224999999999999 L 1.7504802246093751 0.9224999999999999 L 1.849480224609375 0.7244999999999999 L 1.873480224609375 0.7244999999999999 L 1.873480224609375 1.005 L 1.078480224609375 1.005 M 2.08197509765625 1.005 L 2.08197509765625 0.9809999999999999 L 2.2034750976562503 0.9209999999999999 L 2.2034750976562503 0.09899999999999987 L 2.08197509765625 0.038999999999999924 L 2.08197509765625 0.014999999999999902 L 2.4989750976562504 0.014999999999999902 Q 2.65647509765625 0.014999999999999902 2.7472250976562504 0.08024999999999982 Q 2.8379750976562503 0.14549999999999985 2.8379750976562503 0.25949999999999984 Q 2.8379750976562503 0.3434999999999999 2.7809750976562504 0.4079999999999999 Q 2.7239750976562505 0.4724999999999999 2.6309750976562505 0.5069999999999999 L 2.91447509765625 0.9254999999999999 L 3.0149750976562504 0.9809999999999999 L 3.0149750976562504 1.005 L 2.77347509765625 1.005 L 2.4854750976562503 0.5489999999999999 L 2.36097509765625 0.5489999999999999 L 2.36097509765625 0.9194999999999999 L 2.4734750976562503 0.9809999999999999 L 2.4734750976562503 1.005 L 2.08197509765625 1.005 M 2.4494750976562503 0.09749999999999992 L 2.36097509765625 0.09749999999999992 L 2.36097509765625 0.4694999999999999 L 2.45847509765625 0.4694999999999999 Q 2.55147509765625 0.4694999999999999 2.61222509765625 0.4162499999999999 Q 2.6729750976562503 0.3629999999999999 2.6729750976562503 0.28049999999999986 Q 2.6729750976562503 0.19499999999999984 2.6137250976562503 0.14624999999999988 Q 2.5544750976562502 0.09749999999999992 2.4494750976562503 0.09749999999999992 M 3.4214780273437504 1.0199999999999998 Q 3.3269780273437504 1.0199999999999998 3.2602280273437505 1.002 Q 3.19347802734375 0.9839999999999999 3.12297802734375 0.9494999999999999 L 3.1079780273437505 0.702 L 3.1319780273437505 0.702 L 3.2114780273437504 0.8654999999999999 Q 3.26397802734375 0.9089999999999999 3.3149780273437504 0.9284999999999999 Q 3.3659780273437505 0.9479999999999998 3.4169780273437502 0.9479999999999998 Q 3.5039780273437504 0.9479999999999998 3.5542280273437505 0.9029999999999999 Q 3.6044780273437502 0.8579999999999999 3.6044780273437502 0.7799999999999999 Q 3.6044780273437502 0.7184999999999999 3.5767280273437505 0.6817499999999999 Q 3.5489780273437503 0.6449999999999999 3.4942280273437505 0.6157499999999999 Q 3.43947802734375 0.5864999999999999 3.3599780273437503 0.5474999999999999 Q 3.2534780273437502 0.49649999999999983 3.1964780273437503 0.4402499999999999 Q 3.1394780273437504 0.3839999999999999 3.1394780273437504 0.2819999999999999 Q 3.1394780273437504 0.22799999999999987 3.1657280273437505 0.17774999999999985 Q 3.1919780273437506 0.12749999999999984 3.2369780273437505 0.08774999999999988 Q 3.2819780273437504 0.04799999999999982 3.3374780273437503 0.02399999999999991 Q 3.39297802734375 -2.220446049250313e-16 3.4529780273437503 -2.220446049250313e-16 Q 3.5234780273437503 -2.220446049250313e-16 3.5849780273437504 0.016499999999999848 Q 3.6464780273437505 0.03299999999999992 3.7064780273437505 0.06449999999999989 L 3.7214780273437507 0.3044999999999999 L 3.6974780273437506 0.3044999999999999 L 3.6194780273437503 0.1439999999999999 Q 3.5714780273437503 0.10649999999999993 3.5324780273437506 0.08999999999999986 Q 3.4934780273437505 0.0734999999999999 3.4439780273437504 0.0734999999999999 Q 3.37947802734375 0.0734999999999999 3.3367280273437503 0.11699999999999988 Q 3.2939780273437504 0.16049999999999986 3.2939780273437504 0.22649999999999992 Q 3.2939780273437504 0.29999999999999993 3.3397280273437504 0.34199999999999986 Q 3.3854780273437504 0.3839999999999999 3.4874780273437502 0.43199999999999983 Q 3.5774780273437505 0.4754999999999999 3.63672802734375 0.5152499999999999 Q 3.6959780273437506 0.5549999999999999 3.7244780273437503 0.6044999999999998 Q 3.7529780273437505 0.6539999999999999 3.7529780273437505 0.7304999999999999 Q 3.7529780273437505 0.8009999999999999 3.7229780273437503 0.8549999999999999 Q 3.6929780273437505 0.9089999999999999 3.6434780273437504 0.9457499999999999 Q 3.5939780273437503 0.9824999999999999 3.5362280273437503 1.00125 Q 3.4784780273437503 1.0199999999999998 3.4214780273437504 1.0199999999999998 M 4.454987548828125 1.0199999999999998 Q 4.3469875488281255 1.0199999999999998 4.254737548828126 0.9817499999999999 Q 4.162487548828126 0.9434999999999999 4.094237548828126 0.8752499999999999 Q 4.025987548828126 0.8069999999999999 3.9884875488281253 0.714 Q 3.9509875488281256 0.6209999999999999 3.9509875488281256 0.5099999999999999 Q 3.9509875488281256 0.3989999999999999 3.9884875488281253 0.3059999999999998 Q 4.025987548828126 0.21299999999999986 4.094237548828126 0.14474999999999982 Q 4.162487548828126 0.0764999999999999 4.254737548828126 0.038249999999999895 Q 4.3469875488281255 -2.220446049250313e-16 4.454987548828125 -2.220446049250313e-16 Q 4.562987548828126 -2.220446049250313e-16 4.655237548828126 0.038249999999999895 Q 4.747487548828126 0.0764999999999999 4.8157375488281255 0.14474999999999982 Q 4.8839875488281255 0.21299999999999986 4.922237548828125 0.3059999999999998 Q 4.960487548828126 0.3989999999999999 4.960487548828126 0.5099999999999999 Q 4.960487548828126 0.6209999999999999 4.922237548828125 0.714 Q 4.8839875488281255 0.8069999999999999 4.8157375488281255 0.8752499999999999 Q 4.747487548828126 0.9434999999999999 4.655237548828126 0.9817499999999999 Q 4.562987548828126 1.0199999999999998 4.454987548828125 1.0199999999999998 M 4.4849875488281254 0.9449999999999998 Q 4.576487548828125 0.9449999999999998 4.645487548828125 0.8969999999999999 Q 4.714487548828125 0.8489999999999999 4.753487548828126 0.7619999999999999 Q 4.7924875488281256 0.6749999999999998 4.7924875488281256 0.5564999999999999 Q 4.7924875488281256 0.4109999999999999 4.7444875488281255 0.3022499999999999 Q 4.6964875488281255 0.1934999999999999 4.613987548828126 0.13349999999999984 Q 4.531487548828125 0.0734999999999999 4.430987548828125 0.0734999999999999 Q 4.339487548828125 0.0734999999999999 4.268987548828125 0.12074999999999991 Q 4.198487548828125 0.16799999999999993 4.1587375488281255 0.2549999999999999 Q 4.118987548828126 0.34199999999999986 4.118987548828126 0.4604999999999999 Q 4.118987548828126 0.6059999999999999 4.167737548828126 0.7154999999999999 Q 4.216487548828125 0.825 4.2997375488281255 0.8849999999999999 Q 4.382987548828125 0.9449999999999998 4.4849875488281254 0.9449999999999998 M 5.156955322265626 1.005 L 5.156955322265626 0.9809999999999999 L 5.278455322265626 0.9209999999999999 L 5.278455322265626 0.10199999999999987 L 5.158455322265626 0.038999999999999924 L 5.158455322265626 0.014999999999999902 L 5.393955322265626 0.014999999999999902 L 5.968455322265626 0.7214999999999998 L 5.968455322265626 0.09749999999999992 L 5.813955322265626 0.038999999999999924 L 5.813955322265626 0.014999999999999902 L 6.193455322265626 0.014999999999999902 L 6.193455322265626 0.038999999999999924 L 6.073455322265626 0.09749999999999992 L 6.073455322265626 1.0125 L 6.008955322265626 1.0125 L 5.383455322265626 0.24449999999999983 L 5.383455322265626 0.9224999999999999 L 5.537955322265626 0.9809999999999999 L 5.537955322265626 1.005 L 5.156955322265626 1.005 M 6.293935546875002 1.005 L 6.293935546875002 0.9809999999999999 L 6.388435546875002 0.9314999999999999 L 6.773935546875002 0.00749999999999984 L 6.856435546875002 0.00749999999999984 L 7.237435546875002 0.9269999999999999 L 7.337935546875002 0.9809999999999999 L 7.337935546875002 1.005 L 6.941935546875001 1.005 L 6.941935546875001 0.9809999999999999 L 7.073935546875002 0.9284999999999999 L 6.962935546875002 0.6584999999999999 L 6.601435546875002 0.6584999999999999 L 6.491935546875002 0.9299999999999999 L 6.617935546875001 0.9809999999999999 L 6.617935546875001 1.005 L 6.293935546875002 1.005 M 6.635935546875002 0.5759999999999998 L 6.929935546875002 0.5759999999999998 L 6.782935546875001 0.2144999999999999 L 6.635935546875002 0.5759999999999998 M 7.487907714843752 1.005 L 7.487907714843752 0.9809999999999999 L 7.609407714843752 0.9209999999999999 L 7.609407714843752 0.09899999999999987 L 7.487907714843752 0.038999999999999924 L 7.487907714843752 0.014999999999999902 L 7.903407714843752 0.014999999999999902 L 7.903407714843752 0.038999999999999924 L 7.766907714843752 0.09899999999999987 L 7.766907714843752 0.9224999999999999 L 8.122407714843753 0.9224999999999999 L 8.228907714843752 0.6644999999999999 L 8.252907714843753 0.6644999999999999 L 8.252907714843753 1.005 L 7.487907714843752 1.005 M 8.449428955078128 1.005 L 8.449428955078128 0.9809999999999999 L 8.572428955078127 0.9209999999999999 L 8.572428955078127 0.09899999999999987 L 8.449428955078128 0.038999999999999924 L 8.449428955078128 0.014999999999999902 L 8.849928955078127 0.014999999999999902 L 8.849928955078127 0.038999999999999924 L 8.728428955078128 0.09899999999999987 L 8.728428955078128 0.9209999999999999 L 8.849928955078127 0.9809999999999999 L 8.849928955078127 1.005 L 8.449428955078128 1.005 M 9.241458251953128 1.005 L 9.241458251953128 0.9809999999999999 L 9.392958251953129 0.9209999999999999 L 9.392958251953129 0.09749999999999992 L 9.155958251953129 0.09749999999999992 L 9.049458251953128 0.32399999999999984 L 9.025458251953129 0.32399999999999984 L 9.025458251953129 0.014999999999999902 L 9.916458251953129 0.014999999999999902 L 9.916458251953129 0.32399999999999984 L 9.892458251953128 0.32399999999999984 L 9.787458251953128 0.09749999999999992 L 9.548958251953128 0.09749999999999992 L 9.548958251953128 0.9209999999999999 L 9.701958251953128 0.9809999999999999 L 9.701958251953128 1.005 L 9.241458251953128 1.005 M 10.333447265625004 1.005 L 10.333447265625004 0.9809999999999999 L 10.468447265625004 0.9209999999999999 L 10.468447265625004 0.5429999999999999 L 10.136947265625004 0.09149999999999991 L 10.042447265625004 0.038999999999999924 L 10.042447265625004 0.014999999999999902 L 10.429447265625004 0.014999999999999902 L 10.429447265625004 0.038999999999999924 L 10.319947265625004 0.09299999999999986 L 10.319947265625004 0.09899999999999987 L 10.585447265625003 0.4604999999999999 L 10.825447265625003 0.10049999999999992 L 10.825447265625003 0.09449999999999992 L 10.714447265625004 0.038999999999999924 L 10.714447265625004 0.014999999999999902 L 11.038447265625004 0.014999999999999902 L 11.038447265625004 0.038999999999999924 L 10.940947265625004 0.08849999999999991 L 10.624447265625005 0.5414999999999999 L 10.624447265625005 0.9209999999999999 L 10.759447265625004 0.9809999999999999 L 10.759447265625004 1.005 L 10.333447265625004 1.005" fill="#173054" fill-rule="nonzero"></path></g><g><path d=" M 4.778900756835936 1.8633749999999996 L 4.778900756835936 1.8513749999999995 L 4.838900756835936 1.8213749999999995 L 4.838900756835936 1.4103749999999995 L 4.778900756835936 1.3803749999999995 L 4.778900756835936 1.3683749999999995 L 4.9724007568359365 1.3683749999999995 Q 5.051150756835936 1.3683749999999995 5.096525756835936 1.4009999999999996 Q 5.141900756835936 1.4336249999999995 5.141900756835936 1.4906249999999996 Q 5.141900756835936 1.5326249999999995 5.1134007568359365 1.5659999999999996 Q 5.084900756835936 1.5993749999999995 5.037650756835936 1.6166249999999995 L 5.180150756835936 1.8243749999999996 L 5.2296507568359365 1.8513749999999995 L 5.2296507568359365 1.8633749999999996 L 5.121650756835936 1.8633749999999996 L 4.976150756835937 1.6361249999999996 L 4.906400756835936 1.6361249999999996 L 4.906400756835936 1.8206249999999995 L 4.962650756835936 1.8513749999999995 L 4.962650756835936 1.8633749999999996 L 4.778900756835936 1.8633749999999996 M 4.955150756835936 1.4096249999999997 L 4.906400756835936 1.4096249999999997 L 4.906400756835936 1.5948749999999996 L 4.959650756835936 1.5948749999999996 Q 5.006900756835936 1.5948749999999996 5.038025756835936 1.5682499999999995 Q 5.069150756835937 1.5416249999999996 5.069150756835937 1.5003749999999996 Q 5.069150756835937 1.4583749999999995 5.038400756835936 1.4339999999999995 Q 5.007650756835936 1.4096249999999997 4.955150756835936 1.4096249999999997 M 5.282158813476562 1.8633749999999996 L 5.282158813476562 1.8513749999999995 L 5.342158813476561 1.8213749999999995 L 5.342158813476561 1.4103749999999995 L 5.282158813476562 1.3803749999999995 L 5.282158813476562 1.3683749999999995 L 5.648908813476561 1.3683749999999995 L 5.648908813476561 1.4973749999999995 L 5.636908813476562 1.4973749999999995 L 5.590408813476562 1.4096249999999997 L 5.409658813476561 1.4096249999999997 L 5.409658813476561 1.5873749999999995 L 5.5371588134765615 1.5873749999999995 L 5.574658813476561 1.5251249999999996 L 5.586658813476562 1.5251249999999996 L 5.586658813476562 1.6893749999999996 L 5.574658813476561 1.6893749999999996 L 5.5371588134765615 1.6286249999999995 L 5.409658813476561 1.6286249999999995 L 5.409658813476561 1.8221249999999996 L 5.611408813476562 1.8221249999999996 L 5.657908813476562 1.7268749999999995 L 5.669908813476561 1.7268749999999995 L 5.669908813476561 1.8633749999999996 L 5.282158813476562 1.8633749999999996 M 5.927891967773437 1.8708749999999996 Q 5.881391967773437 1.8708749999999996 5.849141967773437 1.8622499999999995 Q 5.8168919677734365 1.8536249999999996 5.782391967773437 1.8363749999999996 L 5.774891967773437 1.7133749999999996 L 5.786891967773437 1.7133749999999996 L 5.823641967773437 1.7928749999999996 Q 5.850641967773437 1.8153749999999995 5.876141967773437 1.8254999999999995 Q 5.901641967773437 1.8356249999999996 5.927891967773437 1.8356249999999996 Q 5.972141967773437 1.8356249999999996 5.997266967773437 1.8123749999999996 Q 6.022391967773437 1.7891249999999996 6.022391967773437 1.7493749999999995 Q 6.022391967773437 1.7163749999999995 6.007766967773437 1.6976249999999995 Q 5.993141967773437 1.6788749999999997 5.965766967773437 1.6642499999999996 Q 5.938391967773437 1.6496249999999995 5.900891967773437 1.6308749999999996 Q 5.865641967773437 1.6128749999999996 5.8408919677734366 1.5956249999999996 Q 5.8161419677734365 1.5783749999999994 5.803391967773437 1.5554999999999994 Q 5.790641967773436 1.5326249999999995 5.790641967773436 1.4981249999999995 Q 5.790641967773436 1.4726249999999996 5.803016967773437 1.4482499999999996 Q 5.8153919677734365 1.4238749999999996 5.836766967773436 1.4039999999999995 Q 5.858141967773437 1.3841249999999996 5.884766967773436 1.3724999999999996 Q 5.911391967773437 1.3608749999999996 5.939891967773437 1.3608749999999996 Q 5.974391967773437 1.3608749999999996 6.0036419677734365 1.3691249999999995 Q 6.032891967773437 1.3773749999999996 6.063641967773437 1.3923749999999995 L 6.071141967773436 1.5123749999999996 L 6.059141967773437 1.5123749999999996 L 6.024641967773436 1.4336249999999995 Q 5.998391967773437 1.4141249999999996 5.9788919677734365 1.4054999999999995 Q 5.959391967773437 1.3968749999999996 5.9338919677734365 1.3968749999999996 Q 5.900891967773437 1.3968749999999996 5.879516967773437 1.4193749999999996 Q 5.858141967773437 1.4418749999999996 5.858141967773437 1.4748749999999995 Q 5.858141967773437 1.5131249999999996 5.881391967773437 1.5344999999999995 Q 5.904641967773437 1.5558749999999995 5.954141967773436 1.5798749999999995 Q 5.999891967773436 1.6023749999999994 6.029141967773437 1.6214999999999995 Q 6.058391967773437 1.6406249999999996 6.0726419677734365 1.6653749999999996 Q 6.086891967773437 1.6901249999999997 6.086891967773437 1.7283749999999996 Q 6.086891967773437 1.7636249999999996 6.071891967773436 1.7902499999999995 Q 6.056891967773437 1.8168749999999996 6.033266967773437 1.8348749999999996 Q 6.009641967773437 1.8528749999999996 5.9815169677734366 1.8618749999999995 Q 5.953391967773436 1.8708749999999996 5.927891967773437 1.8708749999999996 M 6.184396362304687 1.8633749999999996 L 6.184396362304687 1.8513749999999995 L 6.244396362304687 1.8213749999999995 L 6.244396362304687 1.4103749999999995 L 6.184396362304687 1.3803749999999995 L 6.184396362304687 1.3683749999999995 L 6.551146362304687 1.3683749999999995 L 6.551146362304687 1.4973749999999995 L 6.539146362304687 1.4973749999999995 L 6.492646362304687 1.4096249999999997 L 6.311896362304687 1.4096249999999997 L 6.311896362304687 1.5873749999999995 L 6.439396362304687 1.5873749999999995 L 6.476896362304687 1.5251249999999996 L 6.488896362304687 1.5251249999999996 L 6.488896362304687 1.6893749999999996 L 6.476896362304687 1.6893749999999996 L 6.439396362304687 1.6286249999999995 L 6.311896362304687 1.6286249999999995 L 6.311896362304687 1.8221249999999996 L 6.513646362304687 1.8221249999999996 L 6.560146362304687 1.7268749999999995 L 6.572146362304687 1.7268749999999995 L 6.572146362304687 1.8633749999999996 L 6.184396362304687 1.8633749999999996 M 6.656879516601562 1.8633749999999996 L 6.656879516601562 1.8513749999999995 L 6.7048795166015625 1.8266249999999995 L 6.896879516601563 1.3646249999999995 L 6.930629516601562 1.3646249999999995 L 7.119629516601562 1.8243749999999996 L 7.169879516601562 1.8513749999999995 L 7.169879516601562 1.8633749999999996 L 6.983879516601562 1.8633749999999996 L 6.983879516601562 1.8513749999999995 L 7.049879516601562 1.8258749999999995 L 6.993629516601563 1.6871249999999995 L 6.811379516601562 1.6871249999999995 L 6.755879516601563 1.8258749999999995 L 6.818879516601562 1.8513749999999995 L 6.818879516601562 1.8633749999999996 L 6.656879516601562 1.8633749999999996 M 6.828629516601563 1.6458749999999995 L 6.977129516601562 1.6458749999999995 L 6.902879516601562 1.4613749999999994 L 6.828629516601563 1.6458749999999995 M 7.250879516601563 1.8633749999999996 L 7.250879516601563 1.8513749999999995 L 7.310879516601562 1.8213749999999995 L 7.310879516601562 1.4103749999999995 L 7.250879516601563 1.3803749999999995 L 7.250879516601563 1.3683749999999995 L 7.444379516601563 1.3683749999999995 Q 7.523129516601562 1.3683749999999995 7.568504516601562 1.4009999999999996 Q 7.613879516601562 1.4336249999999995 7.613879516601562 1.4906249999999996 Q 7.613879516601562 1.5326249999999995 7.585379516601563 1.5659999999999996 Q 7.556879516601563 1.5993749999999995 7.509629516601563 1.6166249999999995 L 7.652129516601563 1.8243749999999996 L 7.701629516601563 1.8513749999999995 L 7.701629516601563 1.8633749999999996 L 7.593629516601562 1.8633749999999996 L 7.448129516601563 1.6361249999999996 L 7.378379516601562 1.6361249999999996 L 7.378379516601562 1.8206249999999995 L 7.434629516601563 1.8513749999999995 L 7.434629516601563 1.8633749999999996 L 7.250879516601563 1.8633749999999996 M 7.427129516601562 1.4096249999999997 L 7.378379516601562 1.4096249999999997 L 7.378379516601562 1.5948749999999996 L 7.4316295166015625 1.5948749999999996 Q 7.4788795166015625 1.5948749999999996 7.510004516601563 1.5682499999999995 Q 7.541129516601563 1.5416249999999996 7.541129516601563 1.5003749999999996 Q 7.541129516601563 1.4583749999999995 7.510379516601563 1.4339999999999995 Q 7.4796295166015625 1.4096249999999997 7.427129516601562 1.4096249999999997 M 8.005387573242189 1.8708749999999996 Q 7.9288875732421875 1.8708749999999996 7.873387573242188 1.8393749999999995 Q 7.817887573242188 1.8078749999999995 7.7878875732421875 1.7534999999999996 Q 7.757887573242188 1.6991249999999996 7.757887573242188 1.6293749999999996 Q 7.757887573242188 1.5761249999999996 7.778512573242188 1.5277499999999995 Q 7.799137573242188 1.4793749999999997 7.8347625732421875 1.4418749999999996 Q 7.870387573242188 1.4043749999999995 7.917262573242188 1.3826249999999995 Q 7.964137573242188 1.3608749999999996 8.016637573242187 1.3608749999999996 Q 8.054137573242189 1.3608749999999996 8.080387573242188 1.3657499999999996 Q 8.106637573242187 1.3706249999999995 8.127262573242188 1.3784999999999996 Q 8.147887573242189 1.3863749999999995 8.168887573242188 1.3968749999999996 L 8.172637573242188 1.5281249999999995 L 8.159137573242187 1.5281249999999995 L 8.113387573242187 1.4366249999999996 Q 8.084887573242188 1.4163749999999995 8.063512573242187 1.4073749999999996 Q 8.042137573242188 1.3983749999999995 8.015137573242187 1.3983749999999995 Q 7.961137573242188 1.3983749999999995 7.918762573242188 1.4253749999999996 Q 7.876387573242188 1.4523749999999995 7.852012573242188 1.4992499999999995 Q 7.827637573242188 1.5461249999999995 7.827637573242188 1.6068749999999996 Q 7.827637573242188 1.6781249999999996 7.851262573242188 1.7287499999999996 Q 7.874887573242188 1.7793749999999995 7.915012573242188 1.8059999999999996 Q 7.955137573242188 1.8326249999999995 8.003887573242189 1.8326249999999995 Q 8.045137573242188 1.8326249999999995 8.073262573242188 1.8209999999999995 Q 8.101387573242189 1.8093749999999995 8.123137573242188 1.7951249999999996 L 8.168137573242188 1.7148749999999995 L 8.180887573242188 1.7148749999999995 L 8.172637573242188 1.8341249999999996 Q 8.150887573242187 1.8453749999999995 8.128012573242188 1.8536249999999996 Q 8.105137573242187 1.8618749999999995 8.075887573242188 1.8663749999999995 Q 8.046637573242188 1.8708749999999996 8.005387573242189 1.8708749999999996 M 8.3061474609375 1.8633749999999996 L 8.3061474609375 1.8513749999999995 L 8.366147460937501 1.8213749999999995 L 8.366147460937501 1.4103749999999995 L 8.3061474609375 1.3803749999999995 L 8.3061474609375 1.3683749999999995 L 8.4936474609375 1.3683749999999995 L 8.4936474609375 1.3803749999999995 L 8.4336474609375 1.4103749999999995 L 8.4336474609375 1.5873749999999995 L 8.688647460937501 1.5873749999999995 L 8.688647460937501 1.4103749999999995 L 8.6286474609375 1.3803749999999995 L 8.6286474609375 1.3683749999999995 L 8.8161474609375 1.3683749999999995 L 8.8161474609375 1.3803749999999995 L 8.7561474609375 1.4103749999999995 L 8.7561474609375 1.8213749999999995 L 8.8161474609375 1.8513749999999995 L 8.8161474609375 1.8633749999999996 L 8.6286474609375 1.8633749999999996 L 8.6286474609375 1.8513749999999995 L 8.688647460937501 1.8213749999999995 L 8.688647460937501 1.6286249999999995 L 8.4336474609375 1.6286249999999995 L 8.4336474609375 1.8213749999999995 L 8.4936474609375 1.8513749999999995 L 8.4936474609375 1.8633749999999996 L 8.3061474609375 1.8633749999999996 M 9.371145629882815 1.8708749999999996 Q 9.314895629882814 1.8708749999999996 9.271020629882814 1.8498749999999995 Q 9.227145629882815 1.8288749999999996 9.201645629882814 1.7849999999999995 Q 9.176145629882814 1.7411249999999996 9.176145629882814 1.6713749999999996 L 9.176145629882814 1.4103749999999995 L 9.116145629882814 1.3803749999999995 L 9.116145629882814 1.3683749999999995 L 9.303645629882814 1.3683749999999995 L 9.303645629882814 1.3803749999999995 L 9.243645629882813 1.4103749999999995 L 9.243645629882813 1.6601249999999996 Q 9.243645629882813 1.7223749999999995 9.263145629882814 1.7591249999999996 Q 9.282645629882813 1.7958749999999997 9.316020629882814 1.8116249999999996 Q 9.349395629882814 1.8273749999999995 9.390645629882814 1.8273749999999995 Q 9.423645629882813 1.8273749999999995 9.451770629882814 1.8131249999999997 Q 9.479895629882813 1.7988749999999996 9.496770629882814 1.7681249999999995 Q 9.513645629882813 1.7373749999999997 9.513645629882813 1.6863749999999995 L 9.513645629882813 1.4088749999999997 L 9.438645629882814 1.3803749999999995 L 9.438645629882814 1.3683749999999995 L 9.625395629882814 1.3683749999999995 L 9.625395629882814 1.3803749999999995 L 9.566145629882813 1.4096249999999997 L 9.566145629882813 1.6713749999999996 Q 9.566145629882813 1.7411249999999996 9.540645629882814 1.7849999999999995 Q 9.515145629882813 1.8288749999999996 9.471270629882813 1.8498749999999995 Q 9.427395629882813 1.8708749999999996 9.371145629882815 1.8708749999999996 M 9.726661376953126 1.8633749999999996 L 9.726661376953126 1.8513749999999995 L 9.786661376953127 1.8213749999999995 L 9.786661376953127 1.4118749999999995 L 9.727411376953127 1.3803749999999995 L 9.727411376953127 1.3683749999999995 L 9.837661376953127 1.3683749999999995 L 10.124161376953127 1.7283749999999996 L 10.124161376953127 1.4088749999999997 L 10.049161376953126 1.3803749999999995 L 10.049161376953126 1.3683749999999995 L 10.235911376953126 1.3683749999999995 L 10.235911376953126 1.3803749999999995 L 10.176661376953126 1.4096249999999997 L 10.176661376953126 1.8671249999999995 L 10.148911376953127 1.8671249999999995 L 9.839161376953127 1.4763749999999995 L 9.839161376953127 1.8221249999999996 L 9.914161376953126 1.8513749999999995 L 9.914161376953126 1.8633749999999996 L 9.726661376953126 1.8633749999999996 M 10.33341247558594 1.8633749999999996 L 10.33341247558594 1.8513749999999995 L 10.39341247558594 1.8213749999999995 L 10.39341247558594 1.4103749999999995 L 10.33341247558594 1.3803749999999995 L 10.33341247558594 1.3683749999999995 L 10.52091247558594 1.3683749999999995 L 10.52091247558594 1.3803749999999995 L 10.460912475585939 1.4103749999999995 L 10.460912475585939 1.8213749999999995 L 10.52091247558594 1.8513749999999995 L 10.52091247558594 1.8633749999999996 L 10.33341247558594 1.8633749999999996 M 10.724923461914065 1.8633749999999996 L 10.724923461914065 1.8513749999999995 L 10.799923461914064 1.8213749999999995 L 10.799923461914064 1.4096249999999997 L 10.677673461914065 1.4096249999999997 L 10.626673461914065 1.5198749999999994 L 10.614673461914064 1.5198749999999994 L 10.614673461914064 1.3683749999999995 L 11.052673461914065 1.3683749999999995 L 11.052673461914065 1.5198749999999994 L 11.040673461914064 1.5198749999999994 L 10.989673461914064 1.4096249999999997 L 10.867423461914065 1.4096249999999997 L 10.867423461914065 1.8213749999999995 L 10.942423461914064 1.8513749999999995 L 10.942423461914064 1.8633749999999996 L 10.724923461914065 1.8633749999999996" fill="#225777" fill-rule="nonzero"></path></g><g clip-path="url(#SvgjsClipPath1002)"><g clip-path="url(#SvgjsClipPath100087b41ebd-6afd-4fc1-82d5-cfb2df1adc0b)"><path d=" M 11.954444356114484 1.908849593729526 C 11.93797448898912 1.908849593729526 11.921378002725831 1.9080711205111862 11.90465489732462 1.906514174074505 C 11.853246117002817 1.9020182240745271 11.802315033419134 1.893141408286815 11.752416487162112 1.8799804302831287 C 11.725512157820027 1.872378411038887 11.703471958808072 1.8530467167835578 11.692427153372911 1.827363144079655 C 11.682039440379198 1.8035172056645594 11.683133035686444 1.7762291521449103 11.695395668717547 1.7532909483948198 C 11.69870851350381 1.746950499922528 11.703103002334498 1.7412371883333377 11.708381164751184 1.7364083966717785 C 11.740739388887011 1.7074688892598693 11.748167711645147 1.6694972166761326 11.736659438887274 1.6495054616774325 C 11.730753223857082 1.6403969710151163 11.721882068700708 1.6336081766489505 11.711546643199254 1.630287490299373 C 11.676812576322982 1.6176756290401333 11.657126918638548 1.580952907392972 11.665851203202227 1.5450446728911267 C 11.6700323976912 1.529955441453532 11.678156458926239 1.5162518546004062 11.689388294062764 1.5053425387557782 C 11.668701512829017 1.4932473350517226 11.655456583432738 1.4715863017351085 11.654117829754714 1.447660487035393 C 11.652723004038606 1.4302473920660805 11.657422724539721 1.4128907523318002 11.667412839236608 1.3985603991075526 C 11.674886176466842 1.3872607306994678 11.67886446794274 1.3740095458080397 11.678850768028967 1.3604621073858945 L 11.681242462856398 1.2841670423908575 L 11.507535074419424 1.2841670423908575 C 11.500282731916517 1.2841725637066035 11.49353562219995 1.2804536843352652 11.489667707179207 1.2743188872190838 C 11.485808342614998 1.268183831907575 11.485367451626226 1.260497455272002 11.488499997351695 1.2539613435997177 C 11.514949328384459 1.1988398122239945 11.546983970278927 1.1421566448138891 11.577977521483806 1.0873586956795247 C 11.593214024413848 1.0604028880950702 11.608464596136994 1.033433011717516 11.623096140963629 1.0065897544778832 C 11.653081030378345 0.9517199614970958 11.670865858734075 0.8910231160995575 11.675235088201616 0.8286476593170438 L 11.675347638546436 0.8271422984550755 C 11.676496089282647 0.810957972355435 11.675982236632807 0.7946985430958029 11.67381414009826 0.778619031044442 C 11.637333759583392 0.5076118695103473 11.757945522851408 0.2630259014228127 12.00474029145604 0.10753760005361848 C 12.315660619022017 -0.08825779355433337 12.744238263304478 -0.09727588993305711 13.02391180138973 0.08615303453776776 C 13.281764641372954 0.25524585883711204 13.423085668087898 0.561031076920665 13.375631628953055 0.8470355719020563 C 13.354092306713076 0.9767357755143085 13.298098510164996 1.0955467332651985 13.243933656720243 1.2104324977404837 C 13.219242924825299 1.262810614461213 13.193693996551099 1.3169895366990672 13.172056192759403 1.371041839799 C 13.13822074534781 1.4554545984141976 13.121169368107541 1.6830876708131803 13.119649938452467 1.85882096545692 C 13.119549544511974 1.8704044475616235 13.110130665943748 1.8797416958489281 13.098546748798668 1.879741260800384 L 13.098349785695232 1.879741260800384 C 13.086700144651441 1.8796329680286608 13.077342087903741 1.8701048792942927 13.077443559144868 1.8584551768362556 C 13.079047401558558 1.672887795813843 13.096816287247057 1.4453532049665796 13.132874603968848 1.355355135489676 C 13.15499074672603 1.3001351225622346 13.180792913276075 1.245379379807176 13.205750952239969 1.192424442569241 C 13.258677751891698 1.0801554736110284 13.313419425853654 0.9640457241358253 13.33400207016266 0.8400996569025092 C 13.378811176194226 0.5703305491614403 13.244932541030524 0.28156857073194996 13.000838980701577 0.12142349884581885 C 12.73430569537409 -0.05333904907384587 12.324875678504178 -0.044180264764095624 12.027278498006297 0.1432441969478488 C 11.890811204911728 0.22920452280432446 11.668890062512373 0.425295361067429 11.7156969371645 0.7729493074241202 C 11.718245232168666 0.7919013796507043 11.71884394069239 0.8110647666502013 11.717483673888523 0.8301389513859179 L 11.717385192336804 0.831686518627196 C 11.712568972479467 0.9000590005468224 11.693062213136693 0.9665883268760251 11.660195548375007 1.026736266200715 C 11.645451453203554 1.0537764865437824 11.630116468721793 1.0809433260247727 11.614753346653828 1.1080820279195596 C 11.589809376483036 1.152201763089103 11.56417603545022 1.1975595520516695 11.541595622520656 1.2419325254970575 L 11.703006885786017 1.2419325254970575 C 11.708717562538151 1.241932764102613 11.714184344939474 1.2442473906346485 11.718158975957444 1.248347895151815 C 11.722133631511173 1.252449954099738 11.724275740957394 1.2579879669097513 11.724096006646713 1.2636969484266765 L 11.72102900975036 1.3617564363513324 C 11.720875563036897 1.3838686465692724 11.71400672031601 1.4054122811317031 11.701332699406816 1.423532506864555 C 11.697141738991787 1.4300635796570815 11.69532832228731 1.4378389142940917 11.69619758992439 1.4455501680700185 C 11.69739245926761 1.458506692200023 11.706608171343776 1.4693109316634 11.719214135440133 1.4725341132406764 L 11.748308399576173 1.4806940132401467 C 11.757820663193108 1.4833671792302288 11.764204674587642 1.4922825797583101 11.763671521644138 1.5021489227215092 C 11.763146904105174 1.5120281771781183 11.755829708096723 1.520216885740731 11.74607146147287 1.5218452330650567 C 11.727641487434305 1.5244013480408396 11.712335729555834 1.5373515311563393 11.706763253544393 1.555103859959443 C 11.703405148075612 1.5703090292099984 11.711925329863586 1.5856284489095636 11.726614320612066 1.5907963880605696 C 11.746000800650274 1.59757243653365 11.762447926230445 1.6108434626137524 11.773167956988349 1.6283600656443304 C 11.796620635090271 1.669159565641677 11.78118716905679 1.7277560889137276 11.736434338197634 1.7677958740835344 C 11.734821810466475 1.7693666136455022 11.733485342102277 1.7711977179879062 11.732481007335823 1.7732123594280094 C 11.726249483040034 1.784840765352336 11.725771273093798 1.798703655858999 11.73118667837039 1.8107338306324658 C 11.737155847777778 1.8246305625876138 11.74907574763564 1.835092781716978 11.763629315264831 1.839209067871991 C 11.811110381397114 1.8517930863673098 11.85959590784853 1.860223919170658 11.90853788422092 1.8644062763186278 C 12.16736022532909 1.8881798480300442 12.400073323535905 1.7066516806806402 12.440014681255308 1.449827081173191 C 12.441832462239146 1.43832914318353 12.452591078437486 1.4304549924262167 12.464100455046843 1.4321988834157153 C 12.469632341831343 1.4330546532797408 12.474597592332476 1.4360731988506332 12.477903628023821 1.44059030428047 C 12.481209663715166 1.4451074097103038 12.482585594179842 1.4507529517798445 12.481728652804318 1.4562846572072516 C 12.441240723029885 1.7163169517462114 12.21760916636028 1.9082585701177714 11.954444356114484 1.908849593729526 Z" fill="#225777" transform="matrix(1,0,0,1,0,0)" fill-rule="nonzero"></path></g><g clip-path="url(#SvgjsClipPath100087b41ebd-6afd-4fc1-82d5-cfb2df1adc0b)"><path d=" M 11.844651494742317 1.5222250904788184 L 11.742666813542057 1.5222250904788184 C 11.731011843723476 1.5222250904788184 11.721563623888256 1.5127768706435996 11.721563623888256 1.5011219008250192 C 11.721563623888256 1.489466931006439 11.731011843723476 1.4800187111712202 11.742666813542057 1.4800187111712202 L 11.844651494742317 1.4800187111712202 C 11.856306464560898 1.4800187111712202 11.865754684396117 1.489466931006439 11.865754684396117 1.5011219008250192 C 11.865754684396117 1.5127768706435996 11.856306464560898 1.5222250904788184 11.844651494742317 1.5222250904788184 Z" fill="#225777" transform="matrix(1,0,0,1,0,0)" fill-rule="nonzero"></path></g><g clip-path="url(#SvgjsClipPath100087b41ebd-6afd-4fc1-82d5-cfb2df1adc0b)"><path d=" M 12.004951323352579 0.6931089065672452 C 11.997498317546444 0.6931155222286333 11.990594511652096 0.6891903529595002 11.986788511457208 0.6827824124299865 C 11.980850843418718 0.6727870273173312 11.984115779206887 0.6598719730338813 11.994090215077422 0.6538991801904855 C 11.997396381456518 0.651887342776822 12.066066160589981 0.6085273224348166 12.038547601281428 0.5170942360614538 C 12.03518107498317 0.5059491443704222 12.041476431935838 0.4941831222258848 12.05261639438396 0.49079966175282197 C 12.063761486074991 0.4874331354545631 12.07552750821953 0.49372849240723116 12.078910968692595 0.5048684548553533 C 12.102884353343182 0.5738281549923807 12.076766259411446 0.6502496978366402 12.015601399731196 0.6901122536364029 C 12.012384334949719 0.6920481171552496 12.008705841951931 0.6930831488706114 12.004951323352579 0.6931089065672452 Z" fill="#225777" transform="matrix(1,0,0,1,0,0)" fill-rule="nonzero"></path></g><g clip-path="url(#SvgjsClipPath100087b41ebd-6afd-4fc1-82d5-cfb2df1adc0b)"><path d=" M 13.025248336734473 1.0472767041304092 C 13.013118277267875 1.0472762533875173 13.001008005610194 1.0462976455767963 12.989035263288551 1.0443503951650828 C 12.970510892693838 1.0413648928468267 12.952426653496605 1.0361007584162767 12.935193992085159 1.0286777596488597 C 12.920618702892032 1.0222962646193696 12.907414430581719 1.0131574176839027 12.896307847949757 1.0017641584437151 C 12.889273451398491 0.995011137754499 12.887472645881367 0.9937168087890651 12.88505281346773 0.9935620520649389 C 12.882632981054094 0.9934072953408113 12.88138085846797 0.9938434279269892 12.873685228640884 0.999991490512796 C 12.8645936796032 1.0077217472074769 12.854374364645075 1.014017490452338 12.843381048298028 1.0186607789598574 C 12.796363141749364 1.0378787503379172 12.749120134511058 1.0186607789598574 12.73364446209827 1.0122594780982037 C 12.730563396408817 1.0110073555120782 12.657335328310133 0.9804217993071715 12.633924856587518 0.9045206605190066 C 12.611006792623492 0.8302796393169389 12.645672298828133 0.7442489694949501 12.718239133650998 0.6953036382912398 C 12.72788316663531 0.6887763235169971 12.740991743509644 0.6912947820903567 12.74753036089047 0.7009311555322517 C 12.754057675664715 0.710575188516565 12.751539217091356 0.7236837653908981 12.741902843649457 0.7302223827717259 C 12.68464285572215 0.7688693574243837 12.656842920551544 0.8354006800062626 12.6743726367573 0.8920135034508545 C 12.687584896748572 0.928070939071969 12.714738312346247 0.957302939508152 12.749725092614465 0.9731341644800608 C 12.76130370933785 0.9778472101694087 12.796489760887285 0.9922677230995036 12.827539587264576 0.9795354653417121 C 12.834804509151667 0.976402645285845 12.84153549092345 0.9721542470589462 12.847489135883968 0.9669438955149456 C 12.858272955181947 0.9563849142358103 12.872942018285928 0.950753541867534 12.888021328812366 0.9513838103435442 C 12.902556030434816 0.9530364707626201 12.915928777558383 0.9601223683365512 12.925458387258207 0.9712208086181169 C 12.93296560157638 0.9791311981781812 12.941958035834197 0.9854847043603392 12.951921787084071 0.9899182346513815 C 12.965958146795753 0.9959745305131558 12.980693490723006 1.000260918243117 12.995788283977769 1.0026786299953807 C 13.082221772462828 1.0155370584968542 13.166197458356887 0.9674520478335329 13.19885724361973 0.8864000550029435 C 13.23056187970049 0.8038219719309422 13.20010966776905 0.7103232938635458 13.125854276210685 0.6622560432933906 C 13.12090190021485 0.6590795891753067 13.117500415941292 0.6539799126032562 13.116470391211296 0.6481872501908579 C 13.115445182649378 0.6423832079172571 13.116893901492448 0.6364148943736245 13.120465928452415 0.6317267622608933 C 13.143581311003231 0.6016965048230863 13.156848819123898 0.5652550825183258 13.158451669829255 0.527392592612509 C 13.161521483598705 0.4534393848670402 13.120709538563199 0.38462713646055485 13.05434260087051 0.3518562610722079 C 13.018268912235008 0.3342037267937915 12.977438266872728 0.32874318341160486 12.937993681912562 0.33629617590080524 C 12.931980205117743 0.33742128854429604 12.925774422864535 0.3358813922035502 12.9209845110516 0.33207553797004624 C 12.916186552675557 0.3282884717870199 12.913266324176583 0.3226071133540431 12.91297936777626 0.3165013840055425 C 12.910680126913103 0.2651897704786984 12.875805311796999 0.22110605471851297 12.826400015023271 0.2070602424609384 C 12.773323411104608 0.1918652767959527 12.716765180951525 0.21516423875396778 12.689792033997676 0.2633354148710705 C 12.685872868244282 0.27026603258040216 12.67838661656134 0.27440088089365294 12.67043337468859 0.27402769762899515 C 12.662481980950703 0.2736672848681774 12.655409811058528 0.2688636494721832 12.652143943655298 0.26160495331945866 C 12.63000984196733 0.21205888264913614 12.5870647397321 0.17486314870739345 12.534866484352584 0.16002826711916945 C 12.488011747846752 0.14656421141243997 12.437718175741914 0.15240004894918205 12.395191506430637 0.17623551677328844 C 12.352573635066356 0.19986223645359483 12.321168302533778 0.23954439372137254 12.307964989194932 0.2864504419385303 C 12.306038830825045 0.2933907927934338 12.304516845343613 0.3004370218741331 12.303406700229711 0.307553631592328 C 12.30228724434625 0.3144586651121428 12.297818894028314 0.32036025987168026 12.291476363678763 0.3233106798671667 C 12.285142520045241 0.3262257561194973 12.27778143514162 0.32584718603873986 12.271780053335217 0.32229772676378576 C 12.247792794274782 0.30751240492891907 12.219139540688815 0.3022424949157338 12.191461313512857 0.30752549400612594 C 12.171963370995933 0.31089982782909215 12.153538953835971 0.31883457158767264 12.137690386274976 0.33068272745289423 C 12.128366410420112 0.33767570934404373 12.115138902650806 0.3357860653770008 12.108145920759656 0.32646208952213523 C 12.104787772429017 0.3219845584146163 12.103345857418006 0.31635639609400756 12.10413738057028 0.3108157340280827 C 12.104928903722556 0.30527507196215653 12.107889027582896 0.3002757723374547 12.112366558690416 0.29691762400681554 C 12.133565156734079 0.28108523898647275 12.15820175112289 0.270480561300033 12.184272160237462 0.2659662791812428 C 12.21228980604844 0.26084388718539686 12.241175003894853 0.2634857370136933 12.2677985848872 0.2736056338359183 C 12.284261061272879 0.21649130377248654 12.322716725680431 0.168244624808537 12.374721412466451 0.13945969160326901 C 12.427008678637831 0.11013168436423204 12.488861029832286 0.1029574601431171 12.546473238662173 0.11953828057008084 C 12.598963134758323 0.1344276901364886 12.64426196161251 0.16786813300456546 12.673950572964223 0.2136444376329204 C 12.715146174032332 0.1678904054281302 12.77883234527067 0.14964364287712364 12.83800676933286 0.16664059987735896 C 12.896805241370702 0.1833294138504648 12.941131996673098 0.2318007398353924 12.952512676394376 0.2918528584899015 C 12.993885743666848 0.2881197789972223 13.035491144052804 0.29578790097222785 13.072814926214136 0.3140252764194937 C 13.154279246485215 0.35431353822435996 13.2043635276508 0.4388111188234373 13.200601773964442 0.5296154619227069 C 13.198779880360414 0.5685820040684797 13.186999879268434 0.6064310700770068 13.16638646913908 0.6395490112258998 C 13.24502774857539 0.7018789869369668 13.274117662457323 0.8080369514988532 13.238235795513718 0.9017491082778077 C 13.20391937556977 0.9894399437092665 13.119414624874516 1.0471793677922117 13.025248336734473 1.0472767041304092 Z" fill="#225777" transform="matrix(1,0,0,1,0,0)" fill-rule="nonzero"></path></g><g clip-path="url(#SvgjsClipPath100087b41ebd-6afd-4fc1-82d5-cfb2df1adc0b)"><path d=" M 12.774640925199053 0.8249053603517739 L 12.773937485543927 0.8249053603517739 C 12.762313735501332 0.8245304081808534 12.753184233345607 0.8148220540621203 12.753523666752152 0.803197212594567 C 12.753650285890075 0.7981887222500639 12.755029027614121 0.6867076057055942 12.641648624000808 0.6640146424312071 C 12.630225186886642 0.661730689282715 12.62281325403096 0.6506222359629005 12.625089654519128 0.6391972913983389 C 12.626186332473702 0.6337084134178244 12.629418708586934 0.6288800713001567 12.634075591014136 0.6257746035285883 C 12.638732473441339 0.6226691357570198 12.644432331419422 0.6215409682285263 12.649921074345098 0.6226383219166577 C 12.736784070353007 0.638893601903254 12.798739833981234 0.7161724015422075 12.795715977266648 0.8044915415599982 C 12.79534423212183 0.8158655329537446 12.786020986352987 0.8248962603306393 12.774640925199053 0.8249053603517739 Z" fill="#225777" transform="matrix(1,0,0,1,0,0)" fill-rule="nonzero"></path></g><g clip-path="url(#SvgjsClipPath100087b41ebd-6afd-4fc1-82d5-cfb2df1adc0b)"><path d=" M 13.098406060867644 0.6643241558794636 C 13.028868522476595 0.6629371801508542 12.963399190417343 0.6312712334014298 12.91914149915517 0.5776181839885522 C 12.909163962637056 0.5659559060053712 12.900006686342653 0.5536161471384278 12.891735490191435 0.5406876020944039 C 12.881435398894228 0.5231396578749489 12.86816322582666 0.5075158156913914 12.852511695021573 0.49451382313188974 C 12.82201894025745 0.4724728391383728 12.786275074942035 0.4588214768965738 12.74885282744211 0.45492423934136306 C 12.712597547616882 0.45249033813462536 12.6443779698627 0.46437846830626595 12.624287733312284 0.4877045272702656 C 12.620635653977029 0.4919483199428043 12.615446833533682 0.49456688238301316 12.609863496591096 0.4949837856140743 C 12.604280159648514 0.49540068884513677 12.59875999515909 0.493581757605014 12.594518167107324 0.48992739658046613 C 12.5856898507882 0.48232332824087365 12.584694782980172 0.4690032749878681 12.592295297797124 0.460171899168608 C 12.627593899691378 0.41917543606782826 12.716564947271797 0.41052312830976917 12.751638448476411 0.4128022727923806 C 12.797135543548942 0.417261518236556 12.840620324053901 0.4337734965386409 12.877610421916492 0.4606361693409906 C 12.897276840115468 0.4764057252745174 12.913954610956072 0.49557563158644646 12.926851197775358 0.5172349239924843 C 12.934078114718945 0.5285793128093459 12.942068902767131 0.5394185817735329 12.950768146049663 0.5496775608869243 C 12.98474428139228 0.5880009532982245 13.042215301216126 0.6313609736402314 13.122716935348821 0.6205139341581765 C 13.1342528167212 0.6189462866606036 13.144879129486977 0.6270167445786876 13.146465058105896 0.6385501269156226 C 13.148022620640106 0.6501001177617236 13.139922499667014 0.6607260151813219 13.128372590176038 0.6622841808795953 C 13.118441349173418 0.6636408243207422 13.108429534622985 0.6643223797713579 13.098406060867644 0.6643241558794636 Z" fill="#225777" transform="matrix(1,0,0,1,0,0)" fill-rule="nonzero"></path></g><g clip-path="url(#SvgjsClipPath100087b41ebd-6afd-4fc1-82d5-cfb2df1adc0b)"><path d=" M 12.478338073666606 0.6407026522603099 C 12.468265065413377 0.6406912369329115 12.459604390850444 0.6335623823607004 12.457656947805884 0.6236794126062447 C 12.456573733609288 0.6181868563094803 12.457717374901943 0.6124889647859643 12.46083616396326 0.6078398054576736 C 12.463954953024576 0.6031906461293816 12.468793279797412 0.5999712553082334 12.474286261253077 0.5988901991595812 C 12.48716456948295 0.5966681076688283 12.498678669685042 0.589536728919043 12.506405315906159 0.5789969257126005 C 12.51189840784284 0.569403179716841 12.514115961719213 0.5582808382255443 12.512722204009197 0.5473140036456972 C 12.511806089962931 0.533159854342288 12.50657169227229 0.5196270212884343 12.497724870561896 0.5085404098551153 C 12.488312400827482 0.4954954862458517 12.481378468945826 0.48083122177811066 12.477268845390814 0.46527887106482646 C 12.468270575640155 0.4262642729072617 12.477063509439532 0.3852683787453327 12.501270206423735 0.3533756907272813 C 12.535300151420975 0.3095521832509644 12.593087565407606 0.29166292642160735 12.64592553710398 0.3085947222819191 C 12.667258957573639 0.316613457043479 12.684796052912027 0.3323626927196476 12.695053762618024 0.3527144574514613 C 12.709864626641359 0.3854856679553904 12.706892585082002 0.4235543360005162 12.687175238480606 0.4536299103759304 C 12.68411776837164 0.45831863066238365 12.679322764975216 0.46160056448478304 12.673845285755496 0.4627535791374908 C 12.668367806535775 0.46390659379019716 12.662656638040783 0.4628362192724923 12.657968423999748 0.45977797296173595 C 12.65327740129401 0.45672273366040517 12.649992576691846 0.45192875230748025 12.648836889110983 0.4464511098009299 C 12.647681201530123 0.4409734672943796 12.648749364749312 0.43526108099648675 12.651806292620838 0.4305711584808788 C 12.663320139248817 0.41300239738432704 12.665370317635332 0.39086679526770995 12.657279053137723 0.37148222745023934 C 12.651849353190997 0.36068952617453287 12.6425506720478 0.35234030518047965 12.631237717104934 0.34809989331382885 C 12.595762141351592 0.33748762903188656 12.557412754182112 0.3497862663165602 12.534725796421558 0.3790512381394029 C 12.518382576859976 0.4007932316794078 12.512363826888253 0.4285946139142894 12.518251239698493 0.4551493400310025 C 12.521282562315264 0.46604245400782884 12.526289788104094 0.47628580733583525 12.533023472456152 0.48536910761524465 C 12.54603205870709 0.5026448343012845 12.55363011071318 0.5233877121039924 12.554858239351283 0.5449785839906736 C 12.556834296727857 0.564888705394608 12.552244332785508 0.5848987742498382 12.54178833055903 0.6019571960559328 C 12.527826542127759 0.6220456720532289 12.506501128037618 0.635812647531524 12.482446161252547 0.6402665196741307 C 12.481093975349928 0.6405434427207 12.479718262045656 0.6406894944756047 12.478338073666606 0.6407026522603099 Z" fill="#225777" transform="matrix(1,0,0,1,0,0)" fill-rule="nonzero"></path></g><g clip-path="url(#SvgjsClipPath100087b41ebd-6afd-4fc1-82d5-cfb2df1adc0b)"><path d=" M 12.94436684518801 0.872654844141771 C 12.934219228166398 0.872711167095957 12.924094184951661 0.8716925321009009 12.914161146396872 0.8696159848316242 C 12.902778271816663 0.8671138420796429 12.89557883350478 0.8558580273260716 12.898080515880677 0.8444750515573971 C 12.90058916865037 0.8330978949162526 12.911842918924252 0.8259060746516895 12.923221449154903 0.8284084898343034 C 12.952329797514103 0.8345728270739715 12.982665394178772 0.8272680898403021 13.005777127080567 0.8085292851804263 C 13.02633765823513 0.7880553028644511 13.036770314506779 0.7595239199348764 13.034266433113196 0.730616308978598 C 13.032634453113301 0.6707958007066293 12.983238920530308 0.6343154201917599 12.973348558979229 0.6276046058818523 C 12.96370342931458 0.6210653114141865 12.961184128745193 0.6079460536991154 12.967721041738216 0.5982993098492771 C 12.97426033620588 0.5886541801846294 12.987379593920952 0.5861348796152444 12.99702633777079 0.5926717926082652 C 13.009899283459609 0.6014085131249358 13.074264011903697 0.6490454465701125 13.07644467483459 0.7294485991510882 C 13.079851414255188 0.7708212943812323 13.064209604492182 0.8114899997650484 13.03395691966494 0.839916762592177 C 13.009205782586765 0.8615941062745704 12.977262918729846 0.8732666948730388 12.94436684518801 0.872654844141771 Z" fill="#225777" transform="matrix(1,0,0,1,0,0)" fill-rule="nonzero"></path></g><g clip-path="url(#SvgjsClipPath100087b41ebd-6afd-4fc1-82d5-cfb2df1adc0b)"><path d=" M 12.898629198811676 0.4009704177931482 C 12.887745124618124 0.4009598787962959 12.878654401801226 0.39267342904362557 12.877638559502696 0.38183685917370547 C 12.872334624503042 0.32537879245323836 12.908730592259294 0.3004488910755511 12.928736416051096 0.29514495607589525 C 12.934148683548482 0.29371268223929764 12.939908279609497 0.29448975612251194 12.944747461608841 0.29730513627153066 C 12.949586643608185 0.30012051642054943 12.953108768487338 0.30474344048889485 12.954538582601142 0.3101563583162983 C 12.957482341167324 0.3212931324094292 12.950951536835454 0.33273299771559156 12.9398648313952 0.335860043314626 C 12.935798950188568 0.33715437228005857 12.916566910017405 0.3449906900381701 12.919662044499962 0.3778835283118904 C 12.920186648701877 0.3834562632337185 12.918475821956433 0.3890091300802553 12.914905983834604 0.3933203758238388 C 12.911336145712776 0.3976316215674222 12.90619976817711 0.4003480317314789 12.900626967432235 0.40087193624143014 C 12.899963211256116 0.40093949541611257 12.899296381472436 0.40097236730685787 12.898629198811676 0.4009704177931482 Z" fill="#225777" transform="matrix(1,0,0,1,0,0)" fill-rule="nonzero"></path></g><g clip-path="url(#SvgjsClipPath100087b41ebd-6afd-4fc1-82d5-cfb2df1adc0b)"><path d=" M 12.1339340185166 0.6239889260544998 C 12.110535363712728 0.6239424968984559 12.08719386528003 0.6216766521464624 12.06422314869355 0.6172218365721828 C 12.052784838951482 0.615022283534229 12.045291582334691 0.6039713042380394 12.047481284901535 0.5925311046772359 C 12.049680837939487 0.5810927949351686 12.060731817235675 0.5735995383183787 12.07217201679648 0.5757892408852224 C 12.171905691100337 0.5948946619184603 12.262832300922007 0.5679529231271109 12.303814695229686 0.5071194617517586 C 12.326135840701129 0.4774018606569146 12.335039670086266 0.43971612230859763 12.32837880798671 0.40315108072404027 C 12.320445948815955 0.36961716219535873 12.299879174760575 0.3404376420334754 12.27096406333527 0.3216927686603753 C 12.261240388871324 0.31527959537378497 12.258551603386726 0.3022008893983511 12.26495668868049 0.2924718853864144 C 12.268036685823388 0.28779825520289076 12.272847221776447 0.2845396654370577 12.278329915942734 0.2834130483008672 C 12.283812610109022 0.2822864311646754 12.289518293259006 0.28338408466631426 12.294191640747552 0.2864645107316327 C 12.332363640676268 0.3113623487582354 12.35941777856914 0.35006801715249247 12.369684784535746 0.39447063537978044 C 12.378889407847645 0.4421983139895978 12.36769585472351 0.49159994338841284 12.33881785246879 0.5306987589916051 C 12.298651448161056 0.5903082353670367 12.222145351269482 0.6239889260544998 12.1339340185166 0.6239889260544998 Z" fill="#225777" transform="matrix(1,0,0,1,0,0)" fill-rule="nonzero"></path></g><g clip-path="url(#SvgjsClipPath100087b41ebd-6afd-4fc1-82d5-cfb2df1adc0b)"><path d=" M 12.393461044879025 0.9944061796510912 C 12.389901640224085 0.9944061796510912 12.38625782281053 0.9944061796510912 12.382529592638358 0.9942936293062707 C 12.325741581471553 0.9949784732563776 12.26961293073738 0.9820750579320467 12.218825116097284 0.9566596077569953 C 12.162991113968888 0.9260170652219343 12.1177185233424 0.8792193689103478 12.0889420181747 0.822401115179523 C 12.08771803317478 0.822401115179523 12.08649404817486 0.822401115179523 12.085284131968042 0.822401115179523 C 11.9945596125497 0.8235855367445039 11.91194420303615 0.7703319330673247 11.875560633188584 0.687214082257284 C 11.845706654225008 0.6140563581241119 11.85465440663822 0.5084419283033973 11.929556661116104 0.44832597537627455 C 11.976231002650039 0.41320042919362354 12.035508911076478 0.399285714789897 12.09293755541582 0.40997444537877087 C 12.104401750917521 0.4120690895950486 12.111997790942869 0.4230600430313949 12.109904519897473 0.43452448934268845 C 12.108901889443125 0.4400324131087464 12.105751741000315 0.4449162190593926 12.101147420723153 0.4481009838585532 C 12.09654310044599 0.4512857486577138 12.090861981682117 0.45251044672910884 12.085354475933554 0.45150552261744786 C 12.039949027574918 0.4428608342317225 11.992999123738628 0.4536491056132346 11.955921579390251 0.4812469512362023 C 11.897142161807869 0.5284196145089937 11.890628310601397 0.6125650660552432 11.914587465255009 0.671288208465218 C 11.946743047976955 0.7434228702863807 12.02132739867045 0.7870096568938431 12.099957883173984 0.7796179153547219 C 12.108625106126297 0.778954665834891 12.116812321468732 0.7836737633549171 12.120582733862296 0.7915060455263625 C 12.145378301841575 0.8455324457904162 12.186690848442272 0.8902885256696591 12.238563632820137 0.9193210308628753 C 12.28359564225027 0.941544460754739 12.333260135414008 0.9527599569779295 12.383472201776227 0.9520450436193669 C 12.414418050236527 0.9524695168732852 12.445333134414128 0.9499207420271891 12.475791622115048 0.9444338265508936 C 12.514600427964373 0.935601913014943 12.554985004022946 0.9364425537894586 12.593392663659122 0.9468817965507362 C 12.598764164856842 0.9484717422883044 12.603283102108911 0.9521321487934691 12.605953728651416 0.9570564463510898 C 12.60862435519392 0.9619807439087105 12.609227507923956 0.96776482347727 12.607630282278885 0.9731341644800622 C 12.604312704105357 0.9843005258536217 12.592574904235423 0.9906668969204144 12.581406051935764 0.9873577143067225 C 12.544433263662306 0.9764121932729524 12.518377858836416 0.9804640056864813 12.482319542114624 0.9861337293068018 C 12.452981028132186 0.9913530320745898 12.423258824483424 0.9941200769994567 12.393461044879027 0.9944061796510912 Z" fill="#225777" transform="matrix(1,0,0,1,0,0)" fill-rule="nonzero"></path></g><g clip-path="url(#SvgjsClipPath100087b41ebd-6afd-4fc1-82d5-cfb2df1adc0b)"><path d=" M 12.479899709700987 1.266370019116156 C 12.470608651720731 1.2663685537829144 12.462411592369817 1.2602907341666278 12.459710991598854 1.2514008232550626 C 12.445481707706048 1.2046682727441356 12.42115501541988 1.1616342820463919 12.388452554534524 1.1253444370563652 C 12.370379187437303 1.1053834991389804 12.349936008813195 1.0877041891294112 12.327576886779864 1.072699013266688 C 12.317905780045372 1.066201635991185 12.315330011705498 1.0530960762961288 12.321822750400928 1.0434218548203162 C 12.324943140450696 1.0387735379401888 12.329782721975768 1.035555647106204 12.335276267881401 1.0344764634965005 C 12.340769813787034 1.0333972798867956 12.346467051528789 1.0345452576179326 12.351113977640402 1.0376677184413787 C 12.376318223368534 1.054589062447692 12.399364275870491 1.0745216773525208 12.419741550394557 1.0970239565409674 C 12.456621045503592 1.1379252711316925 12.48405578830024 1.186435583149574 12.500102496596226 1.2391187668765513 C 12.50172788423055 1.2444750146696086 12.501158729409138 1.2502575849156552 12.498520261290789 1.2551941587650883 C 12.495881793172439 1.2601307326145201 12.491390182759847 1.2638168541212953 12.486033703493693 1.2654414787713892 C 12.484045947497645 1.2660514865228196 12.4819789527266 1.2663643802266933 12.479899709700987 1.266370019116156 Z" fill="#225777" transform="matrix(1,0,0,1,0,0)" fill-rule="nonzero"></path></g><g clip-path="url(#SvgjsClipPath100087b41ebd-6afd-4fc1-82d5-cfb2df1adc0b)"><path d=" M 12.543434379352027 1.2527654961860046 C 12.533792967922484 1.2527548854321542 12.525384702187893 1.2462112626497244 12.523006491767148 1.2368677599801408 L 12.502578604182272 1.156675639295705 C 12.500498452071119 1.1485163237738714 12.503467812608527 1.139901307540573 12.51013354607833 1.1347564596419584 C 12.516803870424978 1.1296103370396522 12.525895874574402 1.1289245654371418 12.533262641938895 1.133011929297244 C 12.54897732942123 1.1417462870037018 12.565735413933695 1.1484542480539643 12.583136513487375 1.152975546709738 C 12.62055907951516 1.1623067452278948 12.659759743792135 1.16179298775839 12.69692491210066 1.1514842546408695 C 12.704876823587949 1.1495475313843457 12.712300400947234 1.145871779488001 12.718661197444074 1.1407216279174315 C 12.723330196445644 1.1367407389074395 12.727103620766723 1.1318165879827278 12.729733337615768 1.1262729774011304 C 12.732313880732 1.1207185741548573 12.733616693018963 1.1146564107088843 12.733545980546554 1.1085322292988358 C 12.733452345876328 1.0968825564429792 12.742816661021262 1.087360804930445 12.754466275890021 1.0872602141278067 C 12.760084742062368 1.0871464974717444 12.765511521137839 1.0893040571177486 12.769518154175856 1.0932444867017346 C 12.773524787213875 1.0971849162857208 12.775772457324189 1.1025749973458936 12.775752359854152 1.1081945782643772 C 12.775890980453937 1.1206102101503275 12.773226806432486 1.1328971499062919 12.76795824847535 1.1441403446413494 C 12.762812233760126 1.15510843367541 12.755382202285018 1.1648504568684028 12.746165687959525 1.1727140634325912 C 12.735049137515642 1.1819924670693949 12.72199096162765 1.18865617538337 12.707954845893047 1.1922134106727025 C 12.663723365614592 1.2044657599949453 12.617068403948885 1.2050232538219985 12.572556781074269 1.193831321879494 C 12.566366512109155 1.1922274794658037 12.560246587109553 1.1903938467647743 12.554197006075464 1.1883304237764034 L 12.563904473316212 1.2264568530842677 C 12.566774122009297 1.2377458763711802 12.559954577905796 1.2492251274336788 12.548667970386168 1.252104262910186 C 12.546958300404615 1.2525444714366354 12.545199812350049 1.2527666460026705 12.543434379352027 1.2527654961860046 Z" fill="#225777" transform="matrix(1,0,0,1,0,0)" fill-rule="nonzero"></path></g><g clip-path="url(#SvgjsClipPath100087b41ebd-6afd-4fc1-82d5-cfb2df1adc0b)"><path d=" M 12.650526032448507 0.9043799725879828 C 12.642336969471645 0.9043852964785819 12.634884163704008 0.8996525728748488 12.631406542622166 0.8922386041404966 L 12.631406542622166 0.8922386041404966 C 12.631026685208397 0.891422614140549 12.592281229004021 0.8107662232837266 12.52418827038776 0.7946293175951222 C 12.486075909873 0.7855690148370913 12.444488557461913 0.798498235698319 12.4005376478096 0.8329808475926272 C 12.39613293757009 0.8364343018990277 12.390536715803487 0.8379964704088207 12.384980173874277 0.8373236697478766 C 12.37942363194507 0.8366508690869326 12.374361968363063 0.8337982158839308 12.370908769535665 0.8293933053514821 C 12.36371410293357 0.8202246354841183 12.36531396963634 0.8069595989642996 12.374482242983708 0.7997644270775468 C 12.429153572980152 0.7568827457010263 12.482882293838724 0.7413507981158298 12.53417711349056 0.7536187857012401 C 12.622177414346904 0.7746375625964248 12.667732166412906 0.8702912869005452 12.669631453481747 0.8743430993140757 C 12.672000950248727 0.8794138840982594 12.672258969382227 0.8852182773054951 12.670348746380345 0.8904793058493581 C 12.66843852337846 0.8957403343932198 12.664516543683696 0.9000270148864797 12.659445647275513 0.9023962727605268 C 12.656652995341384 0.9037009842521543 12.653608429786573 0.904378087948097 12.650526032448507 0.9043799725879828 Z" fill="#225777" transform="matrix(1,0,0,1,0,0)" fill-rule="nonzero"></path></g><g clip-path="url(#SvgjsClipPath100087b41ebd-6afd-4fc1-82d5-cfb2df1adc0b)"><path d=" M 12.404364359533488 0.9043799725879828 C 12.392834595863821 0.904381328054221 12.383437959510838 0.8951287734586505 12.38326116987969 0.883600365175544 C 12.3805456670396 0.8450923432705274 12.351963534459427 0.8133776043186681 12.31394422626351 0.8066862732839941 C 12.302608179159096 0.8039818321813 12.295610439258526 0.7926002696247505 12.298313797126596 0.781263964147718 C 12.30101823822929 0.7699279170433052 12.31239980078584 0.7629301771427366 12.323736106262873 0.7656335350108048 C 12.38059852427044 0.776756997567416 12.422563269477934 0.8251983927059777 12.425467549187289 0.8830657510376454 C 12.425523787397383 0.8886651622113977 12.423352263901622 0.8940573529622048 12.41943112887218 0.8980550108152358 C 12.415509993842738 0.9020526686682666 12.410160774946158 0.9043279911909441 12.404561322636924 0.9043799725879828 Z" fill="#225777" transform="matrix(1,0,0,1,0,0)" fill-rule="nonzero"></path></g><g clip-path="url(#SvgjsClipPath100087b41ebd-6afd-4fc1-82d5-cfb2df1adc0b)"><path d=" M 12.466703181770812 0.6908578996708399 C 12.46313549819733 0.69085723371926 12.459626219118382 0.689952081736138 12.456503306771475 0.6882270353606662 C 12.446359431542717 0.6826210362214589 12.442634863363367 0.6698833899015217 12.448160512461675 0.6596955229487288 C 12.458871849567135 0.6373675436900124 12.452772386743034 0.610602214471442 12.433444554876424 0.5951197626081025 C 12.42934130791451 0.5913078877965214 12.426921609444662 0.5860212669983543 12.426718420197329 0.5804243268218483 C 12.426515230949997 0.5748273866453396 12.428545217886395 0.5693792261129553 12.432361257807528 0.56527985243763 C 12.436172649039602 0.5611808605710079 12.441456315767162 0.5587639104412371 12.447049808728393 0.5585607505553813 C 12.452643301689623 0.5583575906695242 12.458088385984281 0.5603848644649977 12.462187099184899 0.5641965553687359 C 12.495566654187318 0.5929146902429863 12.505073603781472 0.6406874021535359 12.485231782286847 0.6799967913956839 C 12.481497467508435 0.6867242906451883 12.474397566533348 0.6908861156662708 12.466703181770812 0.6908578996708399 Z" fill="#225777" transform="matrix(1,0,0,1,0,0)" fill-rule="nonzero"></path></g><g clip-path="url(#SvgjsClipPath100087b41ebd-6afd-4fc1-82d5-cfb2df1adc0b)"><path d=" M 12.10054877248429 0.8236110313863413 C 12.098802946625483 0.8236091502340682 12.097064027815499 0.8233917853828217 12.095371456622559 0.8229638669036237 C 12.084077129278002 0.8201157195009702 12.077226141353595 0.8086554272009533 12.080064609727001 0.7973586634570126 C 12.098501223984117 0.7219121746714574 12.160419468704427 0.6649023540444343 12.23712861592368 0.652745539156078 C 12.278118464371442 0.6474081799975276 12.3197078980399 0.6561059106109138 12.355123583674624 0.6774222022579225 C 12.365192676842385 0.6832891465360387 12.368600138366778 0.6962072677680694 12.362734800743095 0.7062772969112161 C 12.356867856464977 0.716346390078979 12.343949735232945 0.71975385160337 12.3338797060898 0.7138885139796868 C 12.306666787138639 0.6972261224043363 12.27456341173399 0.6903982583391556 12.242924958681924 0.6945439234637044 C 12.183207155617408 0.7042407091649041 12.135143554763134 0.7488323720853236 12.121004797655374 0.8076570200080693 C 12.118645753034741 0.8170330200779365 12.110216991067727 0.8236067587784827 12.10054877248429 0.8236110313863413 Z" fill="#225777" transform="matrix(1,0,0,1,0,0)" fill-rule="nonzero"></path></g></g></g><defs><clipPath id="SvgjsClipPath1002"><path d=" M 11.486431884765624 -0.04547459372952822 h 1.8982600469454618 v 1.954324187459056 h -1.8982600469454618 Z"></path></clipPath><clipPath id="SvgjsClipPath100087b41ebd-6afd-4fc1-82d5-cfb2df1adc0b"><path d=" M 11.486431884765624 -0.04547459372952822 L 13.384691931711085 -0.04547459372952822 L 13.384691931711085 1.9088495937295278 L 11.486431884765624 1.9088495937295278 Z"></path></clipPath></defs></svg>