<svg xmlns="http://www.w3.org/2000/svg" version="1.1" xmlns:xlink="http://www.w3.org/1999/xlink" xmlns:svgjs="http://svgjs.dev/svgjs" viewBox="0 0 8.401111946567116 8.39848179239966"><g transform="matrix(1,0,0,1,2.591251404868161,2.537098289875591)"><g><path d=" M -1.1269600188601636 0.9444324721819766 L -1.1419991388761213 0.938971257193934 L -1.1519495380390499 0.8491826746430418 L -1.6670393985856007 0.6621360613025835 L -1.7322845995024605 0.7246185689132628 L -1.7473237195184181 0.7191573539252203 L -1.651752457227673 0.4559727536459608 Q -1.611475996690859 0.3450592435282728 -1.5466535571701576 0.29253019123732626 Q -1.481831117649456 0.24000113894637987 -1.3944162325567018 0.2717444510643774 Q -1.3427192575018474 0.2905173775857737 -1.3155713175876844 0.3402716674351627 Q -1.2884233776735217 0.3900259572845516 -1.2872395851012568 0.45854492279882253 Q -1.286055792528992 0.5270638883130934 -1.3140445193427102 0.6041393783948765 L -1.3379373349153965 0.6699355284646914 L -1.1161103146800204 0.7504884495383195 L -1.0471105284588815 0.6776665469166692 L -1.0320714084429239 0.6831277619047118 L -1.1269600188601636 0.9444324721819766 M -1.6321401202275687 0.5631005102611085 L -1.3877544199682563 0.6518452538168004 L -1.3618136487750538 0.5804094337410014 Q -1.3348488997715937 0.5061537786622103 -1.3533272526536289 0.4515685198942335 Q -1.3718056055356638 0.3969832611262567 -1.4244425255915156 0.3778690086681077 Q -1.4902386756613306 0.3539761930954215 -1.5349073008144947 0.3861625866014686 Q -1.5795759259676587 0.41834898010751576 -1.608588630591635 0.498244305192291 L -1.6321401202275687 0.5631005102611085 M -0.8808754507523614 0.3164862101510977 L -0.8941776589103161 0.3075951327066906 L -0.8824220997428918 0.2180250102960274 L -1.3380227291528388 -0.08649439217491561 L -1.4162893291100362 -0.04137965698628793 L -1.4295915372679908 -0.05027073443069502 L -1.1506339824497183 -0.46762751538652236 L -1.0076352447517058 -0.372048432859146 L -1.016526322196113 -0.35874622470119144 L -1.14991872146906 -0.3697220078717275 L -1.2805064214337893 -0.17434582555176847 L -1.083467463094086 -0.0426467409064884 L -0.9912225346083624 -0.18065715054526799 L -1.0327188180835767 -0.2697360956318857 L -1.0238277406391696 -0.2830383037898403 L -0.840090990457421 -0.16023029658896737 L -0.8489820679018281 -0.14692808843101268 L -0.9454961940653932 -0.15009407183011858 L -1.0377411225511168 -0.012083662191338995 L -0.823243016004098 0.1312849615997254 L -0.6776516228519318 -0.08653869698678213 L -0.7507191456968785 -0.21476169455470362 L -0.7418280682524714 -0.2280639027126583 L -0.5863585104063764 -0.12414943508115034 L -0.8808754507523614 0.3164862101510977 M -0.4865356064223846 -0.24316731826706786 L -0.4972739723599157 -0.25502849430453023 L -0.46407268351409037 -0.33904441195693746 L -0.8318617168745317 -0.7452896912400231 L -0.9187548354080126 -0.7205796537749276 L -0.9294932013455438 -0.73244082981239 L -0.7234052676946354 -0.9190199379769934 Q -0.6455662999487888 -0.9894904644420415 -0.5715212956644714 -0.9978473382914803 Q -0.49747629138015415 -1.0062042121409192 -0.44646905317688124 -0.9498636259629729 Q -0.4088847723955223 -0.9083495098318546 -0.40819570702738045 -0.8509689801295381 Q -0.40750664165923867 -0.7935884504272217 -0.43803229776920427 -0.7349268418654363 L -0.11067189979098108 -0.6549445323492731 L -0.03617075390356678 -0.672482470126053 L -0.02543238796603564 -0.6606212940885906 L -0.14478547184300056 -0.5525664868421836 L -0.4911485371056403 -0.6490684403035948 L -0.5526783877999762 -0.593363167002652 L -0.3869048636393394 -0.4102562619243269 L -0.3037885382488111 -0.4301980886605068 L -0.29305017231127994 -0.41833691262304445 L -0.4865356064223846 -0.24316731826706786 M -0.7109558103616382 -0.8560992656020585 L -0.7546938969997807 -0.8165015412074126 L -0.5882492249680481 -0.6326533126267461 L -0.5400631973158573 -0.6762779242479663 Q -0.4941011401706907 -0.7178890922558994 -0.4879032877497613 -0.7713875653683947 Q -0.4817054353288319 -0.8248860384808899 -0.5186185682390951 -0.8656588311096668 Q -0.5568739968915499 -0.9079142707431265 -0.6079685810446451 -0.9054969436609419 Q -0.6590631651977404 -0.9030796165787573 -0.7109558103616382 -0.8560992656020585 M 0.23376349770737503 -0.7878820015542931 Q 0.17879097736251112 -0.757108278884887 0.13409951978506163 -0.7458422405571059 Q 0.08940806220761213 -0.7345762022293247 0.03716196573769236 -0.7316873609986864 L -0.052161676228984745 -0.8707782916369162 L -0.038200401220765345 -0.8785938402513687 L 0.06128974717991814 -0.8093716590432474 Q 0.105995718124093 -0.8011633606849642 0.1420135607658018 -0.8064278655464973 Q 0.17803140340751059 -0.8116923704080302 0.20769911279997683 -0.8283004112137415 Q 0.2583087347047721 -0.8566317749411313 0.2728860006011334 -0.8991729704930523 Q 0.2874632664974946 -0.9417141660449734 0.2620627335005244 -0.9870883098216864 Q 0.24203539017599024 -1.0228640770302486 0.21392510713185636 -1.035205551301124 Q 0.18581482408772249 -1.0475470255719994 0.14444046560135815 -1.0467331092115475 Q 0.10306610711499381 -1.0459191928510954 0.04411911715178196 -1.0427172599540784 Q -0.03444208150290293 -1.0377034723699123 -0.08591780171254675 -1.0518632827111023 Q -0.13739352192219056 -1.066023093052292 -0.1706096035336131 -1.1253585118372245 Q -0.18819458791613086 -1.1567713806057183 -0.1892882482874006 -1.194551056451235 Q -0.19038190865867022 -1.2323307322967516 -0.17714902041094555 -1.2701082476812133 Q -0.16391613216322087 -1.3078857630656748 -0.1394462323211659 -1.339920494244815 Q -0.11497633247911085 -1.3719552254239558 -0.08007314495856233 -1.3914940969600866 Q -0.039061899621917806 -1.4144522710150405 0.002087057259080427 -1.4248812377714237 Q 0.04323601414007866 -1.435310204527807 0.08839710921709587 -1.4365249026156501 L 0.17527839224175662 -1.3017968704174887 L 0.1613171172335372 -1.2939813218030363 L 0.06367649209767395 -1.3619468154235335 Q 0.023542147371153344 -1.3681302103949715 -0.004518114189639155 -1.3650283204646372 Q -0.03257837575043171 -1.3619264305343028 -0.061373505454884236 -1.3458068615169951 Q -0.09889443203947387 -1.3248025746156542 -0.10959727128416982 -1.2855763176937633 Q -0.12030011052886577 -1.2463500607718725 -0.09880735183912173 -1.207956554499269 Q -0.07487223420736139 -1.1652001497865971 -0.0345813436476515 -1.155666308068513 Q 0.005709546912058355 -1.1461324663504289 0.08067606292589555 -1.1514259979454127 Q 0.14719652607041323 -1.1554294942972112 0.1946079261396416 -1.151600768206777 Q 0.24201932620886998 -1.147772042116343 0.27471790929843853 -1.1282578763915527 Q 0.30741649238800706 -1.1087437106667624 0.332328553596574 -1.064242146578063 Q 0.3552867276515278 -1.0232309012414185 0.35542011827377135 -0.9820485967048593 Q 0.35555350889601495 -0.9408662921683002 0.33872593800744255 -0.9033685207946562 Q 0.3218983671188702 -0.8658707494210123 0.29440994648538316 -0.8361573394673149 Q 0.2669215258518961 -0.8064439295136174 0.23376349770737503 -0.7878820015542931 M 0.8806454246217835 -1.0519636662813134 Q 0.8111126088686649 -1.0332771060456023 0.7451018386627284 -1.0419418747568285 Q 0.6790910684567919 -1.0506066434680548 0.6233413239082953 -1.082738652163083 Q 0.5675915793597988 -1.1148706608581114 0.5273570359092146 -1.1682577521192306 Q 0.4871224924586305 -1.2216448433803495 0.46791686110526065 -1.2931091262377215 Q 0.44871122975189087 -1.3645734090950934 0.4567633639076391 -1.4309372782976786 Q 0.46481549806338734 -1.4973011475002638 0.49694750675841565 -1.5530508920487605 Q 0.5290795154534439 -1.6088006365972567 0.5818539721590851 -1.6493882790444898 Q 0.6346284288647261 -1.6899759214917225 0.7041612446178447 -1.7086624817274336 Q 0.7736940603709633 -1.7273490419631448 0.8397048305768998 -1.7186842732519185 Q 0.9057156007828364 -1.7100195045406923 0.9614653453313329 -1.6778874958456642 Q 1.0172150898798296 -1.6457554871506357 1.057932500106477 -1.5924981636689313 Q 1.0986499103331244 -1.5392408401872268 1.1178555416864944 -1.467776557329855 Q 1.137061173039864 -1.3963122744724832 1.1285261721080526 -1.3298186374904832 Q 1.119991171176241 -1.2633250005084835 1.0878591624812126 -1.2075752559599868 Q 1.0557271537861843 -1.1518255114114901 1.0029526970805431 -1.1112378689642575 Q 0.9501782403749022 -1.0706502265170248 0.8806454246217835 -1.0519636662813134 M 0.8869833177228504 -1.1054410550642324 Q 0.9458930644025759 -1.1212727241528209 0.9820116699178634 -1.1641148335270224 Q 1.0181302754331507 -1.206956942901224 1.028186285376343 -1.2697174134541318 Q 1.0382422953195352 -1.33247788400704 1.0177389861720187 -1.408770834625045 Q 0.9925640369655746 -1.5024469891813297 0.942844235282396 -1.5641575338279732 Q 0.8931244335992174 -1.6258680784746171 0.829627665879079 -1.6502229648240703 Q 0.7661308981589405 -1.6745778511735234 0.7014267501664552 -1.6571889687319588 Q 0.6425170034867297 -1.64135729964337 0.6053028966399009 -1.5987385214864025 Q 0.5680887897930721 -1.5561197433294351 0.5575499130738166 -1.4932295049971125 Q 0.5470110363545612 -1.43033926666479 0.5675143455020776 -1.3540463160467848 Q 0.5926892947085218 -1.2603701614905 0.6430217309471783 -1.1983065178472079 Q 0.6933541671858348 -1.1362428742039155 0.7573338016820366 -1.112017755633877 Q 0.8213134361782384 -1.0877926370638384 0.8869833177228504 -1.1054410550642324 M 1.3516558982865607 -1.1658817053852841 L 1.3520735674941755 -1.1818762529697895 L 1.434090137659772 -1.219748171567503 L 1.4483430993696287 -1.7655621078887527 L 1.3694667431170904 -1.8096361413361541 L 1.3698844123247051 -1.8256306889206595 L 1.5268309104976652 -1.8215323098209386 L 1.8974052560026031 -1.3406948586447778 L 1.9082646554005893 -1.7565530958419204 L 1.8063178240188964 -1.7982285511031733 L 1.8067354932265114 -1.8142230986876786 L 2.0596492769065042 -1.8076187043422687 L 2.0592316076988895 -1.7916241567577633 L 1.9782408010828008 -1.7547257930586055 L 1.9623171625424844 -1.1449336663993337 L 1.919331815909126 -1.1460561523947987 L 1.515839334131627 -1.6687671788224363 L 1.5040401790165074 -1.2169212095601565 L 1.6059870103982004 -1.1752457542989037 L 1.6055693411905854 -1.1592512067143983 L 1.3516558982865607 -1.1658817053852841 M 2.1263141369202185 -1.1320637248245853 L 2.1311403046851143 -1.147318498002351 L 2.2011599450876647 -1.1597784321072153 L 2.6319971982040182 -1.6695668797275542 L 2.6844354810025877 -1.6529769280357245 L 2.7417024527070444 -0.991913017394854 L 2.794722937917922 -0.9373802002293796 L 2.7898967701530264 -0.9221254270516139 L 2.5381930127198924 -1.0017571951723963 L 2.543019180484788 -1.017011968350162 L 2.6374776749482094 -1.023837861969597 L 2.6212187363561217 -1.2177750861321046 L 2.391443715366026 -1.290469238090849 L 2.2672477899020853 -1.139919006944712 L 2.3370797425849514 -1.0821652331762566 L 2.3322535748200557 -1.0669104599984909 L 2.1263141369202185 -1.1320637248245853 M 2.4299624035008938 -1.3359699047273808 L 2.6168333749285235 -1.276849349607406 L 2.596092041173453 -1.536184648157489 L 2.4299624035008938 -1.3359699047273808 M 2.8909594907645646 -0.862147077080979 L 2.8994666096554718 -0.8756980522553336 L 2.989336218702909 -0.866508200806004 L 3.2807050407164704 -1.3306291005276494 L 3.2333710261235673 -1.407573827848752 L 3.2418781450144745 -1.4211248030231067 L 3.4764794027204884 -1.273845307224281 L 3.4679722838295817 -1.2602943320499262 L 3.369633315298173 -1.2748011328060729 L 3.0777327983539298 -0.8098332971360303 L 3.278456618124057 -0.6838215985644718 L 3.430040598537505 -0.7917442416103845 L 3.4435915737118594 -0.7832371227194777 L 3.3228968244471178 -0.5909826624333216 L 2.8909594907645646 -0.862147077080979 M 3.431485573315861 -0.4927398409980784 L 3.4423996881316494 -0.5044395032918281 L 3.5296457444265874 -0.4777538205952865 L 3.903454176867341 -0.8784672541562124 L 3.8707786946513454 -0.9636512483215022 L 3.8816928094671335 -0.9753509106152518 L 4.076930923994081 -0.7932216196267825 L 4.066016809178293 -0.7815219573330328 L 3.979501981776714 -0.8075255078535876 L 3.6056935493359603 -0.40681207429266175 L 3.6376378026585967 -0.32231021230335866 L 3.6267236878428086 -0.310610550009609 L 3.431485573315861 -0.4927398409980784 M 3.809930996518938 -0.10482866588551745 L 3.822947127348124 -0.11413352151242043 L 3.914224355565915 -0.055231334720439895 L 4.360840344642367 -0.37450419341854857 L 4.2689548953267 -0.5030384853567624 L 4.104824863781873 -0.4729829909323794 L 4.0955200081549705 -0.4859991217615656 L 4.263102692580743 -0.6057991379579415 L 4.608545457729516 -0.12257528092440328 L 4.440962773303744 -0.00277526472802736 L 4.431657917676841 -0.01579139555721354 L 4.513788909009585 -0.16055154291380014 L 4.421321906217236 -0.2898993430288382 L 3.9747059171407844 0.02937351566927049 L 4.001484044689326 0.1356134887725901 L 3.988467913860139 0.14491834439949308 L 3.809930996518938 -0.10482866588551745 M 4.192161835564877 0.5297472898677874 L 4.207123844065457 0.524078224545479 L 4.276417357754889 0.5940668590554652 L 4.512068991639009 0.5047790802291077 L 4.715237811791768 0.1914670464389323 L 4.725645260680196 0.12015305757535255 L 4.740607269180774 0.11448399225304415 L 4.832020947502998 0.3557463793248816 L 4.817058939002418 0.36141544464719 L 4.7575293093430835 0.3059066778384919 L 4.753788807217939 0.30732394416906905 L 4.591137589306003 0.5582314596239955 L 4.872258370037773 0.6228155647951599 L 4.875998872162918 0.6213982984645827 L 4.884379089704831 0.5390892955915664 L 4.89934109820541 0.533420230269258 L 4.975873480056574 0.7354073450270754 L 4.9609114715559945 0.7410764103493838 L 4.907021751151673 0.6919856980430424 L 4.5498530417653 0.6016778189002273 L 4.313266282349893 0.6913199143092291 L 4.307749753536431 0.7896538754307574 L 4.292787745035851 0.7953229407530658 L 4.192161835564877 0.5297472898677874" fill="#173054" fill-rule="nonzero"></path></g><g><path d=" M -1.870417400906197 1.9843686726157768 L -1.8546479683205839 1.981662199647538 L -1.8016920220153585 2.053743180155007 L -1.2615889559581124 1.9610464809928356 L -1.2356977393352726 1.875433135644174 L -1.2199283067496596 1.8727266626759356 L -1.1762864301368126 2.1270087631189454 Q -1.158525201282747 2.230495664462031 -1.1911644952137301 2.297482054808779 Q -1.2238037891447133 2.3644684451555267 -1.2987085939263754 2.37732419175466 Q -1.3539016079760209 2.3867968471434953 -1.4041882156543237 2.356871822695578 Q -1.4544748233326266 2.3269467982476604 -1.4878001199868849 2.268745212333652 L -1.7286690551274773 2.502863037550437 L -1.7529860774511223 2.5740015111446275 L -1.7687555100367354 2.5767079841128657 L -1.7931137667508825 2.4347830908423487 L -1.5272961219007286 2.1923248889057727 L -1.5430274960286154 2.100665062001897 L -1.7854825220324155 2.1422770838885654 L -1.8132051009944306 2.2231316361147377 L -1.8289745335800436 2.225838109082976 L -1.870417400906197 1.9843686726157768 M -1.2343844095417 2.113643704605447 L -1.2453794559751694 2.049580384726394 L -1.4888200715155706 2.091361561173577 L -1.476810097719012 2.161338418272235 Q -1.4661533604065724 2.223430559078086 -1.4241450175958748 2.2583275379487406 Q -1.382136674785177 2.2932245168193948 -1.3279292502721323 2.283921015991075 Q -1.2727362362224868 2.27444836060224 -1.2476399132640716 2.228541666384872 Q -1.2225435903056563 2.182634972167504 -1.2343844095417 2.113643704605447 M -1.6922175689954602 2.802615938585754 L -1.677536546477045 2.796254525392619 L -1.609026924215332 2.853756105001856 L -1.1062019029596208 2.635877703136977 L -1.1013064126292593 2.5465690575620643 L -1.0866253901108442 2.5402076443689294 L -0.8922046993956515 2.9888963950879854 L -1.050025691468612 3.057281586914188 L -1.0563871046617472 3.0426005643957734 L -0.9736826036192366 2.9391937681621148 L -1.0695013898408348 2.7180608664784898 L -1.2869640358948558 2.812289299401804 L -1.219374020717795 2.9682751636599627 L -1.1233368001749702 2.981153528090621 L -1.116975386981835 2.995834550609036 L -1.3179218827026393 3.082906393690073 L -1.3242832958957744 3.0682253711716583 L -1.2698400356248463 2.990142521511365 L -1.337430050801907 2.834156657253206 L -1.574161538911348 2.9367344449925104 L -1.4672102796017632 3.1835591360833613 L -1.3260291872384462 3.189954381121709 L -1.3196677740453109 3.204635403640124 L -1.4866644051922806 3.2769964787120363 L -1.6922175689954602 2.802615938585754 M -1.226554649186893 3.6993245160527737 Q -1.262816044601511 3.6490342465905337 -1.2786370430533307 3.6074296073301393 Q -1.29445804150515 3.5658249680697454 -1.302705589754197 3.5150610246858864 L -1.1755283278564357 3.411032451417826 L -1.1661705483945988 3.4240105854725975 L -1.2234924869055854 3.525751409950005 Q -1.2267714844691493 3.5724980480641855 -1.2178365037214594 3.6079722093515003 Q -1.2089015229737696 3.6434463706388147 -1.1884313804010014 3.6718360388836278 Q -1.1539245686354778 3.719692908210598 -1.1091865831561367 3.728735178680467 Q -1.0644485976767957 3.7377774491503364 -1.0214585286203646 3.7067798046830016 Q -0.9857686599697426 3.68104591116295 -0.9768951192282757 3.6506072798745772 Q -0.9680215784868087 3.620168648586204 -0.9735519120048711 3.5791574865546427 Q -0.9790822455229335 3.538146324523081 -0.9880469718805932 3.4829681251927993 Q -0.9960682479675816 3.4308081872141525 -0.996712600403886 3.3905889777497955 Q -0.9973569528401904 3.350369768285438 -0.9825600254764836 3.3187422337531167 Q -0.9677630981127768 3.2871146992207954 -0.9304509627053084 3.2602110832680142 Q -0.9028724278389186 3.240325801911611 -0.8668603829701444 3.234701513123738 Q -0.8308483381013702 3.2290772243358647 -0.7926847589067577 3.2366957033872596 Q -0.7545211797121452 3.244314182438654 -0.7211860391656346 3.2640440685190244 Q -0.6878508986191239 3.2837739545993943 -0.6656261723972612 3.314597022979477 Q -0.6387225564444801 3.3519091583869454 -0.6248354361689082 3.3899768335254645 Q -0.6109483158933363 3.4280445086639832 -0.6031916735908438 3.4729982015066314 L -0.7271244019749121 3.5746873299092328 L -0.736482181436749 3.561709195854461 L -0.6782167926550913 3.462986632728688 Q -0.6775974673888555 3.41939057285839 -0.6834758251624733 3.391575201031191 Q -0.6893541829360912 3.3637598292039916 -0.7092394642924946 3.336181294337602 Q -0.7349733578125461 3.30049142568698 -0.7759759038316398 3.2949199608928623 Q -0.8169784498507338 3.2893484960987442 -0.8526683185013557 3.3150823896187958 Q -0.8940361208009404 3.344910311653401 -0.8990227243786933 3.386723991050918 Q -0.9040093279564464 3.428537670448435 -0.8913647557859125 3.5007880323480416 Q -0.8800222229403561 3.5678130049228027 -0.8778965366519209 3.614361167698611 Q -0.8757708503634859 3.6609093304744196 -0.8914258887405211 3.6956212848044996 Q -0.9070809271175563 3.7303332391345796 -0.9484487294171409 3.7601611611691848 Q -0.9865719982030325 3.7876496383383307 -1.0270644574643533 3.792189543950817 Q -1.067556916725674 3.7967294495633026 -1.105447246123323 3.7852154173357264 Q -1.1433375755209718 3.7737013851081502 -1.1750034716757307 3.750302218013657 Q -1.2066693678304896 3.726903050919163 -1.226554649186893 3.6993245160527737 M -0.9099617616349609 4.078637436237396 L -0.8992886832102195 4.066717478312163 L -0.8130061975222023 4.090282975622789 L -0.44745326147480635 3.6820244166835687 L -0.48037035503911624 3.5988591297467796 L -0.4696972766143747 3.586939171821547 L -0.1053935625244502 3.9131351311777083 L -0.22012915559042123 4.04127467887396 L -0.23204911351565394 4.030601600449218 L -0.2001920644950086 3.902078729225081 L -0.3797364307438261 3.7413154854524127 L -0.5378314049103093 3.917879862219922 L -0.4111818519547119 4.0312813204828 L -0.3185653891100133 4.002799908822973 L -0.3066454311847806 4.013472987247714 L -0.45273319212342966 4.176627411349337 L -0.4646531500486623 4.165954332924596 L -0.4478705590397607 4.072256175850788 L -0.5745201119953582 3.958854717587909 L -0.7466235015943147 4.151064039132287 L -0.5462192089763398 4.330505170148252 L -0.4153118120196776 4.2772486830125915 L -0.4033918540944449 4.287921761437333 L -0.5247981211758792 4.423511282836855 L -0.9099617616349609 4.078637436237396 M -0.2904010768167451 4.598132111028504 L -0.2830759401709443 4.583907401079956 L -0.2110690060447845 4.583869483394277 L 0.29854411399532976 4.153420336707958 L 0.3385511107256236 4.174022283524272 L 0.28194599467302417 4.834377385599415 L 0.3250304101295207 4.897056992687941 L 0.3177052734837199 4.91128170263649 L 0.09722226928121214 4.797742084626577 L 0.10454740592701295 4.783517374678028 L 0.19834922601635863 4.793578117589266 L 0.21636779059960787 4.594768330781978 L 0.00033000825602158557 4.483517817973878 L -0.15015616772308915 4.614112269767146 L -0.09104235586553427 4.682796745798266 L -0.09836749251133511 4.697021455746816 L -0.2904010768167451 4.598132111028504 M 0.04595818602700097 4.4451502614540805 L 0.22198897164029352 4.535798827445865 L 0.24659755476283496 4.271769628991033 L 0.04595818602700097 4.4451502614540805 M 0.5920927937856854 5.000228669249229 L 0.5955722166599182 4.984611575522729 L 0.6823562424779972 4.962965955577646 L 0.8015264759204743 4.428080495445044 L 0.7321395644735599 4.371640646757631 L 0.7356189873477927 4.3560235530311315 L 0.9874446236875946 4.412129246878137 Q 1.0899318012677464 4.43496295949029 1.1395242559817513 4.490578500802403 Q 1.1891167106957563 4.546194042114517 1.17258945204315 4.620375237315389 Q 1.1604114719833347 4.675035065358136 1.1136437295139385 4.71020647795866 Q 1.0668759870445423 4.745377890559182 1.0003820101147414 4.754127235223733 L 1.1255974896067638 5.065816316995269 L 1.1821892997615495 5.115307397236103 L 1.1787098768873165 5.130924490962602 L 1.0381560333488227 5.0996096850945065 L 0.9146903425958038 4.761672970298851 L 0.8239159853105265 4.741448824842372 L 0.7704198586191955 4.9815616408873 L 0.8347089643469393 5.037890238284421 L 0.8312295414727064 5.05350733201092 L 0.5920927937856854 5.000228669249229 M 0.9530345353255761 4.460811336181269 L 0.8895900920616726 4.4466761807546975 L 0.8358765014407021 4.687765065157531 L 0.9051773548520429 4.70320500416194 Q 0.966669661400134 4.716905231729232 1.014896467755446 4.691279558103603 Q 1.0631232741107577 4.665653884477974 1.0750837902409334 4.611970124793133 Q 1.0872617703007486 4.5573102967503845 1.0543105453398796 4.5166720540032115 Q 1.0213593203790108 4.476033811256038 0.9530345353255761 4.460811336181269 M 1.760818240499487 5.148262422970096 Q 1.6588732739869179 5.1516126174049255 1.583533708416399 5.112065811470116 Q 1.5081941428458798 5.072519005535307 1.4658344589534495 5.001371924214051 Q 1.4234747750610195 4.930224842892795 1.4204201860174988 4.8372750204842765 Q 1.4180881879305098 4.76631332810788 1.443454845166286 4.700944889999855 Q 1.4688215024020623 4.635576451891831 1.5146536218883915 4.584043289526313 Q 1.5604857413747206 4.532510127160794 1.6219995136141865 4.501472958719213 Q 1.6835132858536526 4.470435790277631 1.753475517774043 4.468136637234121 Q 1.8034485405743221 4.4664943850601855 1.8386431493171291 4.471841301502467 Q 1.8738377580599361 4.4771882179447475 1.901667793556616 4.4867793140371415 Q 1.9294978290532958 4.496370410129535 1.9579425524301541 4.5094431952962095 L 1.9686877373189575 4.6841845498797925 L 1.950697449110857 4.68477576066241 L 1.8857232659901133 4.56484513268193 Q 1.8468569524879759 4.539107812021971 1.8179781889700721 4.528050370289047 Q 1.7890994254521686 4.516992928556124 1.7531188490359677 4.518175350121358 Q 1.6811576962035661 4.520540193251826 1.6258706020044846 4.558376514624573 Q 1.5705835078054031 4.596212835997322 1.5401538582026417 4.659746578410729 Q 1.50972420859988 4.723280320824136 1.5123846571216562 4.804236617760588 Q 1.5155049362521342 4.899185361081118 1.5492049810511235 4.965614322991915 Q 1.5829050258501127 5.032043284902712 1.6375421592899055 5.065766921264799 Q 1.6921792927296986 5.099490557626885 1.7571442223700613 5.097355629800769 Q 1.8121145474503682 5.09554915240944 1.8490852163766571 5.078825826210901 Q 1.8860558853029463 5.0621025000123625 1.9144161827010127 5.042160245087374 L 1.9708693904091246 4.933247273686054 L 1.9878602181612195 4.932688907946916 L 1.982088515058274 5.091964415930069 Q 1.953596837486293 5.107908829031035 1.9234745890563887 5.119904667873198 Q 1.8933523406264845 5.131900506715359 1.854570453103139 5.139178226147063 Q 1.8157885655797938 5.146455945578767 1.760818240499487 5.148262422970096 M 2.3530596200930414 5.077950248530417 L 2.348157621848474 5.0627196735836115 L 2.4120555009710842 5.000133244993762 L 2.244162061094662 4.478486053065671 L 2.155754190749217 4.464919606921493 L 2.1508521925046495 4.449689031974687 L 2.3888299260484867 4.373095309403327 L 2.3937319242930535 4.388325884350133 L 2.3298340451704433 4.450912312939981 L 2.4021385192778077 4.6755632934053635 L 2.725788236897426 4.571395830708314 L 2.653483762790062 4.346744850242931 L 2.565075892444616 4.333178404098753 L 2.560173894200049 4.317947829151947 L 2.798151627743886 4.241354106580586 L 2.8030536259884533 4.256584681527392 L 2.739155746865843 4.319171110117241 L 2.907049186742265 4.840818302045332 L 2.9954570570877106 4.854384748189511 L 3.000359055332278 4.869615323136316 L 2.7623813217884408 4.946209045707676 L 2.757479323543874 4.930978470760871 L 2.821377202666484 4.868392042171021 L 2.7426388558631256 4.623750932087957 L 2.418989138243507 4.727918394785008 L 2.4977274850468656 4.972559504868072 L 2.586135355392311 4.986125951012251 L 2.591037353636878 5.001356525959056 L 2.3530596200930414 5.077950248530417 M 3.8585874223322905 4.331112968722072 Q 3.8011836938569203 4.379381094406897 3.738388685390464 4.395599507143588 Q 3.6755936769240076 4.41181791988028 3.611921515314344 4.388924561979945 Q 3.5482493537046795 4.3660312040796105 3.4883968778554975 4.294850580770151 L 3.2644327746779123 4.0284972806444355 L 3.1774591306056115 4.049367959521383 L 3.1671619304595153 4.037121830779972 L 3.358507692044082 3.8762280784972236 L 3.3688048921901776 3.8884742072386356 L 3.3333172488483562 3.970575529822646 L 3.5476277268889764 4.225448084253288 Q 3.601044452646849 4.288974877099364 3.6524795872990623 4.309745696132533 Q 3.703914721951276 4.330516515165702 3.7514893427050793 4.317950471232477 Q 3.799063963458883 4.305384427299251 3.8411600310074876 4.269987801797047 Q 3.8748368850463715 4.241670501395284 3.8913108241105676 4.202994160672444 Q 3.9077847631747638 4.164317819949605 3.898619306343004 4.118456677344288 Q 3.889453849511244 4.072595534738973 3.8456907488903367 4.020549487587971 L 3.60756799551187 3.737357760442812 L 3.5065738405310656 3.7726307055950574 L 3.4962766403849694 3.760384576853645 L 3.686857018923198 3.600134399580028 L 3.6971542190692936 3.6123805283214403 L 3.661788383764679 3.693072892849981 L 3.8863960619513955 3.9601915760220354 Q 3.9462485378005776 4.031372199331495 3.95787465225924 4.098028657852737 Q 3.9695007667179016 4.164685116373978 3.942745958762781 4.223764979705614 Q 3.91599115080766 4.282844843037248 3.8585874223322905 4.331112968722072 M 4.336053060487396 3.8518251647654917 L 4.32268800835751 3.8430288370336814 L 4.333257016691844 3.754212757054723 L 3.877174612759463 3.4540380732067004 L 3.7986594827426976 3.496937657802014 L 3.785294430612811 3.4881413300702038 L 3.8661106916488173 3.3653499136268703 L 4.477074580142384 3.310149125980132 L 4.121230067184152 3.0759469001206865 L 4.034511020051858 3.1385871975694286 L 4.021145967921972 3.1297908698376187 L 4.158038818248268 2.921797246066258 L 4.171403870378154 2.930593573798068 L 4.16054931676894 3.0180245675356705 L 4.670091929220868 3.3533845623109335 L 4.649750421341057 3.3842912453612963 L 3.987495701784273 3.4428462316969264 L 4.372576266276631 3.696290424469707 L 4.460130629167044 3.6341998975042027 L 4.473495681296931 3.642996225236013 L 4.336053060487396 3.8518251647654917 M 4.816964976943856 3.0235733238185882 L 4.802030289544563 3.0178326694756246 L 4.793396842761148 2.9288075966217484 L 4.281883799335351 2.7321901853752393 L 4.215843809122299 2.7925119865142967 L 4.200909121723006 2.786771332171333 L 4.290606845831815 2.5534168415573744 L 4.305541533231108 2.5591574959003385 L 4.314174980014522 2.648182568754214 L 4.825688023440319 2.8447999800007233 L 4.891728013653371 2.784478178861666 L 4.906662701052665 2.79021883320463 L 4.816964976943856 3.0235733238185882 M 5.017394257620004 2.396836924936685 L 5.001631117201741 2.394094042483106 L 4.979366281490956 2.28871720873502 L 4.438493525889338 2.1946020545465874 L 4.4105504108935 2.3551890475576323 L 4.543717013058572 2.4473826268775043 L 4.540974130604994 2.4631457672957664 L 4.341964482824435 2.42851687631933 L 4.442079692380071 1.8531622510527639 L 4.64108934016063 1.8877911420292 L 4.638346457707051 1.903554282447462 L 4.4818653546865574 1.945347396682818 L 4.45392223969072 2.105934389693863 L 4.994794995292338 2.200049543882296 L 5.051345861672862 2.108387122402106 L 5.067109002091125 2.111130004855685 L 5.017394257620004 2.396836924936685" fill="#225777" fill-rule="nonzero"></path></g><g clip-path="url(#SvgjsClipPath1001)"><g clip-path="url(#SvgjsClipPath100080cbd73e-5621-48a7-a6f9-b622edeb2ba5)"><path d=" M 0.7934207550156162 3.3131625058837613 C 0.7654994169966701 3.3131625058837613 0.7373634217663018 3.3118427615468753 0.7090127693245133 3.309203272873101 C 0.6218595505656193 3.3015812964047946 0.5355161702829007 3.2865324455395126 0.4509232487923165 3.2642206616797083 C 0.40531238453850377 3.251332971249097 0.3679476722470533 3.2185599825131597 0.3492234321811663 3.175018664933528 C 0.3316131598253811 3.134592685670984 0.3334671301092405 3.0883312944647487 0.35425595124893167 3.049444196252076 C 0.35987221143958725 3.038695244627936 0.3673221809583532 3.0290094771062495 0.3762702408202492 3.0208232347292348 C 0.43112708373902253 2.971762136518838 0.4437203068090709 2.90738882389372 0.4242103513710022 2.8734968352904247 C 0.414197554970439 2.8580552264001335 0.39915830056393886 2.8465461947366717 0.3816366711057808 2.8409166407569275 C 0.32275206598765777 2.8195357735898234 0.2893790036460788 2.7572798053855054 0.3041692685839648 2.6964046358678644 C 0.31125764056419736 2.6708238872067938 0.32503034790321383 2.647592219477742 0.34407165910705595 2.6290976746866557 C 0.30900139369720997 2.6085926962033232 0.28654728718283146 2.571870782877053 0.28427770032559235 2.5313093894836247 C 0.28191305463655564 2.5017889988882804 0.28988048289249674 2.472364316757873 0.3068167075248275 2.448070093054702 C 0.31948624355366184 2.428913784219748 0.32623063439731137 2.4064490727749726 0.32620740895655 2.3834821232181653 L 0.33026204517228525 2.254139227936204 L 0.035776201903548396 2.254139227936204 C 0.023481317864019243 2.254148588213496 0.012042954116864924 2.247843978274117 0.005485684291877794 2.2374436670478803 C -0.001057089958537603 2.2270429181035403 -0.0018045317097860273 2.214012216729378 0.0035060677865465695 2.2029315576115898 C 0.04834557417232794 2.1094841182395236 0.10265384866191375 2.0133892399265942 0.15519716385759075 1.920490368983717 C 0.18102758163195234 1.8747922337522493 0.2068818502075827 1.8290702477195175 0.23168668352737665 1.7835629188982047 C 0.28252001608776073 1.6905422512033996 0.31267060566747307 1.58764299135337 0.32007775303040836 1.4818979844474842 L 0.3202685594405609 1.4793459487117024 C 0.32221552604082365 1.4519086879131031 0.3213443925083603 1.4243441048537682 0.31766882210223574 1.3970845351348158 C 0.2558236944116369 0.9376465502894491 0.46029661369104696 0.5230003702273298 0.8786873695524051 0.2594013146019887 C 1.4057900775980106 -0.07253028665913032 2.1323570366565305 -0.08781865027257998 2.6064871150836155 0.22314809667305904 C 3.0436246007424326 0.5098108771255553 3.2832058994898587 1.0282080427079634 3.2027571468094136 1.513070981706112 C 3.166241570066526 1.7329515186053193 3.0713153810157787 1.934371535322293 2.9794897961300055 2.12913717848521 C 2.937631639902855 2.217933711609814 2.894318584798293 2.309783147296856 2.857636052446521 2.401417925772479 C 2.8002748753945 2.5445227333866702 2.7713677042564338 2.9304286979196066 2.7687918177193778 3.2283490565710857 C 2.7686216200410234 3.2479865142882605 2.7526538110562218 3.2638159355951966 2.73301561581583 3.2638151980581322 L 2.732681704598063 3.2638151980581322 C 2.712932087742799 3.2636316095044853 2.697067389887973 3.247478656708826 2.697239413912282 3.227728935738093 C 2.6999584052569516 2.9131368669995568 2.730081967259739 2.5273978580755063 2.791211570912268 2.3748242823575083 C 2.828705030507186 2.281209887376559 2.8724474000345905 2.188382568837486 2.9147587214858537 2.098608152860848 C 3.0044854358599515 1.9082787587339736 3.0972889035977547 1.7114380958606552 3.132182625854348 1.5013125366804825 C 3.208147427896215 1.0439734223467956 2.981183203020107 0.554435726299912 2.5673718010024036 0.28294205545452383 C 2.1155183709605936 -0.013332597909391794 1.4214123524292264 0.0021942737167502035 0.9168963531853938 0.3199346482227946 C 0.6855435808757845 0.46566304397657865 0.30932104165807517 0.7980955120643465 0.38867265748014385 1.387472662223394 C 0.3929927777119411 1.4196020783729013 0.3940077672645864 1.4520897361012863 0.3917017092413115 1.484426169382011 L 0.3915347536324278 1.4870497575216037 C 0.38336982421395244 1.6029615110494804 0.35030004792990466 1.7157485660069312 0.29458124647381306 1.8177172663154662 C 0.2695856067438678 1.8635585063545441 0.24358823336062246 1.9096144036050433 0.21754315837484078 1.9556225992530074 C 0.17525568772484695 2.030418712032692 0.13179952781267057 2.1073136953240517 0.09351899177587446 2.1825391225265762 L 0.3671592347354786 2.1825391225265762 C 0.37684053542233925 2.1825395270341734 0.3861083624267401 2.186463509498431 0.39284654770222527 2.193415087905259 C 0.39958477457314284 2.2003693015359334 0.4032162891121618 2.2097578853323077 0.402911585837756 2.2194363120897695 L 0.39771211116110805 2.3856763969349246 C 0.39745197320602016 2.423163189702685 0.385807235701525 2.4596860771185693 0.3643209893844635 2.490405265307245 C 0.3572160612462273 2.5014773820206595 0.35414177895909493 2.5146588937449423 0.35561544692126673 2.5277317692932786 C 0.35764110690786877 2.5496969428451246 0.37326448808060625 2.5680133518239194 0.3946353577974017 2.5734776061272813 L 0.4439588148217609 2.587311070863322 C 0.46008493932247024 2.591842884667386 0.4709077430953734 2.6069571481780787 0.47000388980754376 2.6236835427985956 C 0.46911450657666476 2.6404318262521604 0.4567096764983356 2.6543141300968114 0.44016653741998446 2.6570746645752426 C 0.4089222334499395 2.6614080419917614 0.38297440787806275 2.68336246563239 0.3735273986743103 2.713457958775231 C 0.3678344081247579 2.7392352566154914 0.382278657970495 2.7652062430496755 0.40718087926491364 2.773967441594766 C 0.44004674624635803 2.7854548651671314 0.46792953056201186 2.807953213345674 0.48610318066414093 2.837649080983078 C 0.5258624663796171 2.906816404663272 0.4996981373874881 3.0061549919487915 0.42382873855069836 3.0740343723604533 C 0.42109502300193524 3.0766972444963123 0.4188293104333806 3.0798015126062523 0.4171266633941004 3.0832169308490305 C 0.4065623707430671 3.1029305478420053 0.4057516622260371 3.126432282786792 0.4149323896773491 3.1468270178335405 C 0.42505191252761826 3.170386124128988 0.44525969869553317 3.188122706611149 0.4699323374037374 3.1951010396020587 C 0.550426908907455 3.216434704978347 0.6326243402996965 3.230727481640823 0.7155955904747651 3.2378178246748948 C 1.1543766697590374 3.2781211207864844 1.5488947934943407 2.970376724189828 1.6166073100149851 2.5349824128790686 C 1.6196889910575738 2.515489977956155 1.6379280549919342 2.502140943429429 1.657439881787567 2.5050973588889685 C 1.666818080143197 2.5065481440991952 1.6752356609612828 2.5116654793253357 1.6808403777047822 2.5193233205582772 C 1.6864450944482827 2.526981161791214 1.6887777070493637 2.5365520397602936 1.6873249357776638 2.5459299306615506 C 1.6186858165720057 2.9867622419606987 1.239563614920558 3.312160544549443 0.7934207550156162 3.3131625058837613 Z" fill="#225777" transform="matrix(1,0,0,1,0,0)" fill-rule="nonzero"></path></g><g clip-path="url(#SvgjsClipPath100080cbd73e-5621-48a7-a6f9-b622edeb2ba5)"><path d=" M 0.607289101912091 2.657718636209495 L 0.43439464351287904 2.657718636209495 C 0.4146359927946824 2.657718636209495 0.3986184416093307 2.641701085024144 0.3986184416093307 2.6219424343059474 C 0.3986184416093307 2.602183783587751 0.4146359927946824 2.5861662324024004 0.43439464351287904 2.5861662324024004 L 0.607289101912091 2.5861662324024004 C 0.6270477526302888 2.5861662324024004 0.6430653038156393 2.602183783587751 0.6430653038156393 2.6219424343059474 C 0.6430653038156393 2.641701085024144 0.6270477526302888 2.657718636209495 0.607289101912091 2.657718636209495 Z" fill="#225777" transform="matrix(1,0,0,1,0,0)" fill-rule="nonzero"></path></g><g clip-path="url(#SvgjsClipPath100080cbd73e-5621-48a7-a6f9-b622edeb2ba5)"><path d=" M 0.8790451315714413 1.2521193650216371 C 0.8664100633716646 1.252130580541254 0.8547060528580389 1.2454762476853285 0.8482537471331207 1.2346128768901683 C 0.8381876285005272 1.2176677173308554 0.8437226686473435 1.1957728475400797 0.8606323129917489 1.1856471818848442 C 0.8662372512899718 1.1822365173033704 0.9826530122841164 1.1087283477922159 0.9360008450018897 0.9537219903447752 C 0.9302935786342957 0.9348277351580901 0.940966086681108 0.9148808176185986 0.9598516462709212 0.9091448427729584 C 0.9787459014576075 0.9034375764053633 0.9986928189970989 0.9141100844521743 1.0044287938427432 0.9329956440419876 C 1.045070832493825 1.0499029076255397 1.000792871807944 1.1794602205924267 0.8971001881320987 1.2470391443513285 C 0.8916463036223601 1.2503210105167828 0.8854101606340923 1.2520756980418837 0.8790451315714413 1.2521193650216371 Z" fill="#225777" transform="matrix(1,0,0,1,0,0)" fill-rule="nonzero"></path></g><g clip-path="url(#SvgjsClipPath100080cbd73e-5621-48a7-a6f9-b622edeb2ba5)"><path d=" M 2.6087529412041746 1.8525394361682463 C 2.5881888718052686 1.8525386720245802 2.567658348645514 1.850879639850056 2.547360978737686 1.8475784695042885 C 2.515956644444869 1.842517152448731 2.4852984641694635 1.8335928742081253 2.456083962281101 1.8210086768905847 C 2.4313744990421147 1.810190139107107 2.4089893184171496 1.794697067278033 2.3901603475734965 1.775382094062928 C 2.3782349469389805 1.7639337094537924 2.375182044376545 1.7617394357370397 2.371079706558271 1.7614770769230832 C 2.366977368739997 1.7612147181091244 2.3648546474270535 1.7619540929484634 2.3518082591328935 1.7723768931030304 C 2.336395371350328 1.7854819842675482 2.319070583900862 1.7961551471948642 2.300433633199398 1.804026906387036 C 2.2207242553582938 1.836607100920533 2.1406332646968846 1.804026906387036 2.114397383300949 1.7931747918096241 C 2.109174057823031 1.7910520704966804 1.9850306372177198 1.7392004285378047 1.945342903906051 1.610525355691378 C 1.906489948638798 1.484664677394694 1.9652583229656928 1.338817027634564 2.088280755911359 1.255840090019605 C 2.1046302687988163 1.244774344268262 2.1268532171122194 1.2490438828491282 2.1379381241534836 1.2653804105272157 C 2.1490038699048264 1.2817299234146737 2.1447343313239617 1.3039528717280764 2.1283978036458704 1.315037778769341 C 2.0313250424809106 1.3805559298553713 1.984195859173304 1.4933463690566244 2.013913957554517 1.589321993363208 C 2.036312679681569 1.6504501032872414 2.082345819445277 1.7000070644294256 2.141658849151452 1.7268457134804487 C 2.1612880585958654 1.734835731905573 2.2209389125697143 1.7592828032063286 2.2735776309704674 1.7376978280578559 C 2.285893840818835 1.7323867634896613 2.297304862888336 1.7251844611256277 2.307398067169955 1.716351360922073 C 2.3256798578767186 1.6984507377302556 2.350548295868954 1.688903881631882 2.376112225626037 1.689972374718524 C 2.400752880824764 1.692774127145566 2.423423676517095 1.7047868373771293 2.4395792078029315 1.7236020045078608 C 2.4523061756019358 1.737012474615901 2.4675510342650013 1.7477835629536018 2.4844425649899806 1.7552997193944018 C 2.5082383819860903 1.7655669475761588 2.5332191857464657 1.7728336534807982 2.558809363346823 1.7769323961454166 C 2.705339910908516 1.7987312683433088 2.8477037498741518 1.717212830692557 2.903071828864029 1.5798055236568638 C 2.9568206450530377 1.4398110384033052 2.9051950614165523 1.2813028868333476 2.779310021079023 1.19981455783865 C 2.770914266388102 1.1944295205182152 2.7651477358238155 1.1857840474083423 2.7634015366325784 1.1759637565696186 C 2.761663502282978 1.1661241734713506 2.7641195128994496 1.1560061015654652 2.770175164192983 1.1480583190848495 C 2.809362633328336 1.0971480741912736 2.831855017516166 1.0353689922887026 2.8345723276193686 0.9711807768737086 C 2.839776577736241 0.8458080282456086 2.7705881560038015 0.7291507393326844 2.658076398228533 0.6735943294400012 C 2.5969207345965635 0.6436680177869085 2.527700610231614 0.6344107677811484 2.4608302717336383 0.6472153432364498 C 2.450635634644024 0.6491227448074022 2.4401149824344555 0.6465121611325718 2.4319946529993786 0.6400601028557418 C 2.4238606822394058 0.6336398959292663 2.418910023779822 0.624008298539532 2.4184235470773 0.6136572658509238 C 2.4145256479116006 0.5266687737959946 2.355402432539368 0.4519337246603744 2.271645716067677 0.4281218827791237 C 2.1816650387719636 0.4023618830603072 2.085781966380595 0.44186057405572066 2.0400544357453767 0.5235250878552521 C 2.0334102806395795 0.5352745523936951 2.020718850760805 0.5422843537802249 2.0072357331991886 0.5416516968197157 C 1.993755748777495 0.5410406896728738 1.9817663110617079 0.5328970946705337 1.9762296915494473 0.5205914392991606 C 1.9387057862093922 0.43659606907749476 1.865901026666348 0.37353820392624953 1.7774094121707964 0.3483886541367478 C 1.6979766562286944 0.32556306315705213 1.612714048083135 0.33545654871141234 1.5406186571718476 0.37586477719867434 C 1.4683686515736 0.415919115309074 1.4151272441860998 0.48319220974031124 1.3927436893038498 0.5627119543402684 C 1.3894782762610929 0.5744779194640186 1.3868980568359144 0.5864233797657681 1.385016029692683 0.5984881562438135 C 1.383118218017489 0.6101942479488266 1.3755430312436987 0.6201992116123228 1.3647905502165436 0.6252010536651323 C 1.3540527957644544 0.6301429775296529 1.341573560916006 0.629501188308876 1.3313994284398987 0.6234837959737645 C 1.2907338685251515 0.5984182647507205 1.242158055944112 0.5894841951745936 1.1952352039949958 0.5984404546412805 C 1.1621803748609716 0.604160957092372 1.1309454914578714 0.6176127148321687 1.1040774415447558 0.6376988735301056 C 1.088270520970198 0.6495540639610258 1.065845949310707 0.6463505537239571 1.0539907588797879 0.6305436331493974 C 1.0482976956665988 0.6229528821984779 1.0458532195751664 0.6134114680885123 1.0471950874430902 0.6040183930130502 C 1.048536955311013 0.5946253179375857 1.053555248309578 0.5861500136976192 1.0611459992604988 0.5804569504844295 C 1.09708394684681 0.5536163348052489 1.1388503238509238 0.5356382425710348 1.1830474445465207 0.5279851876925588 C 1.2305457123363468 0.5193012051629553 1.2795147396317599 0.5237799287306493 1.324649651680763 0.5409361727816433 C 1.352558460191157 0.44411034514817327 1.4177522833406349 0.3623178314994532 1.505915741325406 0.31351878268142774 C 1.5945582556665991 0.2637990613679439 1.6994164425494322 0.2516366111200629 1.7970863232177476 0.2797460480844759 C 1.8860723557293806 0.3049880390636223 1.9628673806576353 0.3616795655778136 2.0131984335164455 0.439284057773025 C 2.0830372666752672 0.36171732397999856 2.1910043255921874 0.3307836181364662 2.2913226271146274 0.35959853073319115 C 2.3910035778029135 0.38789104897462634 2.4661506514654112 0.47006440633993096 2.4854442986432788 0.5718706620275743 C 2.5555839899596813 0.565541978646385 2.626117555212361 0.5785417329252099 2.6893925002947703 0.609459524827569 C 2.8274988253463818 0.6777601472604623 2.9124066229148613 0.8210087534411704 2.9060293282213876 0.9749492034742118 C 2.902940675060716 1.0410091167934898 2.8829700590351512 1.1051745746980008 2.8480241795351016 1.161319364590428 C 2.9813446082106876 1.2669872675124347 3.03066069025658 1.4469566861710002 2.969830221616048 1.605826747841379 C 2.911653652639396 1.7544888735651947 2.7683928910067084 1.8523744220379166 2.6087529412041746 1.8525394361682463 Z" fill="#225777" transform="matrix(1,0,0,1,0,0)" fill-rule="nonzero"></path></g><g clip-path="url(#SvgjsClipPath100080cbd73e-5621-48a7-a6f9-b622edeb2ba5)"><path d=" M 2.1838986181989095 1.4755536713099282 L 2.1827060781354573 1.4755536713099282 C 2.1630003542509457 1.474918015525609 2.1475231246112436 1.4584594591272209 2.1480985654940925 1.4387518849518146 C 2.1483132227055135 1.4302609997000366 2.1506506012298785 1.24126725044423 1.9584369938027506 1.202795907997279 C 1.9390708600886772 1.1989239260685194 1.9265054227926774 1.1800917838508964 1.9303646007091 1.1607230945587064 C 1.9322237969997889 1.151417808956088 1.9377036387844817 1.143232328690076 1.9455984437258134 1.1379676344034193 C 1.9534932486671444 1.1327029401167623 1.963156208304561 1.1307903596044064 1.9724612649489408 1.132650701465056 C 2.1197199558912603 1.1602082502687965 2.224753457699026 1.2912188692369706 2.2196271184999192 1.4409461586685623 C 2.218996899581553 1.4602284671360233 2.203191216720602 1.4755382440594143 2.1838986181989095 1.4755536713099282 Z" fill="#225777" transform="matrix(1,0,0,1,0,0)" fill-rule="nonzero"></path></g><g clip-path="url(#SvgjsClipPath100080cbd73e-5621-48a7-a6f9-b622edeb2ba5)"><path d=" M 2.732777107803141 1.203320625625199 C 2.6148902360000448 1.200969288006759 2.503900187544478 1.1472860617760532 2.4288701980331373 1.0563281374041538 C 2.4119552971661107 1.036557097166809 2.3964309820758505 1.0156375247274179 2.382408837161062 0.993719784072946 C 2.364947109719898 0.9639707837707858 2.342446817055436 0.9374837104118311 2.315912803223001 0.9154414543079814 C 2.2642184873905027 0.8780754112386124 2.2036219726779844 0.8549322798052492 2.1401800994727735 0.8483252995369271 C 2.0787165846024784 0.8441991109173855 1.9630640492489433 0.864353037989718 1.9290051050367656 0.9038976664937729 C 1.922813741086135 0.9110921610692508 1.9140171425212795 0.9155314055671125 1.9045517207992388 0.9162381809130848 C 1.8950862990771986 0.9169449562590596 1.8857279735086836 0.9138613251889295 1.8785368095514938 0.9076660930942806 C 1.8635701797536834 0.8947749288357697 1.8618832429734296 0.8721934649735169 1.8747683829509871 0.8572216484102765 C 1.9346100433349878 0.7877204135123195 2.0854425105603456 0.7730521707318625 2.1449025581240426 0.7769160005374476 C 2.2220337068291713 0.7844757518340755 2.2957533820346105 0.8124684808600422 2.358462632686954 0.8580087248521528 C 2.3918030783612183 0.8847428264861953 2.420076875198709 0.9172415363939742 2.4419404371285665 0.9539604983574744 C 2.454192217260174 0.9731926216261634 2.4677389867898176 0.9915684160587266 2.4824867992859208 1.0089604460838604 C 2.5400864843506317 1.0739300287407043 2.637517007534628 1.1474381982518613 2.7739912923960284 1.1290492304734343 C 2.7935480526718037 1.1263916003091399 2.81156282281961 1.1400734340351368 2.8142514449381544 1.1596259577003314 C 2.81689197808103 1.179206637743163 2.8031598566278038 1.197220703755288 2.7835793145061793 1.1998622594411876 C 2.7667428983486526 1.2021621747837414 2.749769885991126 1.2033176145921165 2.7327771078031415 1.203320625625199 Z" fill="#225777" transform="matrix(1,0,0,1,0,0)" fill-rule="nonzero"></path></g><g clip-path="url(#SvgjsClipPath100080cbd73e-5621-48a7-a6f9-b622edeb2ba5)"><path d=" M 1.6815768926718273 1.1632751302944928 C 1.6645001387329381 1.1632557779091661 1.6498177117222612 1.1511702427507151 1.6465162148063508 1.1344156607589637 C 1.6446798436019041 1.1251041393129975 1.6466186567606012 1.115444513402697 1.6519059346073486 1.1075628014179524 C 1.6571932124540967 1.0996810894332054 1.6653956196892097 1.0942232615923277 1.6747078619063458 1.0923905489229286 C 1.696540436174335 1.0886234409584215 1.7160602708687815 1.0765336265659768 1.729159241203546 1.058665515928519 C 1.7384716707189607 1.0424012544881232 1.7422310860734465 1.0235455676767602 1.7398682509733416 1.0049535114706605 C 1.7383151643725223 0.9809580059779369 1.7294412987770371 0.9580158168774134 1.7144432968205532 0.9392207031732066 C 1.6984863527209277 0.9171056661329482 1.6867312696717205 0.8922453632606534 1.6797642317753805 0.8658794892709334 C 1.664509480211121 0.7997381066757422 1.679416126082752 0.7302378362988614 1.7204536987403496 0.6761702159770564 C 1.7781446072219804 0.6018762975071497 1.876111512897656 0.5715486705118498 1.9656876373885355 0.600253115537728 C 2.0018541492067357 0.6138472630835192 2.031584757419082 0.6405469158194612 2.0489746354199943 0.6750492283174102 C 2.0740834682721636 0.730606206330976 2.069044971218513 0.7951439551985438 2.035618186709337 0.846131025820177 C 2.030434862779313 0.8540798054307137 2.022305901591315 0.859643662316353 2.0130199402886872 0.8615983661165719 C 2.0037339789860593 0.8635530699167885 1.9940518446483608 0.861738465798357 1.9861039232748268 0.8565538259747416 C 1.9781512403767554 0.8513742839291445 1.9725824827570435 0.843247055409772 1.9706232475462238 0.8339608172872557 C 1.968664012335404 0.8246745791647395 1.9704748676431842 0.8149903802878328 1.975657272318991 0.8070395625402333 C 1.9951766771296726 0.777255271421366 1.9986523410978942 0.7397288224071471 1.9849352340126447 0.7068661972102973 C 1.97573027283111 0.688569348901642 1.9599662343386732 0.6744149286021112 1.9407874008636663 0.6672261655011651 C 1.8806457169942 0.6492352117243637 1.8156320654675637 0.6700850708145402 1.777170904158107 0.719697928293038 C 1.7494642715408926 0.756557093349767 1.739260694843351 0.8036887298630067 1.749241615872071 0.8487069123572298 C 1.7543806120025855 0.8671739901490999 1.7628693534552586 0.8845395298065685 1.774284957204555 0.8999384334831128 C 1.7963383915823987 0.9292259438590146 1.8092193563608476 0.9643913096878096 1.8113014007740922 1.0009942784599957 C 1.8146514075189035 1.0347478737674742 1.8068700493723222 1.0686709098209233 1.789144006395161 1.0975900235995766 C 1.7654746099652299 1.1316459831490113 1.7293216713487547 1.15498511350763 1.6885413266423859 1.1625357554551516 C 1.6862489681573978 1.1630052226299408 1.6839167237079806 1.1632528239242268 1.6815768926718273 1.1632751302944928 Z" fill="#225777" transform="matrix(1,0,0,1,0,0)" fill-rule="nonzero"></path></g><g clip-path="url(#SvgjsClipPath100080cbd73e-5621-48a7-a6f9-b622edeb2ba5)"><path d=" M 2.47163468470851 1.556503290817023 C 2.454431446650149 1.5565987750264634 2.4372664779285897 1.5548718848337013 2.4204270143838986 1.551351517742913 C 2.4011296462653773 1.5471096393465698 2.3889244506118534 1.5280276755383073 2.393165548533395 1.5087301358751515 C 2.39741846335181 1.489442461369104 2.416496927251128 1.477250180578379 2.4357869304011555 1.481492520825915 C 2.485134264385337 1.491942911373783 2.5365621503563256 1.479559202635371 2.575743432247834 1.4477913386327763 C 2.6105996661109185 1.4130818308700899 2.6282861307301477 1.3647126254077238 2.6240413048176245 1.315705601204876 C 2.6212746118704167 1.2142919942089545 2.5375344486148452 1.1524468665183523 2.520767335322716 1.1410700343130251 C 2.50441596323493 1.1299839794075837 2.5001449972196195 1.1077429238828533 2.5112270148151032 1.0913888152696332 C 2.5223130697205454 1.07503744318185 2.544554125245275 1.0707664771665386 2.5609082338584974 1.0818484947620224 C 2.582731717019661 1.0966598423500875 2.691849132825482 1.1774186554470298 2.6955460070221817 1.313725984699547 C 2.7013214466284015 1.383865045293219 2.6748039128622474 1.4528106330852217 2.6235165871897057 1.501002476263986 C 2.581556026157086 1.5377520405259117 2.527403342820096 1.5575405603320003 2.47163468470851 1.556503290817023 Z" fill="#225777" transform="matrix(1,0,0,1,0,0)" fill-rule="nonzero"></path></g><g clip-path="url(#SvgjsClipPath100080cbd73e-5621-48a7-a6f9-b622edeb2ba5)"><path d=" M 2.394095729782887 0.756857476670188 C 2.375643977120391 0.7568396099265614 2.360232490028532 0.7427916056069033 2.3585103342894915 0.7244203869443081 C 2.349518582211067 0.6287071214516788 2.411220605094053 0.5864435016029561 2.445136444498616 0.5774517495245295 C 2.4543118524781216 0.5750236180998537 2.4640760859869966 0.5763409901462563 2.47227994308617 0.5811138993746203 C 2.4804838001853438 0.5858868086029844 2.4864548525652572 0.5937240439956976 2.4888788140260205 0.6029005544785873 C 2.493869362968943 0.6217807088555498 2.482797701376427 0.6411746932558641 2.4640024283024204 0.6464759683971086 C 2.4571095467356705 0.6486702421138588 2.4245055014009034 0.6619551384207107 2.42975267768009 0.7177183117877045 C 2.4306420383006904 0.7271657599218011 2.4277416765984503 0.7365795257412943 2.42168973603853 0.7438883733945912 C 2.415637795478609 0.7511972210478882 2.406930103286887 0.7558023466273119 2.3974825435630898 0.7566905210613042 C 2.3963572788348118 0.7568050540164417 2.3952268034248076 0.7568607816774989 2.394095729782887 0.756857476670188 Z" fill="#225777" transform="matrix(1,0,0,1,0,0)" fill-rule="nonzero"></path></g><g clip-path="url(#SvgjsClipPath100080cbd73e-5621-48a7-a6f9-b622edeb2ba5)"><path d=" M 1.0977092776059265 1.1349403783868812 C 1.0580415774967145 1.13486166711678 1.0184707744873596 1.131020384322128 0.9795285573178725 1.123468142976479 C 0.9601372100627495 1.1197392444130703 0.9474339047314114 1.10100453781097 0.9511461038077245 1.0816099867493256 C 0.954875002371131 1.0622186394942037 0.9736097089732288 1.0495153341628645 0.9930042600348757 1.0532275332391787 C 1.162082590231043 1.0856169213625209 1.3162303188327962 1.0399426369323268 1.3857077029294866 0.9368117722450329 C 1.423548703280874 0.8864315731234835 1.4386433502524063 0.8225430043264473 1.4273512019452173 0.760554350866887 C 1.4139026391439904 0.7037043552225917 1.3790358217016592 0.6542363638011035 1.3300160819662976 0.6224582115191934 C 1.3135315530124503 0.611585969639768 1.308973259505621 0.5894136614109966 1.3198317898244207 0.5729200972834141 C 1.3250533037971606 0.5649968998989774 1.3332085973022776 0.5594726181531471 1.3425033994950455 0.557562666018253 C 1.351798201687813 0.5556527138833567 1.3614710367293503 0.557513564017341 1.3693937548614687 0.5627358051415373 C 1.434106682097379 0.6049450680451287 1.479971516535216 0.6705627225325113 1.4973771544710959 0.7458384064838994 C 1.5129817368804344 0.8267510597057336 1.494005325107769 0.9105015588829066 1.4450484964868402 0.9767857151719326 C 1.376954458863752 1.07784156014882 1.247253801562757 1.1349403783868812 1.0977092776059265 1.1349403783868812 Z" fill="#225777" transform="matrix(1,0,0,1,0,0)" fill-rule="nonzero"></path></g><g clip-path="url(#SvgjsClipPath100080cbd73e-5621-48a7-a6f9-b622edeb2ba5)"><path d=" M 1.5376850086157585 1.7629081249992258 C 1.5316507558946937 1.7629081249992258 1.525473398366014 1.7629081249992258 1.5191529360297211 1.7627173185890734 C 1.4228803162725094 1.7638783333851011 1.3277255091470388 1.7420031951021315 1.2416250124632653 1.698916425194413 C 1.1469697226232745 1.6469681744059346 1.0702191759276833 1.5676321186091366 1.0214344151475625 1.4713082286840404 C 1.0193593954371574 1.4713082286840404 1.017284375726751 1.4713082286840404 1.0152332068176146 1.4713082286840404 C 0.8614280817365068 1.4733161765697784 0.7213703170294096 1.3830354318813436 0.6596893123001565 1.2421258792899126 C 0.6090779120072697 1.1181017126909452 0.6242470216143743 0.9390537475643229 0.7512286875706997 0.8371392737417503 C 0.8303556202205497 0.77759099441438 0.9308493586115371 0.7540014025041211 1.0282080427079672 0.7721219894823711 C 1.0476432740478312 0.7756730362969535 1.0605208279187144 0.7943059811598844 1.0569721090384192 0.8137416376968278 C 1.055272351316582 0.8230792115876241 1.0499319099631677 0.8313587195963392 1.0421262135463363 0.8367578460004166 C 1.0343205171295056 0.842156972404494 1.024689326050401 0.8442332009837707 1.015352460823959 0.842529554828553 C 0.9383766806386543 0.8278742291571901 0.8587825876813904 0.8461635674736734 0.795925089148865 0.8929501487112861 C 0.6962764414468501 0.9729218853663475 0.6852335204592881 1.1155735277564276 0.7258514350204494 1.2151267722533707 C 0.7803647402913163 1.3374165430365963 0.9068074644969956 1.4113091490159337 1.0401095925412143 1.3987779420249171 C 1.0548031210253894 1.3976535362301925 1.0686828934163872 1.405653814313681 1.075074867201615 1.4189318690972494 C 1.117110751866096 1.5105227345388008 1.1871478425894963 1.5863976414338745 1.2750876866437162 1.6356163986264063 C 1.3514303764420252 1.6732917419201874 1.435626508117475 1.6923053537917512 1.520750939714746 1.6910933623781748 C 1.5732133845278211 1.6918129711711565 1.6256236747042092 1.687492037464142 1.6772598976421333 1.6781900788916233 C 1.7430524008835127 1.6632173507381824 1.8115163047086182 1.6646424876284256 1.8766287454499722 1.6823401183124382 C 1.8857350423902646 1.6850355506454686 1.8933959891083534 1.6912410316332327 1.8979234977912132 1.6995891849951044 C 1.9024510064740725 1.7079373383569763 1.9034735302822003 1.7177430787149852 1.9007657563342324 1.726845713480451 C 1.895141471640113 1.745776027124129 1.87524239927526 1.7565689252790995 1.8563078627687561 1.7509588735634414 C 1.7936279570337403 1.732402950176135 1.749456273083494 1.7392719809416155 1.6883266694309644 1.748883853853035 C 1.6385891360530758 1.7577321290512116 1.588201134229617 1.762423095655419 1.5376850086157607 1.7629081249992258 Z" fill="#225777" transform="matrix(1,0,0,1,0,0)" fill-rule="nonzero"></path></g><g clip-path="url(#SvgjsClipPath100080cbd73e-5621-48a7-a6f9-b622edeb2ba5)"><path d=" M 1.6842243316126906 2.2239679643308827 C 1.668473216655553 2.2239654801539044 1.6545767557335496 2.213661762787347 1.6499984317916296 2.198590711780636 C 1.6258755507559541 2.119365097550056 1.584634550264886 2.0464096455461123 1.529194123363983 1.9848875324101056 C 1.4985543745414291 1.951047787952899 1.4638970882257236 1.9210760834478462 1.4259917062728829 1.89563783406139 C 1.4095962953023122 1.8846228413012758 1.4052295995707265 1.8624050080068235 1.416236728553848 1.8460043166205333 C 1.4215267205536217 1.8381240328367419 1.4297312549680894 1.8326687479215782 1.4390444540963057 1.8308392097643071 C 1.4483576532245221 1.8290096716070339 1.4580161707797032 1.8309558363225908 1.4658940967959722 1.8362493389014969 C 1.5086228121602838 1.8649360649168818 1.5476927461804875 1.8987277934185698 1.5822383053863105 1.9368758694555464 C 1.6447600513766953 2.0062157992445417 1.6912701246673503 2.0884552495659 1.7184740822350209 2.177768962272771 C 1.721229599155976 2.1868494001418086 1.7202647119451189 2.1966525817479017 1.7157917213846066 2.205021547086622 C 1.7113187308240931 2.2133905124253404 1.7037041112509794 2.2196395880120567 1.6946232809659887 2.2223938114471276 C 1.691253441571269 2.2234279565614883 1.6877492688146565 2.223958404731067 1.68422433161269 2.2239679643308827 Z" fill="#225777" transform="matrix(1,0,0,1,0,0)" fill-rule="nonzero"></path></g><g clip-path="url(#SvgjsClipPath100080cbd73e-5621-48a7-a6f9-b622edeb2ba5)"><path d=" M 1.7919345501436383 2.2009042395037253 C 1.77558948157357 2.200886251110581 1.7613349628247776 2.1897928584204047 1.7573031867010045 2.1739528340697167 L 1.7226718232583698 2.038003266836238 C 1.7191453448852165 2.0241707929641515 1.7241792968068692 2.00956577044286 1.73547970353984 2.0008437184590857 C 1.7467878931785963 1.9921195054722887 1.7622015525113288 1.9909569180287026 1.7746904208261298 1.9978862191017255 C 1.8013315040672107 2.0126935610216132 1.829741456537436 2.024065556100666 1.8592415113248475 2.0317305061024813 C 1.922683924529804 2.047549671245963 1.989140744704083 2.0466786990725616 2.052146791988777 2.029202321167964 C 2.0656276541501586 2.0259189974906726 2.078212832353519 2.0196875014870668 2.088996279949431 2.0109564581971537 C 2.0969116260988967 2.0042076637583266 2.103308705999772 1.9958597589829783 2.107766860548159 1.9864616852938586 C 2.1121416509500706 1.9770453148184783 2.1143503064275326 1.966768139331104 2.114230427692067 1.9563858248936081 C 2.1140716889932185 1.9366361541074024 2.1299469966983398 1.9204939447932523 2.149696569179116 1.9203234133748333 C 2.159221545425255 1.9201306297191953 2.168421554858664 1.9237883369559066 2.1752139931048764 1.9304685405979194 C 2.1820064313510894 1.9371487442399322 2.18581690270629 1.9462865395897704 2.185782831499162 1.9558134056631553 C 2.1860178347686783 1.976861605503975 2.1815012650339023 1.9976916337934174 2.1725694875961192 2.0167522029055327 C 2.1638454575101127 2.0353463857857492 2.151249337655059 2.051862021309065 2.1356245964303873 2.0651931802829324 C 2.1167787271719565 2.0809228423529094 2.0946412235658753 2.0922198158426113 2.0708458201836972 2.0982503908418115 C 1.9958602661089417 2.1190217780271814 1.9167661881170812 2.119966896373926 1.8413057087705333 2.1009932329877508 C 1.8308113562121597 2.0982742416430784 1.820436257660131 2.095165687211016 1.8101804131144472 2.091667569691559 L 1.8266374659900788 2.1563032411306353 C 1.8315023765898666 2.1754415033095817 1.8199412149484486 2.1949022583163265 1.8008070482157172 2.1997832518440816 C 1.7979086475733543 2.2005295366181032 1.794927485733973 2.2009061887859844 1.7919345501436383 2.2009042395037253 Z" fill="#225777" transform="matrix(1,0,0,1,0,0)" fill-rule="nonzero"></path></g><g clip-path="url(#SvgjsClipPath100080cbd73e-5621-48a7-a6f9-b622edeb2ba5)"><path d=" M 1.9734868494035096 1.6102868476786902 C 1.9596039447209759 1.6102958732614627 1.9469692156461271 1.6022724949011988 1.941073610478895 1.5897036061835152 L 1.941073610478895 1.5897036061835152 C 1.9404296388446314 1.5883202597099102 1.8747445321497167 1.4515836160345483 1.759306654007602 1.4242267469789702 C 1.694694833369795 1.4088668309617143 1.624191864818537 1.4307857173279543 1.5496819616540811 1.4892440312383517 C 1.5422146637981422 1.49509866651185 1.5327273984556247 1.497747008157382 1.5233074022746629 1.4966064103292032 C 1.513887406093701 1.495465812501024 1.505306376341874 1.4906297143269727 1.4994521741815 1.48316207691475 C 1.487255067999548 1.4676184463194228 1.4899673193281886 1.445130252232349 1.505510277703834 1.432932289442167 C 1.5981944914352917 1.3602350471741576 1.6892807014817253 1.333903762573146 1.776240722908615 1.3547016612797445 C 1.9254274848464097 1.390334758375679 2.002656379355535 1.5524963562038254 2.005876237526854 1.5593653869693083 C 2.009893241408068 1.5679618798798354 2.0103306608108467 1.577802057915304 2.0070922629706467 1.5867210707514363 C 2.0038538651304467 1.5956400835875664 1.9972049395545817 1.602907285813333 1.9886082574080755 1.6069238846997587 C 1.9838738792841626 1.6091357598956932 1.978712432423076 1.6102836526518638 1.9734868494035096 1.6102868476786902 Z" fill="#225777" transform="matrix(1,0,0,1,0,0)" fill-rule="nonzero"></path></g><g clip-path="url(#SvgjsClipPath100080cbd73e-5621-48a7-a6f9-b622edeb2ba5)"><path d=" M 1.5561693795992584 1.6102868476786902 C 1.5366229906545907 1.6102891455983226 1.5206928888598594 1.5946033053644444 1.5203931776957105 1.575059214204334 C 1.5157895903010823 1.509776629477523 1.4673343490414683 1.4560106859081463 1.40288027984319 1.4446668836665326 C 1.3836622982655742 1.440082049216693 1.3717990415892933 1.4207869053696742 1.376382039633296 1.4015684857733934 C 1.3809668740831356 1.3823505041957798 1.4002620179301555 1.370487247519499 1.4194804375264356 1.3750702455635004 C 1.515879199075567 1.3939278329150044 1.5870219609994236 1.4760504485668384 1.591945581502806 1.5741528837561067 C 1.5920409220457312 1.5836455560951945 1.5883595419180272 1.592786928000014 1.581712048301861 1.5995641506302238 C 1.5750645546856943 1.6063413732604335 1.5659960328930247 1.610198723703775 1.5565032908170247 1.6102868476786902 Z" fill="#225777" transform="matrix(1,0,0,1,0,0)" fill-rule="nonzero"></path></g><g clip-path="url(#SvgjsClipPath100080cbd73e-5621-48a7-a6f9-b622edeb2ba5)"><path d=" M 1.661852280022338 1.2483032368185918 C 1.6558039920646028 1.2483021078319991 1.6498547171481577 1.2467676051983776 1.6445604491022894 1.2438431369812828 C 1.6273635544990548 1.2343392960754467 1.6210493003330275 1.2127451857066374 1.6304169239497548 1.1954737120076848 C 1.64857583571753 1.1576211263482346 1.6382354266571886 1.1122459087698766 1.6054689858223476 1.0859985341828282 C 1.5985127581535539 1.0795362692301167 1.5944106474099564 1.0705738698883343 1.594066181020921 1.0610853866267194 C 1.5937217146318847 1.0515969033651 1.5971631480687027 1.0423606459837698 1.603632474124632 1.0354109846912114 C 1.6100939192658172 1.028461970678305 1.6190513105766722 1.0243645191910165 1.628533949780031 1.0240201025784421 C 1.6380165889833906 1.0236756859658656 1.6472476312240794 1.0271125198194424 1.6541961728149799 1.0335744729934975 C 1.7107844762329953 1.08226027871337 1.7269015918798265 1.1632492768141447 1.6932637852936536 1.2298904182388983 C 1.686933007734639 1.241295536394243 1.6748965575606642 1.2483510713481585 1.661852280022338 1.2483032368185918 Z" fill="#225777" transform="matrix(1,0,0,1,0,0)" fill-rule="nonzero"></path></g><g clip-path="url(#SvgjsClipPath100080cbd73e-5621-48a7-a6f9-b622edeb2ba5)"><path d=" M 1.0411113261945137 1.473359397593178 C 1.038151630554292 1.4733562084788954 1.0352036444223176 1.472987710212401 1.03233423132751 1.4722622607348006 C 1.0131869771885673 1.4674338012364967 1.0015725088904925 1.4480051869878796 1.0063845595468035 1.4288538024251607 C 1.0376401206681811 1.3009494969629851 1.1426100167345006 1.2043008440011698 1.2726549049142755 1.183691416180784 C 1.342144926002104 1.1746430001820363 1.41265142290548 1.1893882482526827 1.472691575157647 1.2255257216066688 C 1.489761691858732 1.2354719423673282 1.4955383556462976 1.2573720115508713 1.4855948586441927 1.274443715009451 C 1.4756486378835307 1.2915138317105377 1.453748568699988 1.2972904954981008 1.4366768652414086 1.287346998495998 C 1.3905428495426815 1.2590992741010087 1.336118051248964 1.2475240076425609 1.282481435037116 1.2545521467510796 C 1.1812419440065396 1.270991091230693 1.0997598023690343 1.346587262332186 1.0757903912396864 1.4463125889540964 C 1.0717911068645856 1.462207706092792 1.0575018408874612 1.4733521542482662 1.0411113261945137 1.473359397593178 Z" fill="#225777" transform="matrix(1,0,0,1,0,0)" fill-rule="nonzero"></path></g></g></g><defs><clipPath id="SvgjsClipPath1001"><path d=" M 0 0 h 3.218117062826671 v 3.313162505883764 h -3.218117062826671 Z"></path></clipPath><clipPath id="SvgjsClipPath100080cbd73e-5621-48a7-a6f9-b622edeb2ba5"><path d=" M 0 0 L 3.218117062826671 0 L 3.218117062826671 3.313162505883764 L 0 3.313162505883764 Z"></path></clipPath></defs></svg>